<?xml version="1.0" standalone="no"?>
  <!DOCTYPE svg PUBLIC "-//W3C//DTD SVG 1.1//EN" "http://www.w3.org/Graphics/SVG/1.1/DTD/svg11.dtd" >
  <svg>
  <metadata>
  Created by font-carrier
  </metadata>
  <defs>
  <font id="Gramatika-Regular" horiz-adv-x="1333" vert-adv-y="1333" >
    <font-face
      
      font-family="Gramatika-Regular"
      
      font-weight="400"
      
      font-stretch="normal"
      
      units-per-em="1000"
      
      ascent="772"
      
      descent="-228"
      
    />
      <missing-glyph />

      

      
      <glyph glyph-name="uni21" unicode="&#x21;" d="M104 202L98 700L183 700L178 202L104 202M141-5Q116-5 99 11.50Q82 28 82 53Q82 77 99 93.50Q116 110 141 110Q165 110 182.50 93.50Q200 77 200 53Q200 29 182.50 12Q165-5 141-5Z"  horiz-adv-x="284" vert-adv-y="1000"  />

      
      <glyph glyph-name="uni22" unicode="&#x22;" d="M103 456L103 720L182 720L164 456L103 456M283 456L283 720L362 720L345 456L283 456Z"  horiz-adv-x="457" vert-adv-y="1000"  />

      
      <glyph glyph-name="uni23" unicode="&#x23;" d="M124 0L156 181L39 181L50 251L168 251L204 456L79 456L90 526L217 526L248 700L321 700L290 526L481 526L512 700L585 700L554 526L675 526L664 456L542 456L506 251L636 251L624 181L493 181L461 0L388 0L420 181L229 181L197 0L124 0M242 251L433 251L469 456L278 456L242 251Z"  horiz-adv-x="714" vert-adv-y="1000"  />

      
      <glyph glyph-name="uni24" unicode="&#x24;" d="M278-100L278-7Q196 4 138 50Q80 96 62 169L138 195Q150 146 188 113.50Q226 81 278 72L278 323Q232 334 201 346Q170 358 137 379Q104 400 87 434.50Q70 469 70 516Q70 599 126.50 650.50Q183 702 278 709L278 780L347 780L347 707Q426 697 481 651Q536 605 553 531L477 505Q465 555 430.50 586.50Q396 618 347 628L347 385Q395 375 426 364.50Q457 354 494.50 333Q532 312 551.50 275.50Q571 239 571 189Q571 99 510.50 47.50Q450-4 347-9L347-100L278-100M278 401L278 632Q224 626 191 595.50Q158 565 158 519Q158 469 189 443Q220 417 278 401M347 68Q411 73 448 102.50Q485 132 485 188Q485 241 449.50 266Q414 291 347 306L347 68Z"  horiz-adv-x="633" vert-adv-y="1000"  />

      
      <glyph glyph-name="uni25" unicode="&#x25;" d="M224 362Q148 362 98.50 409.50Q49 457 49 534Q49 613 98.50 661.50Q148 710 224 710Q299 710 349 661Q399 612 399 534Q399 457 349 409.50Q299 362 224 362M177 0L662 700L736 700L251 0L177 0M146 453.50Q146 453.50 162 437.25Q178 421 224 421Q270 421 302 453.50Q334 486 334 534Q334 584 302 617.50Q270 651 224 651Q178 651 146 617.50Q114 584 114 534Q114 486 146 453.50M688-10Q613-10 563.50 38Q514 86 514 162Q514 241 563.50 289.50Q613 338 688 338Q764 338 813.50 289.50Q863 241 863 162Q863 86 813.50 38Q764-10 688-10M610 81.50Q610 81.50 626 65.25Q642 49 688 49Q734 49 766.50 81.50Q799 114 799 163Q799 213 766.50 246Q734 279 688 279Q642 279 610 246Q578 213 578 163Q578 114 610 81.50Z"  horiz-adv-x="912" vert-adv-y="1000"  />

      
      <glyph glyph-name="uni26" unicode="&#x26;" d="M293-10Q186-10 118.50 48Q51 106 51 200Q51 273 92 319Q133 365 205 399Q136 478 136 552Q136 619 183.50 664.50Q231 710 311 710Q391 710 442.50 665Q494 620 494 550Q494 514 480.50 485.50Q467 457 439.50 435.50Q412 414 387 400.50Q362 387 323 371L495 188Q526 248 527 321L601 321Q601 222 547 132L669 0L576 0L498 83Q421-10 293-10M279 421Q314 438 330.50 447Q347 456 370 473Q393 490 402.50 508.50Q412 527 412 551Q412 593 384 619Q356 645 313 645Q270 645 243.50 618Q217 591 217 548Q217 496 279 421M297 55Q390 55 446 137L249 346Q195 317 165 284.50Q135 252 135 202Q135 137 181 96Q227 55 297 55Z"  horiz-adv-x="700" vert-adv-y="1000"  />

      
      <glyph glyph-name="uni27" unicode="&#x27;" d="M103 456L103 720L182 720L164 456L103 456Z"  horiz-adv-x="277" vert-adv-y="1000"  />

      
      <glyph glyph-name="uni28" unicode="&#x28;" d="M216-145Q47 20 47 284Q47 548 216 713L283 679Q208 604 168 501.50Q128 399 128 284Q128 169 168 66.50Q208-36 283-111L216-145Z"  horiz-adv-x="299" vert-adv-y="1000"  />

      
      <glyph glyph-name="uni29" unicode="&#x29;" d="M95-145L28-111Q103-35 143 67Q183 169 183 284Q183 399 143 501Q103 603 28 679L95 713Q264 548 264 284Q264 20 95-145Z"  horiz-adv-x="299" vert-adv-y="1000"  />

      
      <glyph glyph-name="uni2a" unicode="&#x2a;" d="M141 407L97 439L177 546L57 589L73 637L199 593L199 710L251 710L251 593L376 635L392 587L272 546L352 436L309 406L224 518L141 407Z"  horiz-adv-x="450" vert-adv-y="1000"  />

      
      <glyph glyph-name="uni2b" unicode="&#x2b;" d="M530 356L530 285L325 285L325 74L255 74L255 285L50 285L50 356L255 356L255 561L325 561L325 356L530 356Z"  horiz-adv-x="579" vert-adv-y="1000"  />

      
      <glyph glyph-name="uni2c" unicode="&#x2c;" d="M114-113L81-80Q128-38 134-2Q92 10 92 53Q92 77 109 93.50Q126 110 150 110Q175 110 192.50 93Q210 76 210 46Q210-26 114-113Z"  horiz-adv-x="287" vert-adv-y="1000"  />

      
      <glyph glyph-name="uni2d" unicode="&#x2d;" d="M74 230L74 300L357 300L357 230L74 230Z"  horiz-adv-x="431" vert-adv-y="1000"  />

      
      <glyph glyph-name="uni2e" unicode="&#x2e;" d="M151-5Q126-5 109.50 11.50Q93 28 93 53Q93 77 109.50 93.50Q126 110 151 110Q175 110 192.50 93.50Q210 77 210 53Q210 29 192.50 12Q175-5 151-5Z"  horiz-adv-x="303" vert-adv-y="1000"  />

      
      <glyph glyph-name="uni2f" unicode="&#x2f;" d="M-1-70L273 730L354 730L80-70L-1-70Z"  horiz-adv-x="354" vert-adv-y="1000"  />

      
      <glyph glyph-name="uni30" unicode="&#x30;" d="M331-10Q206-10 131 86.50Q56 183 56 350Q56 517 131 613.50Q206 710 330 710Q454 710 529.50 613.50Q605 517 605 350Q605 183 529.50 86.50Q454-10 331-10M331 64Q417 64 469.50 140.50Q522 217 522 350Q522 483 469 559.50Q416 636 330 636Q244 636 191.50 559.50Q139 483 139 350Q139 217 191.50 140.50Q244 64 331 64Z"  horiz-adv-x="661" vert-adv-y="1000"  />

      
      <glyph glyph-name="uni31" unicode="&#x31;" d="M173 0L173 613Q108 576 25 576L25 649Q110 649 181 700L255 700L255 0L173 0Z"  horiz-adv-x="349" vert-adv-y="1000"  />

      
      <glyph glyph-name="uni32" unicode="&#x32;" d="M29 0L29 56L206 234Q310 339 340 377Q402 456 402 514Q402 569 364 603.50Q326 638 264 638Q207 638 166.50 608.50Q126 579 116 528L46 552Q63 626 122.50 668Q182 710 267 710Q363 710 424.50 658Q486 606 486 523Q486 485 471.50 446.50Q457 408 426.50 369Q396 330 373.50 305Q351 280 312 241Q302 231 297 226L145 73L492 73L492 0L29 0Z"  horiz-adv-x="539" vert-adv-y="1000"  />

      
      <glyph glyph-name="uni33" unicode="&#x33;" d="M265-10Q176-10 115 33Q54 76 38 148L108 172Q119 122 160 92Q201 62 262 62Q328 62 374.50 96Q421 130 421 196Q421 261 374.50 294.50Q328 328 256 328L176 328L176 395L256 395Q324 395 367.50 424.50Q411 454 411 512Q411 573 365.50 605.50Q320 638 257 638Q199 638 159 608Q119 578 108 528L38 552Q55 625 115 667.50Q175 710 261 710Q360 710 426.50 656.50Q493 603 493 513Q493 404 390 361Q503 311 503 193Q503 97 434.50 43.50Q366-10 265-10Z"  horiz-adv-x="562" vert-adv-y="1000"  />

      
      <glyph glyph-name="uni34" unicode="&#x34;" d="M400 0L400 154L24 154L24 220L406 700L482 700L482 227L584 227L584 154L482 154L482 0L400 0M118 227L400 227L400 580L118 227Z"  horiz-adv-x="610" vert-adv-y="1000"  />

      
      <glyph glyph-name="uni35" unicode="&#x35;" d="M293-10Q207-10 145.50 32.50Q84 75 68 145L139 169Q149 121 189.50 91.50Q230 62 288 62Q361 62 407 109.50Q453 157 453 231Q453 304 408 350Q363 396 292 396Q237 396 199 370Q161 344 150 298L79 318L79 700L506 700L506 628L152 628L152 408Q203 469 297 469Q401 469 468 403Q535 337 535 230Q535 123 467.50 56.50Q400-10 293-10Z"  horiz-adv-x="583" vert-adv-y="1000"  />

      
      <glyph glyph-name="uni36" unicode="&#x36;" d="M302 468Q401 468 469 400Q537 332 537 228Q537 123 465 56.50Q393-10 288-10Q185-10 113.50 56.50Q42 123 42 227Q42 285 70 348L227 700L310 700L200 446Q247 468 302 468M289 62Q357 62 405.50 108.50Q454 155 454 228Q454 303 406 349.50Q358 396 289 396Q219 396 171.50 349.50Q124 303 124 228Q124 155 172 108.50Q220 62 289 62Z"  horiz-adv-x="575" vert-adv-y="1000"  />

      
      <glyph glyph-name="uni37" unicode="&#x37;" d="M107 0L390 624L22 624L22 700L485 700L485 646L201 0L107 0Z"  horiz-adv-x="509" vert-adv-y="1000"  />

      
      <glyph glyph-name="uni38" unicode="&#x38;" d="M476 46.50Q476 46.50 442.50 18.25Q409-10 299-10Q189-10 122 46Q55 102 55 190Q55 248 86 293Q117 338 171 361Q72 406 72 518Q72 602 134 656Q196 710 299 710Q402 710 463.50 656Q525 602 525 518Q525 464 499 423Q473 382 427 361Q481 338 512 293Q543 248 543 190Q543 103 476 46.50M194.50 427.50Q194.50 427.50 214.75 411.25Q235 395 299 395Q363 395 403 427.50Q443 460 443 514Q443 570 403 604Q363 638 299 638Q235 638 194.50 604Q154 570 154 514Q154 460 194.50 427.50M299 62Q370 62 415.50 99Q461 136 461 196Q461 256 416 292Q371 328 299 328Q227 328 182 292Q137 256 137 196Q137 136 182 99Q227 62 299 62Z"  horiz-adv-x="598" vert-adv-y="1000"  />

      
      <glyph glyph-name="uni39" unicode="&#x39;" d="M111 643.50Q111 643.50 147 676.75Q183 710 287 710Q391 710 462.50 644Q534 578 534 473Q534 419 506 353L348 0L265 0L376 255Q327 232 274 232Q174 232 106.50 300Q39 368 39 472Q39 577 111 643.50M170 350.50Q170 350.50 194 327.25Q218 304 287 304Q356 304 404 350.50Q452 397 452 472Q452 545 403.50 591.50Q355 638 287 638Q219 638 170.50 591.50Q122 545 122 472Q122 397 170 350.50Z"  horiz-adv-x="575" vert-adv-y="1000"  />

      
      <glyph glyph-name="uni3a" unicode="&#x3a;" d="M181.50 382Q181.50 382 172.75 373.50Q164 365 140 365Q116 365 99 381.50Q82 398 82 423Q82 447 99 464Q116 481 140 481Q164 481 181.50 464Q199 447 199 423Q199 399 181.50 382M181.50 12Q181.50 12 172.75 3.50Q164-5 140-5Q116-5 99 11.50Q82 28 82 53Q82 77 99 93.50Q116 110 140 110Q164 110 181.50 93.50Q199 77 199 53Q199 29 181.50 12Z"  horiz-adv-x="282" vert-adv-y="1000"  />

      
      <glyph glyph-name="uni3b" unicode="&#x3b;" d="M146 481Q171 481 188 464Q205 447 205 423Q205 399 188 382Q171 365 146 365Q122 365 104.50 382Q87 399 87 423Q87 447 104.50 464Q122 481 146 481M115-113L82-80Q130-38 134-2Q93 10 93 53Q93 77 109.50 93.50Q126 110 151 110Q176 110 193 93Q210 76 210 46Q210-27 115-113Z"  horiz-adv-x="293" vert-adv-y="1000"  />

      
      <glyph glyph-name="uni3c" unicode="&#x3c;" d="M509 566L509 483L111 298L509 113L509 30L50 257L50 340L509 566Z"  horiz-adv-x="573" vert-adv-y="1000"  />

      
      <glyph glyph-name="uni3d" unicode="&#x3d;" d="M554 456L554 389L111 389L111 456L554 456M554 245L554 178L111 178L111 245L554 245Z"  horiz-adv-x="664" vert-adv-y="1000"  />

      
      <glyph glyph-name="uni3e" unicode="&#x3e;" d="M63 566L523 340L523 257L63 30L63 113L462 298L63 483L63 566Z"  horiz-adv-x="573" vert-adv-y="1000"  />

      
      <glyph glyph-name="uni3f" unicode="&#x3f;" d="M208 202L208 396L231 396Q303 396 350.50 427Q398 458 398 519Q398 574 360 604Q322 634 260 634Q200 634 160 605Q120 576 106 523L30 550Q48 626 110.50 668Q173 710 259 710Q362 710 422.50 658.50Q483 607 482 524Q481 448 428.50 401.50Q376 355 282 340L282 202L208 202M245-5Q220-5 203 11.50Q186 28 186 53Q186 77 203 93.50Q220 110 245 110Q269 110 286.50 93.50Q304 77 304 53Q304 29 286.50 12Q269-5 245-5Z"  horiz-adv-x="524" vert-adv-y="1000"  />

      
      <glyph glyph-name="uni40" unicode="&#x40;" d="M465-189Q291-189 176.50-74Q62 41 62 230Q62 426 183.50 547.50Q305 669 491 669Q672 669 788.50 554Q905 439 905 252Q905 129 850 61Q795-7 711-7Q654-7 617.50 27.50Q581 62 580 122Q554 78 512.50 55.50Q471 33 425 33Q356 33 309 84.50Q262 136 262 223Q262 329 323.50 400.50Q385 472 472 472Q575 472 610 375L621 462L683 462L640 169Q631 113 651.50 77.50Q672 42 717 42Q781 42 816.50 96.50Q852 151 852 245Q852 418 750 517.50Q648 617 492 617Q327 617 220.50 511.50Q114 406 114 232Q114 64 213.50-36.50Q313-137 467-137Q538-137 606.50-115Q675-93 713-59L743-102Q693-141 617-165Q541-189 465-189M445 87Q506 87 549.50 141.50Q593 196 593 278Q593 345 562 381.50Q531 418 478 418Q412 418 368.50 363.50Q325 309 325 228Q325 163 358 125Q391 87 445 87Z"  horiz-adv-x="963" vert-adv-y="1000"  />

      
      <glyph glyph-name="uni41" unicode="&#x41;" d="M400 700L694 0L606 0L533 177L176 177L103 0L15 0L309 700L400 700M207 252L502 252L355 607L207 252Z"  horiz-adv-x="709" vert-adv-y="1000"  />

      
      <glyph glyph-name="uni42" unicode="&#x42;" d="M90 0L90 700L375 700Q479 700 535 651.50Q591 603 591 518Q591 415 491 370Q546 347 576 303.50Q606 260 606 201Q606 109 547 54.50Q488 0 377 0L90 0M172 403L365 403Q433 403 469 432Q505 461 505 515Q505 628 365 628L172 628L172 403M172 73L369 73Q444 73 482.50 108.50Q521 144 521 205Q521 263 481 296.50Q441 330 369 330L172 330L172 73Z"  horiz-adv-x="658" vert-adv-y="1000"  />

      
      <glyph glyph-name="uni43" unicode="&#x43;" d="M398-10Q250-10 151 91Q52 192 52 351Q52 511 150.50 610.50Q249 710 398 710Q515 710 602 652.50Q689 595 714 498L634 472Q616 541 551.50 585.50Q487 630 398 630Q286 630 212.50 553Q139 476 139 351Q139 226 212.50 148Q286 70 398 70Q487 70 552 114.50Q617 159 635 229L714 202Q689 105 602 47.50Q515-10 398-10Z"  horiz-adv-x="763" vert-adv-y="1000"  />

      
      <glyph glyph-name="uni44" unicode="&#x44;" d="M90 0L90 700L317 700Q486 700 580 608Q674 516 674 351Q674 186 580 93Q486 0 317 0L90 0M172 76L311 76Q443 76 515 149Q587 222 587 351Q587 480 515 552Q443 624 311 624L172 624L172 76Z"  horiz-adv-x="726" vert-adv-y="1000"  />

      
      <glyph glyph-name="uni45" unicode="&#x45;" d="M90 0L90 700L544 700L544 624L172 624L172 389L536 389L536 313L172 313L172 76L549 76L549 0L90 0Z"  horiz-adv-x="620" vert-adv-y="1000"  />

      
      <glyph glyph-name="uni46" unicode="&#x46;" d="M90 0L90 700L544 700L544 624L172 624L172 374L524 374L524 299L172 299L172 0L90 0Z"  horiz-adv-x="598" vert-adv-y="1000"  />

      
      <glyph glyph-name="uni47" unicode="&#x47;" d="M324 313L715 313L715 0L640 0L640 105Q602 50 541 20Q480-10 407-10Q253-10 152.50 90.50Q52 191 52 351Q52 511 150.50 610.50Q249 710 398 710Q515 710 602 652.50Q689 595 714 498L634 472Q616 541 551.50 585.50Q487 630 398 630Q286 630 212.50 553Q139 476 139 351Q139 226 214 148Q289 70 407 70Q495 70 558 117Q621 164 640 237L324 237L324 313Z"  horiz-adv-x="774" vert-adv-y="1000"  />

      
      <glyph glyph-name="uni48" unicode="&#x48;" d="M90 0L90 700L172 700L172 388L542 388L542 700L623 700L623 0L542 0L542 312L172 312L172 0L90 0Z"  horiz-adv-x="713" vert-adv-y="1000"  />

      
      <glyph glyph-name="uni49" unicode="&#x49;" d="M91 0L91 700L173 700L173 0L91 0Z"  horiz-adv-x="263" vert-adv-y="1000"  />

      
      <glyph glyph-name="uni4a" unicode="&#x4a;" d="M103 213L103 183Q103 131 133 100.50Q163 70 212 70Q269 70 299.50 104Q330 138 330 198L330 700L411 700L411 198Q411 97 359 43.50Q307-10 212-10Q126-10 73 40.50Q20 91 20 180L20 196L103 213Z"  horiz-adv-x="497" vert-adv-y="1000"  />

      
      <glyph glyph-name="uni4b" unicode="&#x4b;" d="M90 0L90 700L172 700L172 339L515 700L616 700L339 399L631 0L527 0L277 336L172 231L172 0L90 0Z"  horiz-adv-x="641" vert-adv-y="1000"  />

      
      <glyph glyph-name="uni4c" unicode="&#x4c;" d="M90 0L90 700L172 700L172 76L543 76L543 0L90 0Z"  horiz-adv-x="560" vert-adv-y="1000"  />

      
      <glyph glyph-name="uni4d" unicode="&#x4d;" d="M717 700L818 700L818 0L736 0L736 540L492 0L417 0L172 540L172 0L90 0L90 700L191 700L455 120L717 700Z"  horiz-adv-x="909" vert-adv-y="1000"  />

      
      <glyph glyph-name="uni4e" unicode="&#x4e;" d="M575 700L657 700L657 0L575 0L172 557L172 0L90 0L90 700L171 700L575 144L575 700Z"  horiz-adv-x="747" vert-adv-y="1000"  />

      
      <glyph glyph-name="uni4f" unicode="&#x4f;" d="M656 90.50Q656 90.50 606 40.25Q556-10 404-10Q252-10 152 90.50Q52 191 52 351Q52 511 151.50 610.50Q251 710 404 710Q557 710 656.50 610.50Q756 511 756 351Q756 191 656 90.50M404 70Q520 70 594.50 148Q669 226 669 351Q669 476 594.50 553Q520 630 404 630Q289 630 214 553Q139 476 139 351Q139 226 214 148Q289 70 404 70Z"  horiz-adv-x="808" vert-adv-y="1000"  />

      
      <glyph glyph-name="uni50" unicode="&#x50;" d="M90 0L90 700L359 700Q468 700 532 639Q596 578 596 475Q596 372 532 311.50Q468 251 359 251L172 251L172 0L90 0M172 327L357 327Q431 327 471 366Q511 405 511 475Q511 546 471 585Q431 624 357 624L172 624L172 327Z"  horiz-adv-x="641" vert-adv-y="1000"  />

      
      <glyph glyph-name="uni51" unicode="&#x51;" d="M712-82L590 40Q506-10 404-10Q251-10 151 90.50Q51 191 51 351Q51 511 151 610.50Q251 710 404 710Q556 710 656 610.50Q756 511 756 351Q756 195 656 93L771-22L712-82M404 70Q473 70 529 101L394 236L453 295L596 152Q669 231 669 351Q669 476 594 553Q519 630 404 630Q288 630 213 553Q138 476 138 351Q138 227 213 148.50Q288 70 404 70Z"  horiz-adv-x="804" vert-adv-y="1000"  />

      
      <glyph glyph-name="uni52" unicode="&#x52;" d="M90 0L90 700L359 700Q467 700 531.50 641Q596 582 596 485Q596 403 547.50 347Q499 291 415 277L598 0L508 0L329 271L172 271L172 0L90 0M172 347L359 347Q432 347 471.50 384Q511 421 511 485Q511 549 471.50 586.50Q432 624 359 624L172 624L172 347Z"  horiz-adv-x="647" vert-adv-y="1000"  />

      
      <glyph glyph-name="uni53" unicode="&#x53;" d="M321-10Q219-10 147 38.50Q75 87 54 175L130 202Q146 137 198 102Q250 67 321 67Q389 67 433 97Q477 127 477 187Q477 211 467.50 230Q458 249 445 261Q432 273 408 283Q384 293 365 298.50Q346 304 314 311Q284 318 275 320.50Q266 323 237.50 331Q209 339 198 343.50Q187 348 163.50 358.50Q140 369 129.50 378.50Q119 388 103 403Q87 418 80 434Q73 450 67.50 471.50Q62 493 62 517Q62 605 125.50 657.50Q189 710 292 710Q390 710 458 662Q526 614 546 525L470 498Q455 564 407.50 598.50Q360 633 293 633Q230 633 190 602Q150 571 150 518Q150 493 159.50 474Q169 455 181.50 443Q194 431 219 420.50Q244 410 262 405Q280 400 313 392Q420 367 460 348Q565 297 565 187Q565 94 498 42Q431-10 321-10Z"  horiz-adv-x="617" vert-adv-y="1000"  />

      
      <glyph glyph-name="uni54" unicode="&#x54;" d="M241 0L241 624L17 624L17 700L547 700L547 624L323 624L323 0L241 0Z"  horiz-adv-x="564" vert-adv-y="1000"  />

      
      <glyph glyph-name="uni55" unicode="&#x55;" d="M341-10Q223-10 152 64.50Q81 139 81 261L81 700L162 700L162 260Q162 175 212 122.50Q262 70 341 70Q421 70 469.50 122.50Q518 175 518 260L518 700L600 700L600 259Q600 138 529 64Q458-10 341-10Z"  horiz-adv-x="681" vert-adv-y="1000"  />

      
      <glyph glyph-name="uni56" unicode="&#x56;" d="M596 700L684 700L394 0L305 0L15 700L103 700L350 100L596 700Z"  horiz-adv-x="699" vert-adv-y="1000"  />

      
      <glyph glyph-name="uni57" unicode="&#x57;" d="M1003 700L1093 700L857 0L763 0L559 586L355 0L260 0L24 700L114 700L310 107L514 700L604 700L807 107L1003 700Z"  horiz-adv-x="1119" vert-adv-y="1000"  />

      
      <glyph glyph-name="uni58" unicode="&#x58;" d="M652 700L390 344L647 0L552 0L338 288L123 0L28 0L290 352L31 700L126 700L342 409L558 700L652 700Z"  horiz-adv-x="680" vert-adv-y="1000"  />

      
      <glyph glyph-name="uni59" unicode="&#x59;" d="M549 700L639 700L363 254L363 0L281 0L281 254L4 700L95 700L322 332L549 700Z"  horiz-adv-x="642" vert-adv-y="1000"  />

      
      <glyph glyph-name="uni5a" unicode="&#x5a;" d="M170 76L596 76L596 0L54 0L54 57L480 624L65 624L65 700L593 700L593 643L170 76Z"  horiz-adv-x="650" vert-adv-y="1000"  />

      
      <glyph glyph-name="uni5b" unicode="&#x5b;" d="M89-132L89 700L331 700L331 630L170 630L170-61L331-61L331-132L89-132Z"  horiz-adv-x="354" vert-adv-y="1000"  />

      
      <glyph glyph-name="uni5c" unicode="&#x5c;" d="M364-70L284-70L9 730L90 730L364-70Z"  horiz-adv-x="354" vert-adv-y="1000"  />

      
      <glyph glyph-name="uni5d" unicode="&#x5d;" d="M278-132L36-132L36-61L197-61L197 630L36 630L36 700L278 700L278-132Z"  horiz-adv-x="354" vert-adv-y="1000"  />

      
      <glyph glyph-name="uni5e" unicode="&#x5e;" d="M249 710L325 710L534 295L458 295L287 639L116 295L41 295L249 710Z"  horiz-adv-x="575" vert-adv-y="1000"  />

      
      <glyph glyph-name="uni5f" unicode="&#x5f;" d="M615-53L615-124L103-124L103-53L615-53Z"  horiz-adv-x="718" vert-adv-y="1000"  />

      
      <glyph glyph-name="uni60" unicode="&#x60;" d="M76 564L13 564L-77 716L-2 716L76 564Z"   vert-adv-y="1000"  />

      
      <glyph glyph-name="uni61" unicode="&#x61;" d="M485 59Q493 59 502 61L502-7Q487-10 468-10Q431-10 406 8.50Q381 27 376 61Q324-10 216-10Q140-10 92.50 28Q45 66 45 133Q45 199 91 234Q137 269 206 276L375 295L375 304Q375 361 341 392Q307 423 253 423Q209 423 178.50 400.50Q148 378 138 340L67 356Q83 421 135 455Q187 489 257 489Q348 489 401.50 441.50Q455 394 455 306L455 88Q455 59 485 59M242 54Q303 58 339 95.50Q375 133 375 198L375 232L219 214Q125 204 125 134Q125 93 159.50 72Q194 51 242 54Z"  horiz-adv-x="533" vert-adv-y="1000"  />

      
      <glyph glyph-name="uni62" unicode="&#x62;" d="M333 489Q434 489 501 419Q568 349 568 239Q568 129 501 59.50Q434-10 334-10Q215-10 158 82L158 0L78 0L78 700L158 700L158 398Q215 489 333 489M203.50 110.50Q203.50 110.50 226.25 85.75Q249 61 320 61Q391 61 438.50 110Q486 159 486 239Q486 319 438.50 368.50Q391 418 320 418Q249 418 203.50 368Q158 318 158 239Q158 160 203.50 110.50Z"  horiz-adv-x="612" vert-adv-y="1000"  />

      
      <glyph glyph-name="uni63" unicode="&#x63;" d="M287-10Q183-10 114 59Q45 128 45 238Q45 348 113.50 418.50Q182 489 287 489Q365 489 424 451.50Q483 414 501 349L430 324Q420 366 381 391Q342 416 290 416Q220 416 173.50 366.50Q127 317 127 239Q127 160 173.50 111Q220 62 291 62Q342 62 381 87.50Q420 113 430 155L501 131Q483 65 424 27.50Q365-10 287-10Z"  horiz-adv-x="536" vert-adv-y="1000"  />

      
      <glyph glyph-name="uni64" unicode="&#x64;" d="M455 700L535 700L535 0L455 0L455 82Q398-10 279-10Q179-10 112 59.50Q45 129 45 239Q45 349 111.50 419Q178 489 279 489Q398 489 455 397L455 700M174.50 110Q174.50 110 198.25 85.50Q222 61 293 61Q364 61 409.50 110.50Q455 160 455 239Q455 318 409.50 368Q364 418 293 418Q222 418 174.50 368.50Q127 319 127 239Q127 159 174.50 110Z"  horiz-adv-x="613" vert-adv-y="1000"  />

      
      <glyph glyph-name="uni65" unicode="&#x65;" d="M285-10Q181-10 113 58.50Q45 127 45 239Q45 351 112.50 420Q180 489 283 489Q385 489 449.50 423Q514 357 514 248Q514 236 512 222L125 222Q129 146 173 101Q217 56 285 56Q337 56 375 81.50Q413 107 423 151L494 128Q476 63 418.50 26.50Q361-10 285-10M129 285L435 285Q427 346 386 384Q345 422 284 422Q224 422 182 385Q140 348 129 285Z"  horiz-adv-x="558" vert-adv-y="1000"  />

      
      <glyph glyph-name="uni66" unicode="&#x66;" d="M126 0L126 409L23 409L23 479L126 479L126 536Q126 621 173.50 665.50Q221 710 299 710Q355 710 406 693L395 628Q353 643 314 643Q261 643 233.50 613.50Q206 584 206 532L206 479L400 479L400 409L206 409L206 0L126 0Z"  horiz-adv-x="418" vert-adv-y="1000"  />

      
      <glyph glyph-name="uni67" unicode="&#x67;" d="M455 479L535 479L535 24Q535-86 469.50-148Q404-210 299-210Q217-210 155.50-172Q94-134 74-70L146-39Q157-83 198.50-111Q240-139 298-139Q369-139 412-98Q455-57 455 19L455 82Q398-10 279-10Q179-10 112 59.50Q45 129 45 239Q45 349 111.50 419Q178 489 279 489Q398 489 455 397L455 479M174.50 110Q174.50 110 198.25 85.50Q222 61 293 61Q364 61 409.50 110.50Q455 160 455 239Q455 318 409.50 368Q364 418 293 418Q222 418 174.50 368.50Q127 319 127 239Q127 159 174.50 110Z"  horiz-adv-x="613" vert-adv-y="1000"  />

      
      <glyph glyph-name="uni68" unicode="&#x68;" d="M305 489Q389 489 440 441Q491 393 491 306L491 0L411 0L411 288Q411 351 377 383.50Q343 416 285 416Q228 416 193 376.50Q158 337 158 269L158 0L78 0L78 700L158 700L158 414Q206 489 305 489Z"  horiz-adv-x="565" vert-adv-y="1000"  />

      
      <glyph glyph-name="uni69" unicode="&#x69;" d="M171 597Q171 597 162 588.50Q153 580 128 580Q103 580 85.50 597Q68 614 68 639Q68 664 85.50 681.50Q103 699 128 699Q153 699 171 681.50Q189 664 189 639Q189 614 171 597M88 0L88 479L168 479L168 0L88 0Z"  horiz-adv-x="257" vert-adv-y="1000"  />

      
      <glyph glyph-name="uni6a" unicode="&#x6a;" d="M189.50 597.50Q189.50 597.50 180.25 588.75Q171 580 146 580Q121 580 103.50 597Q86 614 86 639Q86 664 103.50 681.50Q121 699 146 699Q171 699 189.50 681.50Q208 664 208 639Q208 615 189.50 597.50M46-203Q11-203-23-195L-13-126Q11-133 35-133Q107-133 107-57L107 479L187 479L187-65Q187-131 150.50-167Q114-203 46-203Z"  horiz-adv-x="271" vert-adv-y="1000"  />

      
      <glyph glyph-name="uni6b" unicode="&#x6b;" d="M78 0L78 700L158 700L158 253L403 479L496 479L295 288L512 0L418 0L238 228L158 154L158 0L78 0Z"  horiz-adv-x="527" vert-adv-y="1000"  />

      
      <glyph glyph-name="uni6c" unicode="&#x6c;" d="M78 0L78 700L158 700L158 0L78 0Z"  horiz-adv-x="236" vert-adv-y="1000"  />

      
      <glyph glyph-name="uni6d" unicode="&#x6d;" d="M638 489Q722 489 773.50 441Q825 393 825 306L825 0L745 0L745 288Q745 350 710.50 383Q676 416 618 416Q561 416 526 376.50Q491 337 491 269L491 0L411 0L411 288Q411 351 377 383.50Q343 416 285 416Q228 416 193 376.50Q158 337 158 269L158 0L78 0L78 479L158 479L158 414Q206 489 305 489Q434 489 477 387Q497 435 539 462Q581 489 638 489Z"  horiz-adv-x="898" vert-adv-y="1000"  />

      
      <glyph glyph-name="uni6e" unicode="&#x6e;" d="M305 489Q389 489 440 441Q491 393 491 306L491 0L411 0L411 288Q411 351 377 383.50Q343 416 285 416Q228 416 193 376.50Q158 337 158 269L158 0L78 0L78 479L158 479L158 414Q206 489 305 489Z"  horiz-adv-x="565" vert-adv-y="1000"  />

      
      <glyph glyph-name="uni6f" unicode="&#x6f;" d="M471 59Q471 59 435.50 24.50Q400-10 293-10Q186-10 115 58.50Q44 127 44 237Q44 350 114.50 419.50Q185 489 293 489Q400 489 471 419.50Q542 350 542 237Q542 128 471 59M293 62Q364 62 412 110.50Q460 159 460 238Q460 319 412.50 367.50Q365 416 293 416Q221 416 173.50 367.50Q126 319 126 238Q126 159 173.50 110.50Q221 62 293 62Z"  horiz-adv-x="586" vert-adv-y="1000"  />

      
      <glyph glyph-name="uni70" unicode="&#x70;" d="M333 489Q434 489 501 419Q568 349 568 239Q568 129 501 59.50Q434-10 334-10Q215-10 158 82L158-200L78-200L78 479L158 479L158 398Q215 489 333 489M203.50 110.50Q203.50 110.50 226.25 85.75Q249 61 320 61Q391 61 438.50 110Q486 159 486 239Q486 319 438.50 368.50Q391 418 320 418Q249 418 203.50 368Q158 318 158 239Q158 160 203.50 110.50Z"  horiz-adv-x="612" vert-adv-y="1000"  />

      
      <glyph glyph-name="uni71" unicode="&#x71;" d="M455 479L535 479L535-200L455-200L455 82Q398-10 279-10Q179-10 112 59.50Q45 129 45 239Q45 349 111.50 419Q178 489 279 489Q398 489 455 397L455 479M174.50 110Q174.50 110 198.25 85.50Q222 61 293 61Q364 61 409.50 110.50Q455 160 455 239Q455 318 409.50 368Q364 418 293 418Q222 418 174.50 368.50Q127 319 127 239Q127 159 174.50 110Z"  horiz-adv-x="613" vert-adv-y="1000"  />

      
      <glyph glyph-name="uni72" unicode="&#x72;" d="M301 489Q344 489 373 477L361 402Q328 415 290 415Q231 415 194.50 374.50Q158 334 158 264L158 0L78 0L78 479L158 479L158 415Q205 489 301 489Z"  horiz-adv-x="396" vert-adv-y="1000"  />

      
      <glyph glyph-name="uni73" unicode="&#x73;" d="M234-10Q161-10 108.50 22.50Q56 55 40 112L108 134Q118 98 151.50 77.50Q185 57 231 57Q280 57 310 78Q340 99 340 134Q340 152 332 164Q324 176 306 183.50Q288 191 272 195Q256 199 227 204Q198 209 183 212.50Q168 216 142 223Q116 230 101.50 240Q87 250 71 264Q55 278 48 299Q41 320 41 346Q41 412 90.50 450.50Q140 489 220 489Q290 489 339.50 457.50Q389 426 405 367L336 345Q327 382 294.50 402.50Q262 423 220 423Q175 423 149 402.50Q123 382 123 349Q123 314 148 299.50Q173 285 224 276Q317 260 349 246Q422 212 422 137Q422 70 369 30Q316-10 234-10Z"  horiz-adv-x="460" vert-adv-y="1000"  />

      
      <glyph glyph-name="uni74" unicode="&#x74;" d="M294-10Q216-10 169 32.50Q122 75 122 157L122 409L23 409L23 479L98 479Q112 490 117 519Q122 548 122 619L202 619L202 479L372 479L372 409L202 409L202 157Q202 112 229 86.50Q256 61 307 61Q339 61 373 73L384 5Q344-10 294-10Z"  horiz-adv-x="402" vert-adv-y="1000"  />

      
      <glyph glyph-name="uni75" unicode="&#x75;" d="M407 479L487 479L487 0L407 0L407 64Q358-10 260-10Q180-10 127 39.50Q74 89 74 180L74 479L154 479L154 185Q154 126 188.50 94.50Q223 63 281 63Q338 63 372.50 102.50Q407 142 407 210L407 479Z"  horiz-adv-x="560" vert-adv-y="1000"  />

      
      <glyph glyph-name="uni76" unicode="&#x76;" d="M434 479L516 479L308 0L222 0L14 479L97 479L266 85L434 479Z"  horiz-adv-x="530" vert-adv-y="1000"  />

      
      <glyph glyph-name="uni77" unicode="&#x77;" d="M730 479L813 479L643 0L555 0L417 379L280 0L191 0L22 479L105 479L241 86L379 479L456 479L594 86L730 479Z"  horiz-adv-x="834" vert-adv-y="1000"  />

      
      <glyph glyph-name="uni78" unicode="&#x78;" d="M481 479L299 239L481 0L392 0L248 187L103 0L15 0L198 240L17 479L105 479L249 291L392 479L481 479Z"  horiz-adv-x="496" vert-adv-y="1000"  />

      
      <glyph glyph-name="uni79" unicode="&#x79;" d="M436 479L521 479L214-200L136-200L229 0L9 479L95 479L266 95L436 479Z"  horiz-adv-x="527" vert-adv-y="1000"  />

      
      <glyph glyph-name="uni7a" unicode="&#x7a;" d="M168 73L464 73L464 0L55 0L55 57L347 406L60 406L60 479L459 479L459 423L168 73Z"  horiz-adv-x="518" vert-adv-y="1000"  />

      
      <glyph glyph-name="uni7b" unicode="&#x7b;" d="M276-131Q200-131 159-94Q118-57 118 12L118 175Q118 213 90.50 233.50Q63 254 15 254L15 315Q62 315 90 335.50Q118 356 118 394L118 556Q118 626 158.50 663Q199 700 276 700L322 700L322 630L276 630Q200 630 200 551L200 394Q200 319 128 285Q200 250 200 175L200 17Q200-61 276-61L322-61L322-131L276-131Z"  horiz-adv-x="346" vert-adv-y="1000"  />

      
      <glyph glyph-name="uni7c" unicode="&#x7c;" d="M183 760L183-168L111-168L111 760L183 760Z"  horiz-adv-x="294" vert-adv-y="1000"  />

      
      <glyph glyph-name="uni7d" unicode="&#x7d;" d="M70-131L24-131L24-61L70-61Q146-61 146 17L146 175Q146 250 218 285Q146 319 146 394L146 551Q146 630 70 630L24 630L24 700L70 700Q147 700 187.50 663Q228 626 228 556L228 394Q228 356 256 335.50Q284 315 331 315L331 254Q283 254 255.50 233.50Q228 213 228 175L228 12Q228-57 187-94Q146-131 70-131Z"  horiz-adv-x="346" vert-adv-y="1000"  />

      
      <glyph glyph-name="uni7e" unicode="&#x7e;" d="M423 268Q383 268 348.50 287Q314 306 284.50 324.50Q255 343 227 343Q174 343 162 273L89 281Q103 416 219 416Q259 416 293.50 397Q328 378 357.50 359.50Q387 341 415 341Q470 341 480 411L554 401Q548 339 515 303.50Q482 268 423 268Z"  horiz-adv-x="643" vert-adv-y="1000"  />

      
      <glyph glyph-name="unia1" unicode="&#xa1;" d="M143 505Q168 505 185 488.50Q202 472 202 447Q202 423 185 406.50Q168 390 143 390Q119 390 101.50 406.50Q84 423 84 447Q84 471 101.50 488Q119 505 143 505M180 298L186-200L102-200L107 298L180 298Z"  horiz-adv-x="287" vert-adv-y="1000"  />

      
      <glyph glyph-name="unia2" unicode="&#xa2;" d="M277-7L277 99Q184 110 124 177Q64 244 64 345Q64 447 123.50 515Q183 583 277 594L277 700L346 700L346 593Q411 585 458 549Q505 513 520 455L449 431Q441 465 413.50 488Q386 511 346 519L346 174Q385 182 413 205Q441 228 449 262L520 238Q504 180 457.50 144Q411 108 346 100L346-7L277-7M277 175L277 519Q219 508 182.50 461Q146 414 146 346Q146 278 182.50 232Q219 186 277 175Z"  horiz-adv-x="579" vert-adv-y="1000"  />

      
      <glyph glyph-name="unia3" unicode="&#xa3;" d="M77 0L77 73L107 73Q159 73 188 107.50Q217 142 217 204Q217 247 199 291L75 291L75 360L168 360Q149 395 140.50 412.50Q132 430 122.50 463Q113 496 113 527Q113 611 174 660.50Q235 710 340 710Q420 710 481.50 672Q543 634 564 564L492 532Q479 580 439 607Q399 634 343 634Q274 634 235 600.50Q196 567 196 510Q196 496 198.50 481Q201 466 204 456Q207 446 214 430Q221 414 224.50 407Q228 400 237.50 382.50Q247 365 250 360L475 360L475 291L282 291Q298 247 298 205Q298 119 250 73L551 73L551 0L77 0Z"  horiz-adv-x="619" vert-adv-y="1000"  />

      
      <glyph glyph-name="unia4" unicode="&#xa4;" d="M120 93L72 140L156 227Q120 280 120 353Q120 424 156 479L75 562L123 610L203 526Q255 564 328 564Q399 564 451 527L532 612L580 565L499 480Q536 425 536 353Q536 280 500 228L583 142L535 95L454 179Q400 141 328 141Q256 141 202 179L120 93M328 203Q392 203 432 244.50Q472 286 472 353Q472 420 432 461.50Q392 503 328 503Q263 503 223.50 461.50Q184 420 184 353Q184 286 223.50 244.50Q263 203 328 203Z"  horiz-adv-x="655" vert-adv-y="1000"  />

      
      <glyph glyph-name="unia5" unicode="&#xa5;" d="M323 0L323 120L101 120L101 166L323 166L323 254L316 266L101 266L101 312L288 312L46 700L137 700L365 332L591 700L682 700L442 312L628 312L628 266L413 266L406 254L406 166L628 166L628 120L406 120L406 0L323 0Z"  horiz-adv-x="728" vert-adv-y="1000"  />

      
      <glyph glyph-name="unia6" unicode="&#xa6;" d="M183 760L183 352L111 352L111 760L183 760M183 240L183-168L111-168L111 240L183 240Z"  horiz-adv-x="294" vert-adv-y="1000"  />

      
      <glyph glyph-name="unia7" unicode="&#xa7;" d="M272-7Q201-7 148.50 23.50Q96 54 79 109L146 131Q156 99 189 79.50Q222 60 266 60Q315 60 344 81Q373 102 373 137Q373 170 346.50 183.50Q320 197 262 208Q172 225 139 243Q80 277 80 348Q80 426 166 458Q80 491 80 567Q80 633 129 671.50Q178 710 256 710Q325 710 374.50 680Q424 650 440 595L373 572Q363 605 332 624Q301 643 259 644Q215 645 188.50 624.50Q162 604 162 569Q162 535 188.50 519Q215 503 263 495Q268 494 280 492Q311 487 328.50 483Q346 479 374 469Q402 459 416.50 446.50Q431 434 443 411.50Q455 389 455 359Q455 279 373 244Q455 213 455 140Q455 73 403 33Q351-7 272-7M304 266Q339 274 359 295Q379 316 379 346Q379 386 350.50 402.50Q322 419 261 430L241 433Q203 431 179.50 410Q156 389 156 356Q156 316 182.50 299.50Q209 283 263 273L304 266Z"  horiz-adv-x="531" vert-adv-y="1000"  />

      
      <glyph glyph-name="unia8" unicode="&#xa8;" d="M-47.50 613Q-47.50 613-56.25 604Q-65 595-90 595Q-115 595-132.50 613Q-150 631-150 656Q-150 680-132.50 698Q-115 716-90 716Q-65 716-47.50 698Q-30 680-30 656Q-30 631-47.50 613M131.50 613Q131.50 613 122.75 604Q114 595 89 595Q64 595 46.50 613Q29 631 29 656Q29 680 46.50 698Q64 716 89 716Q114 716 131.50 698Q149 680 149 656Q149 631 131.50 613Z"   vert-adv-y="1000"  />

      
      <glyph glyph-name="unia9" unicode="&#xa9;" d="M167 610Q167 610 218.50 660Q270 710 426 710Q582 710 685 610Q788 510 788 350Q788 190 685 90Q582-10 426-10Q270-10 167 90Q64 190 64 350Q64 510 167 610M647 575.50Q647 575.50 603 618.75Q559 662 426 662Q293 662 205 575.50Q117 489 117 350Q117 211 205 124.50Q293 38 426 38Q559 38 647 124.50Q735 211 735 350Q735 489 647 575.50M430 170Q354 170 303 221Q252 272 252 351Q252 430 303 480Q354 530 428 530Q485 530 528.50 501.50Q572 473 584 423L533 409Q524 442 496.50 460.50Q469 479 429 479Q375 479 341 444.50Q307 410 307 350Q307 291 341.50 256Q376 221 430 221Q469 221 496.50 239.50Q524 258 533 291L584 277Q572 228 529.50 199Q487 170 430 170Z"  horiz-adv-x="851" vert-adv-y="1000"  />

      
      <glyph glyph-name="uniaa" unicode="&#xaa;" d="M149 358Q95 358 61.50 385Q28 412 28 459Q28 549 141 561L254 573L254 579Q254 616 233 635.50Q212 655 177 655Q150 655 130.50 640.50Q111 626 104 601L44 613Q55 661 92.50 685.50Q130 710 180 710Q246 710 284.50 676.50Q323 643 323 581L323 365L254 365L254 405Q219 358 149 358M168 411Q207 411 230.50 435.50Q254 460 254 503L254 523L156 512Q97 506 97 461Q97 437 116.50 423.50Q136 410 168 411Z"  horiz-adv-x="376" vert-adv-y="1000"  />

      
      <glyph glyph-name="uniab" unicode="&#xab;" d="M245 441L112 245L245 49L167 49L29 245L167 441L245 441M435 441L302 245L435 49L356 49L218 245L356 441L435 441Z"  horiz-adv-x="464" vert-adv-y="1000"  />

      
      <glyph glyph-name="uniac" unicode="&#xac;" d="M67 356L527 356L527 132L456 132L456 285L67 285L67 356Z"  horiz-adv-x="637" vert-adv-y="1000"  />

      
      <glyph glyph-name="uniad" unicode="&#xad;" d="M74 230L74 300L357 300L357 230L74 230Z"  horiz-adv-x="431" vert-adv-y="1000"  />

      
      <glyph glyph-name="uniae" unicode="&#xae;" d="M685 90Q685 90 633.50 40Q582-10 426-10Q270-10 167 90Q64 190 64 350Q64 510 167 610Q270 710 426 710Q582 710 685 610Q788 510 788 350Q788 190 685 90M205 124.50Q205 124.50 249 81.25Q293 38 426 38Q559 38 647 124.50Q735 211 735 350Q735 489 647 575.50Q559 662 426 662Q293 662 205 575.50Q117 489 117 350Q117 211 205 124.50M308 173L308 523L445 523Q501 523 533.50 493Q566 463 566 412Q566 334 497 306L568 173L510 173L446 296L362 296L362 173L308 173M362 347L444 347Q475 347 493 364Q511 381 511 410Q511 439 493 456Q475 473 444 473L362 473L362 347Z"  horiz-adv-x="851" vert-adv-y="1000"  />

      
      <glyph glyph-name="uniaf" unicode="&#xaf;" d="M-153 587L-153 647L153 647L153 587L-153 587Z"   vert-adv-y="1000"  />

      
      <glyph glyph-name="unib0" unicode="&#xb0;" d="M363 430Q363 430 340 407Q317 384 245 384Q173 384 127 430Q81 476 81 547Q81 618 127 664Q173 710 245 710Q317 710 363 664Q409 618 409 547Q409 476 363 430M171.50 472.50Q171.50 472.50 185.75 457.75Q200 443 245 443Q290 443 318.50 472.50Q347 502 347 547Q347 592 318.50 621.50Q290 651 245 651Q200 651 171.50 621.50Q143 592 143 547Q143 502 171.50 472.50Z"  horiz-adv-x="491" vert-adv-y="1000"  />

      
      <glyph glyph-name="unib1" unicode="&#xb1;" d="M329 422L527 422L527 352L329 352L329 136L259 136L259 352L58 352L58 422L259 422L259 633L329 633L329 422M58 0L58 65L527 65L527 0L58 0Z"  horiz-adv-x="585" vert-adv-y="1000"  />

      
      <glyph glyph-name="unib2" unicode="&#xb2;" d="M17 289L17 331L128 443Q202 517 221 544Q245 579 245 608Q245 638 223 658Q201 678 166 678Q134 678 111.50 661.50Q89 645 83 614L26 632Q36 681 75 708.50Q114 736 169 736Q232 736 272 702.50Q312 669 312 616Q312 583 291 545.50Q270 508 252 489Q234 470 201 437L111 347L315 347L315 289L17 289Z"  horiz-adv-x="344" vert-adv-y="1000"  />

      
      <glyph glyph-name="unib3" unicode="&#xb3;" d="M168 282Q110 282 70.50 310Q31 338 21 386L78 404Q83 375 107 358Q131 341 165 341Q202 341 229 360Q256 379 256 416Q256 452 229.50 471Q203 490 162 490L114 490L114 542L162 542Q199 542 224.50 558.50Q250 575 250 608Q250 642 224 660Q198 678 162 678Q129 678 106.50 661Q84 644 78 614L21 632Q31 681 70.50 708.50Q110 736 166 736Q231 736 273 701.50Q315 667 315 609Q315 545 256 515Q321 482 321 412Q321 352 277.50 317Q234 282 168 282Z"  horiz-adv-x="356" vert-adv-y="1000"  />

      
      <glyph glyph-name="unib4" unicode="&#xb4;" d="M-77 564L1 716L76 716L-14 564L-77 564Z"   vert-adv-y="1000"  />

      
      <glyph glyph-name="unib5" unicode="&#xb5;" d="M407 479L487 479L487 0L407 0L407 63Q358-10 267-10Q188-10 154 35L154-150L74-150L74 479L154 479L154 191Q154 128 188.50 95.50Q223 63 281 63Q338 63 372.50 102.50Q407 142 407 210L407 479Z"  horiz-adv-x="560" vert-adv-y="1000"  />

      
      <glyph glyph-name="unib6" unicode="&#xb6;" d="M350-60L269-60L269 282Q172 282 111.50 339.50Q51 397 51 489Q51 584 111.50 642Q172 700 269 700L350 700L350-60M475 700L556 700L556-60L475-60L475 700Z"  horiz-adv-x="666" vert-adv-y="1000"  />

      
      <glyph glyph-name="unib7" unicode="&#xb7;" d="M151 311Q126 311 109.50 328Q93 345 93 369Q93 393 109.50 410Q126 427 151 427Q175 427 192.50 410Q210 393 210 369Q210 345 192.50 328Q175 311 151 311Z"  horiz-adv-x="303" vert-adv-y="1000"  />

      
      <glyph glyph-name="unib8" unicode="&#xb8;" d="M2-206Q-65-206-110-161L-85-119Q-54-152-4-152Q22-152 37.50-138.50Q53-125 53-102Q53-39-50 3L-10 15Q48-4 79-37.50Q110-71 110-113Q110-157 79-181.50Q48-206 2-206Z"   vert-adv-y="1000"  />

      
      <glyph glyph-name="unib9" unicode="&#xb9;" d="M107 289L107 661Q63 639 15 639L15 698Q69 698 116 730L173 730L173 289L107 289Z"  horiz-adv-x="229" vert-adv-y="1000"  />

      
      <glyph glyph-name="uniba" unicode="&#xba;" d="M205 358Q129 358 78 406.50Q27 455 27 533Q27 612 78 661Q129 710 205 710Q281 710 331.50 661Q382 612 382 533Q382 456 331 407Q280 358 205 358M205 420Q251 420 281.50 451.50Q312 483 312 534Q312 586 281.50 617.50Q251 649 205 649Q158 649 127.50 617.50Q97 586 97 534Q97 482 127.50 451Q158 420 205 420Z"  horiz-adv-x="409" vert-adv-y="1000"  />

      
      <glyph glyph-name="unibb" unicode="&#xbb;" d="M29 441L108 441L246 245L108 49L29 49L162 245L29 441M219 441L297 441L435 245L297 49L219 49L352 245L219 441Z"  horiz-adv-x="464" vert-adv-y="1000"  />

      
      <glyph glyph-name="unibc" unicode="&#xbc;" d="M107 259L107 631Q63 609 15 609L15 668Q69 668 116 700L173 700L173 259L107 259M120 0L511 700L580 700L189 0L120 0M686 0L686 92L455 92L455 147L688 441L751 441L751 150L813 150L813 92L751 92L751 0L686 0M525 150L686 150L686 350L525 150Z"  horiz-adv-x="828" vert-adv-y="1000"  />

      
      <glyph glyph-name="unibd" unicode="&#xbd;" d="M107 259L107 631Q63 609 15 609L15 668Q69 668 116 700L173 700L173 259L107 259M120 0L511 700L580 700L189 0L120 0M488 0L488 42L599 155Q676 231 696 263Q716 294 716 319Q716 349 694 369Q672 389 637 389Q605 389 582.50 372.50Q560 356 554 325L497 344Q507 393 546 420Q585 447 640 447Q702 447 742.50 413.50Q783 380 783 328Q783 294 762 256.50Q741 219 723 200Q705 181 672 148L582 58L786 58L786 0L488 0Z"  horiz-adv-x="815" vert-adv-y="1000"  />

      
      <glyph glyph-name="unibe" unicode="&#xbe;" d="M168 252Q110 252 70.50 280Q31 308 21 356L78 374Q83 345 107 328Q131 311 165 311Q202 311 229 330Q256 349 256 386Q256 422 229.50 441Q203 460 162 460L114 460L114 512L162 512Q199 512 224.50 528.50Q250 545 250 578Q250 612 224 630Q198 648 162 648Q129 648 106.50 631Q84 614 78 584L21 602Q31 651 70.50 678.50Q110 706 166 706Q231 706 273 671.50Q315 637 315 579Q315 515 256 485Q321 452 321 382Q321 322 277.50 287Q234 252 168 252M247 0L638 700L707 700L316 0L247 0M813 0L813 92L582 92L582 147L815 441L878 441L878 150L940 150L940 92L878 92L878 0L813 0M652 150L813 150L813 350L652 150Z"  horiz-adv-x="955" vert-adv-y="1000"  />

      
      <glyph glyph-name="unibf" unicode="&#xbf;" d="M279 502Q304 502 321 485.50Q338 469 338 444Q338 420 321 403.50Q304 387 279 387Q255 387 237.50 403.50Q220 420 220 444Q220 468 237.50 485Q255 502 279 502M316 295L316 101L293 101Q221 101 173.50 70Q126 39 126-23Q126-77 164-107Q202-137 264-137Q325-137 364.50-108Q404-79 418-26L494-53Q476-129 414-171Q352-213 265-213Q162-213 101.50-161.50Q41-110 42-27Q43 49 95.50 95.50Q148 142 242 157L242 295L316 295Z"  horiz-adv-x="524" vert-adv-y="1000"  />

      
      <glyph glyph-name="unic0" unicode="&#xc0;" d="M386 785L323 785L233 937L308 937L386 785M400 700L694 0L606 0L533 177L176 177L103 0L15 0L309 700L400 700M207 252L502 252L355 607L207 252Z"  horiz-adv-x="709" vert-adv-y="1000"  />

      
      <glyph glyph-name="unic1" unicode="&#xc1;" d="M478 937L388 785L325 785L403 937L478 937M400 700L694 0L606 0L533 177L176 177L103 0L15 0L309 700L400 700M207 252L502 252L355 607L207 252Z"  horiz-adv-x="709" vert-adv-y="1000"  />

      
      <glyph glyph-name="unic2" unicode="&#xc2;" d="M354 896L273 785L203 785L316 937L391 937L506 785L437 785L354 896M400 700L694 0L606 0L533 177L176 177L103 0L15 0L309 700L400 700M207 252L502 252L355 607L207 252Z"  horiz-adv-x="709" vert-adv-y="1000"  />

      
      <glyph glyph-name="unic3" unicode="&#xc3;" d="M281 836Q241 836 231 796L176 796Q180 840 208.50 865.50Q237 891 279 891Q316 891 360.50 869Q405 847 429 847Q469 847 479 887L533 887Q529 844 500.50 818Q472 792 431 792Q394 792 349.50 814Q305 836 281 836M400 700L694 0L606 0L533 177L176 177L103 0L15 0L309 700L400 700M207 252L502 252L355 607L207 252Z"  horiz-adv-x="709" vert-adv-y="1000"  />

      
      <glyph glyph-name="unic4" unicode="&#xc4;" d="M307.50 834Q307.50 834 298.75 825Q290 816 265 816Q240 816 222.50 834Q205 852 205 877Q205 901 222.50 919Q240 937 265 937Q290 937 307.50 919Q325 901 325 877Q325 852 307.50 834M486.50 834Q486.50 834 477.75 825Q469 816 444 816Q419 816 401.50 834Q384 852 384 877Q384 901 401.50 919Q419 937 444 937Q469 937 486.50 919Q504 901 504 877Q504 852 486.50 834M400 700L694 0L606 0L533 177L176 177L103 0L15 0L309 700L400 700M207 252L502 252L355 607L207 252Z"  horiz-adv-x="709" vert-adv-y="1000"  />

      
      <glyph glyph-name="unic5" unicode="&#xc5;" d="M355 766Q311 766 281 795.50Q251 825 251 867Q251 909 281 938Q311 967 355 967Q400 967 430 938Q460 909 460 867Q460 825 430 795.50Q400 766 355 766M392 903.50Q392 903.50 384.50 910.25Q377 917 355 917Q333 917 318.50 903.50Q304 890 304 867Q304 844 318.50 830Q333 816 355 816Q377 816 392 830Q407 844 407 867Q407 890 392 903.50M400 700L694 0L606 0L533 177L176 177L103 0L15 0L309 700L400 700M207 252L502 252L355 607L207 252Z"  horiz-adv-x="709" vert-adv-y="1000"  />

      
      <glyph glyph-name="unic6" unicode="&#xc6;" d="M15 0L309 700L948 700L948 624L575 624L575 389L940 389L940 313L575 313L575 76L953 76L953 0L494 0L494 177L177 177L103 0L15 0M207 252L494 252L494 624L365 624L207 252Z"  horiz-adv-x="1024" vert-adv-y="1000"  />

      
      <glyph glyph-name="unic7" unicode="&#xc7;" d="M398 70Q487 70 552 114.50Q617 159 635 229L714 202Q691 113 616 57Q541 1 437-8Q504-49 504-113Q504-157 473-181.50Q442-206 396-206Q329-206 284-161L309-119Q340-152 390-152Q416-152 431.50-138.50Q447-125 447-102Q447-48 370-9Q232 1 142 100.50Q52 200 52 351Q52 511 150.50 610.50Q249 710 398 710Q515 710 602 652.50Q689 595 714 498L634 472Q616 541 551.50 585.50Q487 630 398 630Q286 630 212.50 553Q139 476 139 351Q139 226 212.50 148Q286 70 398 70Z"  horiz-adv-x="763" vert-adv-y="1000"  />

      
      <glyph glyph-name="unic8" unicode="&#xc8;" d="M341 785L278 785L188 937L263 937L341 785M90 0L90 700L544 700L544 624L172 624L172 389L536 389L536 313L172 313L172 76L549 76L549 0L90 0Z"  horiz-adv-x="620" vert-adv-y="1000"  />

      
      <glyph glyph-name="unic9" unicode="&#xc9;" d="M280 785L358 937L433 937L343 785L280 785M90 0L90 700L544 700L544 624L172 624L172 389L536 389L536 313L172 313L172 76L549 76L549 0L90 0Z"  horiz-adv-x="620" vert-adv-y="1000"  />

      
      <glyph glyph-name="unica" unicode="&#xca;" d="M271 937L346 937L461 785L392 785L309 896L228 785L158 785L271 937M90 0L90 700L544 700L544 624L172 624L172 389L536 389L536 313L172 313L172 76L549 76L549 0L90 0Z"  horiz-adv-x="620" vert-adv-y="1000"  />

      
      <glyph glyph-name="unicb" unicode="&#xcb;" d="M262.50 834Q262.50 834 253.75 825Q245 816 220 816Q195 816 177.50 834Q160 852 160 877Q160 901 177.50 919Q195 937 220 937Q245 937 262.50 919Q280 901 280 877Q280 852 262.50 834M441.50 834Q441.50 834 432.75 825Q424 816 399 816Q374 816 356.50 834Q339 852 339 877Q339 901 356.50 919Q374 937 399 937Q424 937 441.50 919Q459 901 459 877Q459 852 441.50 834M90 0L90 700L544 700L544 624L172 624L172 389L536 389L536 313L172 313L172 76L549 76L549 0L90 0Z"  horiz-adv-x="620" vert-adv-y="1000"  />

      
      <glyph glyph-name="unicc" unicode="&#xcc;" d="M163 785L100 785L10 937L85 937L163 785M91 0L91 700L173 700L173 0L91 0Z"  horiz-adv-x="263" vert-adv-y="1000"  />

      
      <glyph glyph-name="unicd" unicode="&#xcd;" d="M102 785L180 937L255 937L165 785L102 785M91 0L91 700L173 700L173 0L91 0Z"  horiz-adv-x="263" vert-adv-y="1000"  />

      
      <glyph glyph-name="unice" unicode="&#xce;" d="M93 937L168 937L283 785L214 785L131 896L50 785L-20 785L93 937M91 0L91 700L173 700L173 0L91 0Z"  horiz-adv-x="263" vert-adv-y="1000"  />

      
      <glyph glyph-name="unicf" unicode="&#xcf;" d="M84.50 834Q84.50 834 75.75 825Q67 816 42 816Q17 816-0.50 834Q-18 852-18 877Q-18 901-0.50 919Q17 937 42 937Q67 937 84.50 919Q102 901 102 877Q102 852 84.50 834M263.50 834Q263.50 834 254.75 825Q246 816 221 816Q196 816 178.50 834Q161 852 161 877Q161 901 178.50 919Q196 937 221 937Q246 937 263.50 919Q281 901 281 877Q281 852 263.50 834M91 0L91 700L173 700L173 0L91 0Z"  horiz-adv-x="263" vert-adv-y="1000"  />

      
      <glyph glyph-name="unid0" unicode="&#xd0;" d="M317 700Q486 700 580 608Q674 516 674 351Q674 186 580 93Q486 0 317 0L90 0L90 315L-22 315L-22 385L90 385L90 700L317 700M311 76Q443 76 515 149Q587 222 587 351Q587 480 515 552Q443 624 311 624L172 624L172 385L282 385L282 315L172 315L172 76L311 76Z"  horiz-adv-x="726" vert-adv-y="1000"  />

      
      <glyph glyph-name="unid1" unicode="&#xd1;" d="M299 836Q259 836 249 796L194 796Q198 840 226.50 865.50Q255 891 297 891Q334 891 378.50 869Q423 847 447 847Q487 847 497 887L551 887Q547 844 518.50 818Q490 792 449 792Q412 792 367.50 814Q323 836 299 836M575 700L657 700L657 0L575 0L172 557L172 0L90 0L90 700L171 700L575 144L575 700Z"  horiz-adv-x="747" vert-adv-y="1000"  />

      
      <glyph glyph-name="unid2" unicode="&#xd2;" d="M435 785L372 785L282 937L357 937L435 785M656 90.50Q656 90.50 606 40.25Q556-10 404-10Q252-10 152 90.50Q52 191 52 351Q52 511 151.50 610.50Q251 710 404 710Q557 710 656.50 610.50Q756 511 756 351Q756 191 656 90.50M404 70Q520 70 594.50 148Q669 226 669 351Q669 476 594.50 553Q520 630 404 630Q289 630 214 553Q139 476 139 351Q139 226 214 148Q289 70 404 70Z"  horiz-adv-x="808" vert-adv-y="1000"  />

      
      <glyph glyph-name="unid3" unicode="&#xd3;" d="M374 785L452 937L527 937L437 785L374 785M656 90.50Q656 90.50 606 40.25Q556-10 404-10Q252-10 152 90.50Q52 191 52 351Q52 511 151.50 610.50Q251 710 404 710Q557 710 656.50 610.50Q756 511 756 351Q756 191 656 90.50M404 70Q520 70 594.50 148Q669 226 669 351Q669 476 594.50 553Q520 630 404 630Q289 630 214 553Q139 476 139 351Q139 226 214 148Q289 70 404 70Z"  horiz-adv-x="808" vert-adv-y="1000"  />

      
      <glyph glyph-name="unid4" unicode="&#xd4;" d="M365 937L440 937L555 785L486 785L403 896L322 785L252 785L365 937M656 90.50Q656 90.50 606 40.25Q556-10 404-10Q252-10 152 90.50Q52 191 52 351Q52 511 151.50 610.50Q251 710 404 710Q557 710 656.50 610.50Q756 511 756 351Q756 191 656 90.50M404 70Q520 70 594.50 148Q669 226 669 351Q669 476 594.50 553Q520 630 404 630Q289 630 214 553Q139 476 139 351Q139 226 214 148Q289 70 404 70Z"  horiz-adv-x="808" vert-adv-y="1000"  />

      
      <glyph glyph-name="unid5" unicode="&#xd5;" d="M480 792Q443 792 398.50 814Q354 836 330 836Q290 836 280 796L225 796Q229 840 257.50 865.50Q286 891 328 891Q365 891 409.50 869Q454 847 478 847Q518 847 528 887L582 887Q578 844 549.50 818Q521 792 480 792M656 90.50Q656 90.50 606 40.25Q556-10 404-10Q252-10 152 90.50Q52 191 52 351Q52 511 151.50 610.50Q251 710 404 710Q557 710 656.50 610.50Q756 511 756 351Q756 191 656 90.50M404 70Q520 70 594.50 148Q669 226 669 351Q669 476 594.50 553Q520 630 404 630Q289 630 214 553Q139 476 139 351Q139 226 214 148Q289 70 404 70Z"  horiz-adv-x="808" vert-adv-y="1000"  />

      
      <glyph glyph-name="unid6" unicode="&#xd6;" d="M356.50 834Q356.50 834 347.75 825Q339 816 314 816Q289 816 271.50 834Q254 852 254 877Q254 901 271.50 919Q289 937 314 937Q339 937 356.50 919Q374 901 374 877Q374 852 356.50 834M535.50 834Q535.50 834 526.75 825Q518 816 493 816Q468 816 450.50 834Q433 852 433 877Q433 901 450.50 919Q468 937 493 937Q518 937 535.50 919Q553 901 553 877Q553 852 535.50 834M656 90.50Q656 90.50 606 40.25Q556-10 404-10Q252-10 152 90.50Q52 191 52 351Q52 511 151.50 610.50Q251 710 404 710Q557 710 656.50 610.50Q756 511 756 351Q756 191 656 90.50M404 70Q520 70 594.50 148Q669 226 669 351Q669 476 594.50 553Q520 630 404 630Q289 630 214 553Q139 476 139 351Q139 226 214 148Q289 70 404 70Z"  horiz-adv-x="808" vert-adv-y="1000"  />

      
      <glyph glyph-name="unid7" unicode="&#xd7;" d="M106 111L56 160L213 318L56 476L106 525L264 368L421 525L471 476L314 318L471 160L421 111L264 268L106 111Z"  horiz-adv-x="527" vert-adv-y="1000"  />

      
      <glyph glyph-name="unid8" unicode="&#xd8;" d="M662 604Q756 505 756 351Q756 191 656 90.50Q556-10 404-10Q284-10 193 56L145 0L63 0L146 97Q52 197 52 351Q52 511 151.50 610.50Q251 710 404 710Q524 710 615 646L661 700L744 700L662 604M139 351Q139 238 202 162L560 582Q493 630 404 630Q289 630 214 553Q139 476 139 351M404 70Q520 70 594.50 148Q669 226 669 351Q669 464 607 539L247 119Q315 70 404 70Z"  horiz-adv-x="808" vert-adv-y="1000"  />

      
      <glyph glyph-name="unid9" unicode="&#xd9;" d="M372 785L309 785L219 937L294 937L372 785M341-10Q223-10 152 64.50Q81 139 81 261L81 700L162 700L162 260Q162 175 212 122.50Q262 70 341 70Q421 70 469.50 122.50Q518 175 518 260L518 700L600 700L600 259Q600 138 529 64Q458-10 341-10Z"  horiz-adv-x="681" vert-adv-y="1000"  />

      
      <glyph glyph-name="unida" unicode="&#xda;" d="M311 785L389 937L464 937L374 785L311 785M341-10Q223-10 152 64.50Q81 139 81 261L81 700L162 700L162 260Q162 175 212 122.50Q262 70 341 70Q421 70 469.50 122.50Q518 175 518 260L518 700L600 700L600 259Q600 138 529 64Q458-10 341-10Z"  horiz-adv-x="681" vert-adv-y="1000"  />

      
      <glyph glyph-name="unidb" unicode="&#xdb;" d="M302 937L377 937L492 785L423 785L340 896L259 785L189 785L302 937M341-10Q223-10 152 64.50Q81 139 81 261L81 700L162 700L162 260Q162 175 212 122.50Q262 70 341 70Q421 70 469.50 122.50Q518 175 518 260L518 700L600 700L600 259Q600 138 529 64Q458-10 341-10Z"  horiz-adv-x="681" vert-adv-y="1000"  />

      
      <glyph glyph-name="unidc" unicode="&#xdc;" d="M293.50 834Q293.50 834 284.75 825Q276 816 251 816Q226 816 208.50 834Q191 852 191 877Q191 901 208.50 919Q226 937 251 937Q276 937 293.50 919Q311 901 311 877Q311 852 293.50 834M472.50 834Q472.50 834 463.75 825Q455 816 430 816Q405 816 387.50 834Q370 852 370 877Q370 901 387.50 919Q405 937 430 937Q455 937 472.50 919Q490 901 490 877Q490 852 472.50 834M341-10Q223-10 152 64.50Q81 139 81 261L81 700L162 700L162 260Q162 175 212 122.50Q262 70 341 70Q421 70 469.50 122.50Q518 175 518 260L518 700L600 700L600 259Q600 138 529 64Q458-10 341-10Z"  horiz-adv-x="681" vert-adv-y="1000"  />

      
      <glyph glyph-name="unidd" unicode="&#xdd;" d="M444 937L354 785L291 785L369 937L444 937M549 700L639 700L363 254L363 0L281 0L281 254L4 700L95 700L322 332L549 700Z"  horiz-adv-x="642" vert-adv-y="1000"  />

      
      <glyph glyph-name="unide" unicode="&#xde;" d="M90 0L90 700L172 700L172 600L359 600Q468 600 532 539Q596 478 596 375Q596 272 532 211.50Q468 151 359 151L172 151L172 0L90 0M172 227L357 227Q431 227 471 266Q511 305 511 375Q511 446 471 485Q431 524 357 524L172 524L172 227Z"  horiz-adv-x="600" vert-adv-y="1000"  />

      
      <glyph glyph-name="unidf" unicode="&#xdf;" d="M420-10Q371-10 329 5L341 76Q374 63 407 63Q463 63 503.50 101Q544 139 544 203Q544 262 505 294Q466 326 393 326L336 326L336 398L389 398Q451 398 487.50 429.50Q524 461 524 514Q524 569 485 603Q446 637 383 637Q314 637 273 590.50Q232 544 232 467L232 0L149 0L149 403L75 403L75 473L149 473Q151 580 215.50 645Q280 710 385 710Q484 710 546 657.50Q608 605 608 521Q608 464 579 422Q550 380 499 366Q559 354 593.50 307.50Q628 261 628 193Q628 104 568 47Q508-10 420-10Z"  horiz-adv-x="673" vert-adv-y="1000"  />

      
      <glyph glyph-name="unie0" unicode="&#xe0;" d="M298 564L235 564L145 716L220 716L298 564M485 59Q493 59 502 61L502-7Q487-10 468-10Q431-10 406 8.50Q381 27 376 61Q324-10 216-10Q140-10 92.50 28Q45 66 45 133Q45 199 91 234Q137 269 206 276L375 295L375 304Q375 361 341 392Q307 423 253 423Q209 423 178.50 400.50Q148 378 138 340L67 356Q83 421 135 455Q187 489 257 489Q348 489 401.50 441.50Q455 394 455 306L455 88Q455 59 485 59M242 54Q303 58 339 95.50Q375 133 375 198L375 232L219 214Q125 204 125 134Q125 93 159.50 72Q194 51 242 54Z"  horiz-adv-x="533" vert-adv-y="1000"  />

      
      <glyph glyph-name="unie1" unicode="&#xe1;" d="M390 716L300 564L237 564L315 716L390 716M485 59Q493 59 502 61L502-7Q487-10 468-10Q431-10 406 8.50Q381 27 376 61Q324-10 216-10Q140-10 92.50 28Q45 66 45 133Q45 199 91 234Q137 269 206 276L375 295L375 304Q375 361 341 392Q307 423 253 423Q209 423 178.50 400.50Q148 378 138 340L67 356Q83 421 135 455Q187 489 257 489Q348 489 401.50 441.50Q455 394 455 306L455 88Q455 59 485 59M242 54Q303 58 339 95.50Q375 133 375 198L375 232L219 214Q125 204 125 134Q125 93 159.50 72Q194 51 242 54Z"  horiz-adv-x="533" vert-adv-y="1000"  />

      
      <glyph glyph-name="unie2" unicode="&#xe2;" d="M266 675L185 564L115 564L228 716L303 716L418 564L349 564L266 675M485 59Q493 59 502 61L502-7Q487-10 468-10Q431-10 406 8.50Q381 27 376 61Q324-10 216-10Q140-10 92.50 28Q45 66 45 133Q45 199 91 234Q137 269 206 276L375 295L375 304Q375 361 341 392Q307 423 253 423Q209 423 178.50 400.50Q148 378 138 340L67 356Q83 421 135 455Q187 489 257 489Q348 489 401.50 441.50Q455 394 455 306L455 88Q455 59 485 59M242 54Q303 58 339 95.50Q375 133 375 198L375 232L219 214Q125 204 125 134Q125 93 159.50 72Q194 51 242 54Z"  horiz-adv-x="533" vert-adv-y="1000"  />

      
      <glyph glyph-name="unie3" unicode="&#xe3;" d="M193 615Q153 615 143 575L88 575Q92 619 120.50 644.50Q149 670 191 670Q228 670 272.50 648Q317 626 341 626Q381 626 391 666L445 666Q441 623 412.50 597Q384 571 343 571Q306 571 261.50 593Q217 615 193 615M485 59Q493 59 502 61L502-7Q487-10 468-10Q431-10 406 8.50Q381 27 376 61Q324-10 216-10Q140-10 92.50 28Q45 66 45 133Q45 199 91 234Q137 269 206 276L375 295L375 304Q375 361 341 392Q307 423 253 423Q209 423 178.50 400.50Q148 378 138 340L67 356Q83 421 135 455Q187 489 257 489Q348 489 401.50 441.50Q455 394 455 306L455 88Q455 59 485 59M242 54Q303 58 339 95.50Q375 133 375 198L375 232L219 214Q125 204 125 134Q125 93 159.50 72Q194 51 242 54Z"  horiz-adv-x="533" vert-adv-y="1000"  />

      
      <glyph glyph-name="unie4" unicode="&#xe4;" d="M219.50 613Q219.50 613 210.75 604Q202 595 177 595Q152 595 134.50 613Q117 631 117 656Q117 680 134.50 698Q152 716 177 716Q202 716 219.50 698Q237 680 237 656Q237 631 219.50 613M398.50 613Q398.50 613 389.75 604Q381 595 356 595Q331 595 313.50 613Q296 631 296 656Q296 680 313.50 698Q331 716 356 716Q381 716 398.50 698Q416 680 416 656Q416 631 398.50 613M485 59Q493 59 502 61L502-7Q487-10 468-10Q431-10 406 8.50Q381 27 376 61Q324-10 216-10Q140-10 92.50 28Q45 66 45 133Q45 199 91 234Q137 269 206 276L375 295L375 304Q375 361 341 392Q307 423 253 423Q209 423 178.50 400.50Q148 378 138 340L67 356Q83 421 135 455Q187 489 257 489Q348 489 401.50 441.50Q455 394 455 306L455 88Q455 59 485 59M242 54Q303 58 339 95.50Q375 133 375 198L375 232L219 214Q125 204 125 134Q125 93 159.50 72Q194 51 242 54Z"  horiz-adv-x="533" vert-adv-y="1000"  />

      
      <glyph glyph-name="unie5" unicode="&#xe5;" d="M267 545Q223 545 193 574.50Q163 604 163 646Q163 688 193 717Q223 746 267 746Q312 746 342 717Q372 688 372 646Q372 604 342 574.50Q312 545 267 545M304 682.50Q304 682.50 296.50 689.25Q289 696 267 696Q245 696 230.50 682.50Q216 669 216 646Q216 623 230.50 609Q245 595 267 595Q289 595 304 609Q319 623 319 646Q319 669 304 682.50M485 59Q493 59 502 61L502-7Q487-10 468-10Q431-10 406 8.50Q381 27 376 61Q324-10 216-10Q140-10 92.50 28Q45 66 45 133Q45 199 91 234Q137 269 206 276L375 295L375 304Q375 361 341 392Q307 423 253 423Q209 423 178.50 400.50Q148 378 138 340L67 356Q83 421 135 455Q187 489 257 489Q348 489 401.50 441.50Q455 394 455 306L455 88Q455 59 485 59M242 54Q303 58 339 95.50Q375 133 375 198L375 232L219 214Q125 204 125 134Q125 93 159.50 72Q194 51 242 54Z"  horiz-adv-x="533" vert-adv-y="1000"  />

      
      <glyph glyph-name="unie6" unicode="&#xe6;" d="M224-10Q146-10 95.50 28Q45 66 45 132Q45 201 91 235Q137 269 206 276L375 294L375 304Q375 361 341 392Q307 423 253 423Q209 423 178.50 400.50Q148 378 138 340L67 356Q83 421 135 455Q187 489 257 489Q383 489 429 401Q496 489 614 489Q716 489 780 423Q844 357 844 248Q844 231 843 222L455 222Q460 146 505.50 101Q551 56 616 56Q666 56 705 80.50Q744 105 754 145L824 122Q806 61 748.50 25.50Q691-10 617-10Q552-10 499.50 18Q447 46 415 97Q365-10 224-10M459 285L765 285Q757 346 716.50 384Q676 422 614 422Q555 422 513 385.50Q471 349 459 285M242 54Q303 57 339 95.50Q375 134 375 198L375 233L219 214Q125 204 125 134Q125 93 158.50 72.50Q192 52 242 54Z"  horiz-adv-x="889" vert-adv-y="1000"  />

      
      <glyph glyph-name="unie7" unicode="&#xe7;" d="M291 62Q342 62 381 87.50Q420 113 430 155L501 131Q486 75 441 39.50Q396 4 333-6Q403-47 403-113Q403-157 372-181.50Q341-206 295-206Q228-206 183-161L208-119Q239-152 289-152Q315-152 330.50-138.50Q346-125 346-102Q346-48 270-9Q172-4 108.50 64Q45 132 45 238Q45 348 113.50 418.50Q182 489 287 489Q365 489 424 451.50Q483 414 501 349L430 324Q420 366 381 391Q342 416 290 416Q220 416 173.50 366.50Q127 317 127 239Q127 160 173.50 111Q220 62 291 62Z"  horiz-adv-x="536" vert-adv-y="1000"  />

      
      <glyph glyph-name="unie8" unicode="&#xe8;" d="M310 564L247 564L157 716L232 716L310 564M285-10Q181-10 113 58.50Q45 127 45 239Q45 351 112.50 420Q180 489 283 489Q385 489 449.50 423Q514 357 514 248Q514 236 512 222L125 222Q129 146 173 101Q217 56 285 56Q337 56 375 81.50Q413 107 423 151L494 128Q476 63 418.50 26.50Q361-10 285-10M129 285L435 285Q427 346 386 384Q345 422 284 422Q224 422 182 385Q140 348 129 285Z"  horiz-adv-x="558" vert-adv-y="1000"  />

      
      <glyph glyph-name="unie9" unicode="&#xe9;" d="M249 564L327 716L402 716L312 564L249 564M285-10Q181-10 113 58.50Q45 127 45 239Q45 351 112.50 420Q180 489 283 489Q385 489 449.50 423Q514 357 514 248Q514 236 512 222L125 222Q129 146 173 101Q217 56 285 56Q337 56 375 81.50Q413 107 423 151L494 128Q476 63 418.50 26.50Q361-10 285-10M129 285L435 285Q427 346 386 384Q345 422 284 422Q224 422 182 385Q140 348 129 285Z"  horiz-adv-x="558" vert-adv-y="1000"  />

      
      <glyph glyph-name="uniea" unicode="&#xea;" d="M240 716L315 716L430 564L361 564L278 675L197 564L127 564L240 716M285-10Q181-10 113 58.50Q45 127 45 239Q45 351 112.50 420Q180 489 283 489Q385 489 449.50 423Q514 357 514 248Q514 236 512 222L125 222Q129 146 173 101Q217 56 285 56Q337 56 375 81.50Q413 107 423 151L494 128Q476 63 418.50 26.50Q361-10 285-10M129 285L435 285Q427 346 386 384Q345 422 284 422Q224 422 182 385Q140 348 129 285Z"  horiz-adv-x="558" vert-adv-y="1000"  />

      
      <glyph glyph-name="unieb" unicode="&#xeb;" d="M231.50 613Q231.50 613 222.75 604Q214 595 189 595Q164 595 146.50 613Q129 631 129 656Q129 680 146.50 698Q164 716 189 716Q214 716 231.50 698Q249 680 249 656Q249 631 231.50 613M410.50 613Q410.50 613 401.75 604Q393 595 368 595Q343 595 325.50 613Q308 631 308 656Q308 680 325.50 698Q343 716 368 716Q393 716 410.50 698Q428 680 428 656Q428 631 410.50 613M285-10Q181-10 113 58.50Q45 127 45 239Q45 351 112.50 420Q180 489 283 489Q385 489 449.50 423Q514 357 514 248Q514 236 512 222L125 222Q129 146 173 101Q217 56 285 56Q337 56 375 81.50Q413 107 423 151L494 128Q476 63 418.50 26.50Q361-10 285-10M129 285L435 285Q427 346 386 384Q345 422 284 422Q224 422 182 385Q140 348 129 285Z"  horiz-adv-x="558" vert-adv-y="1000"  />

      
      <glyph glyph-name="uniec" unicode="&#xec;" d="M160 564L97 564L7 716L82 716L160 564M88 0L88 479L168 479L168 0L88 0Z"  horiz-adv-x="257" vert-adv-y="1000"  />

      
      <glyph glyph-name="unied" unicode="&#xed;" d="M99 564L177 716L252 716L162 564L99 564M88 0L88 479L168 479L168 0L88 0Z"  horiz-adv-x="257" vert-adv-y="1000"  />

      
      <glyph glyph-name="uniee" unicode="&#xee;" d="M90 716L165 716L280 564L211 564L128 675L47 564L-23 564L90 716M88 0L88 479L168 479L168 0L88 0Z"  horiz-adv-x="257" vert-adv-y="1000"  />

      
      <glyph glyph-name="unief" unicode="&#xef;" d="M81.50 613Q81.50 613 72.75 604Q64 595 39 595Q14 595-3.50 613Q-21 631-21 656Q-21 680-3.50 698Q14 716 39 716Q64 716 81.50 698Q99 680 99 656Q99 631 81.50 613M260.50 613Q260.50 613 251.75 604Q243 595 218 595Q193 595 175.50 613Q158 631 158 656Q158 680 175.50 698Q193 716 218 716Q243 716 260.50 698Q278 680 278 656Q278 631 260.50 613M88 0L88 479L168 479L168 0L88 0Z"  horiz-adv-x="257" vert-adv-y="1000"  />

      
      <glyph glyph-name="unif0" unicode="&#xf0;" d="M295-10Q190-10 122 56Q54 122 54 228Q54 334 121 401.50Q188 469 293 469Q367 469 421 427Q394 498 343 565L223 508L198 561L302 610Q252 660 188 700L291 700Q334 674 366 640L473 690L498 637L407 595Q465 522 498.50 429.50Q532 337 532 248Q532 122 465 56Q398-10 295-10M181 108Q181 108 203.50 85Q226 62 293 62Q360 62 405 108Q450 154 450 228Q450 304 405.50 350Q361 396 293 396Q225 396 180.50 350.50Q136 305 136 229Q136 154 181 108Z"  horiz-adv-x="586" vert-adv-y="1000"  />

      
      <glyph glyph-name="unif1" unicode="&#xf1;" d="M209 615Q169 615 159 575L104 575Q108 619 136.50 644.50Q165 670 207 670Q244 670 288.50 648Q333 626 357 626Q397 626 407 666L461 666Q457 623 428.50 597Q400 571 359 571Q322 571 277.50 593Q233 615 209 615M305 489Q389 489 440 441Q491 393 491 306L491 0L411 0L411 288Q411 351 377 383.50Q343 416 285 416Q228 416 193 376.50Q158 337 158 269L158 0L78 0L78 479L158 479L158 414Q206 489 305 489Z"  horiz-adv-x="565" vert-adv-y="1000"  />

      
      <glyph glyph-name="unif2" unicode="&#xf2;" d="M324 564L261 564L171 716L246 716L324 564M471 59Q471 59 435.50 24.50Q400-10 293-10Q186-10 115 58.50Q44 127 44 237Q44 350 114.50 419.50Q185 489 293 489Q400 489 471 419.50Q542 350 542 237Q542 128 471 59M293 62Q364 62 412 110.50Q460 159 460 238Q460 319 412.50 367.50Q365 416 293 416Q221 416 173.50 367.50Q126 319 126 238Q126 159 173.50 110.50Q221 62 293 62Z"  horiz-adv-x="586" vert-adv-y="1000"  />

      
      <glyph glyph-name="unif3" unicode="&#xf3;" d="M263 564L341 716L416 716L326 564L263 564M471 59Q471 59 435.50 24.50Q400-10 293-10Q186-10 115 58.50Q44 127 44 237Q44 350 114.50 419.50Q185 489 293 489Q400 489 471 419.50Q542 350 542 237Q542 128 471 59M293 62Q364 62 412 110.50Q460 159 460 238Q460 319 412.50 367.50Q365 416 293 416Q221 416 173.50 367.50Q126 319 126 238Q126 159 173.50 110.50Q221 62 293 62Z"  horiz-adv-x="586" vert-adv-y="1000"  />

      
      <glyph glyph-name="unif4" unicode="&#xf4;" d="M254 716L329 716L444 564L375 564L292 675L211 564L141 564L254 716M471 59Q471 59 435.50 24.50Q400-10 293-10Q186-10 115 58.50Q44 127 44 237Q44 350 114.50 419.50Q185 489 293 489Q400 489 471 419.50Q542 350 542 237Q542 128 471 59M293 62Q364 62 412 110.50Q460 159 460 238Q460 319 412.50 367.50Q365 416 293 416Q221 416 173.50 367.50Q126 319 126 238Q126 159 173.50 110.50Q221 62 293 62Z"  horiz-adv-x="586" vert-adv-y="1000"  />

      
      <glyph glyph-name="unif5" unicode="&#xf5;" d="M369 571Q332 571 287.50 593Q243 615 219 615Q179 615 169 575L114 575Q118 619 146.50 644.50Q175 670 217 670Q254 670 298.50 648Q343 626 367 626Q407 626 417 666L471 666Q467 623 438.50 597Q410 571 369 571M471 59Q471 59 435.50 24.50Q400-10 293-10Q186-10 115 58.50Q44 127 44 237Q44 350 114.50 419.50Q185 489 293 489Q400 489 471 419.50Q542 350 542 237Q542 128 471 59M293 62Q364 62 412 110.50Q460 159 460 238Q460 319 412.50 367.50Q365 416 293 416Q221 416 173.50 367.50Q126 319 126 238Q126 159 173.50 110.50Q221 62 293 62Z"  horiz-adv-x="586" vert-adv-y="1000"  />

      
      <glyph glyph-name="unif6" unicode="&#xf6;" d="M245.50 613Q245.50 613 236.75 604Q228 595 203 595Q178 595 160.50 613Q143 631 143 656Q143 680 160.50 698Q178 716 203 716Q228 716 245.50 698Q263 680 263 656Q263 631 245.50 613M424.50 613Q424.50 613 415.75 604Q407 595 382 595Q357 595 339.50 613Q322 631 322 656Q322 680 339.50 698Q357 716 382 716Q407 716 424.50 698Q442 680 442 656Q442 631 424.50 613M471 59Q471 59 435.50 24.50Q400-10 293-10Q186-10 115 58.50Q44 127 44 237Q44 350 114.50 419.50Q185 489 293 489Q400 489 471 419.50Q542 350 542 237Q542 128 471 59M293 62Q364 62 412 110.50Q460 159 460 238Q460 319 412.50 367.50Q365 416 293 416Q221 416 173.50 367.50Q126 319 126 238Q126 159 173.50 110.50Q221 62 293 62Z"  horiz-adv-x="586" vert-adv-y="1000"  />

      
      <glyph glyph-name="unif7" unicode="&#xf7;" d="M285 463Q260 463 243.50 479.50Q227 496 227 521Q227 544 243.50 561Q260 578 285 578Q308 578 326 561Q344 544 344 521Q344 497 326.50 480Q309 463 285 463M50 286L50 355L520 355L520 286L50 286M285 63Q260 63 243.50 79.50Q227 96 227 121Q227 144 243.50 161Q260 178 285 178Q308 178 326 161Q344 144 344 121Q344 97 326.50 80Q309 63 285 63Z"  horiz-adv-x="572" vert-adv-y="1000"  />

      
      <glyph glyph-name="unif8" unicode="&#xf8;" d="M564 479L488 400Q542 333 542 237Q542 128 471 59Q400-10 293-10Q204-10 139 38L103 0L21 0L97 79Q44 145 44 237Q44 350 114.50 419.50Q185 489 293 489Q381 489 446 441L482 479L564 479M126 238Q126 181 153 137L392 385Q349 416 293 416Q221 416 173.50 367.50Q126 319 126 238M460 238Q460 298 432 342L193 94Q236 62 293 62Q364 62 412 110.50Q460 159 460 238Z"  horiz-adv-x="586" vert-adv-y="1000"  />

      
      <glyph glyph-name="unif9" unicode="&#xf9;" d="M311 564L248 564L158 716L233 716L311 564M407 479L487 479L487 0L407 0L407 64Q358-10 260-10Q180-10 127 39.50Q74 89 74 180L74 479L154 479L154 185Q154 126 188.50 94.50Q223 63 281 63Q338 63 372.50 102.50Q407 142 407 210L407 479Z"  horiz-adv-x="560" vert-adv-y="1000"  />

      
      <glyph glyph-name="unifa" unicode="&#xfa;" d="M403 716L313 564L250 564L328 716L403 716M407 479L487 479L487 0L407 0L407 64Q358-10 260-10Q180-10 127 39.50Q74 89 74 180L74 479L154 479L154 185Q154 126 188.50 94.50Q223 63 281 63Q338 63 372.50 102.50Q407 142 407 210L407 479Z"  horiz-adv-x="560" vert-adv-y="1000"  />

      
      <glyph glyph-name="unifb" unicode="&#xfb;" d="M279 675L198 564L128 564L241 716L316 716L431 564L362 564L279 675M407 479L487 479L487 0L407 0L407 64Q358-10 260-10Q180-10 127 39.50Q74 89 74 180L74 479L154 479L154 185Q154 126 188.50 94.50Q223 63 281 63Q338 63 372.50 102.50Q407 142 407 210L407 479Z"  horiz-adv-x="560" vert-adv-y="1000"  />

      
      <glyph glyph-name="unifc" unicode="&#xfc;" d="M232.50 613Q232.50 613 223.75 604Q215 595 190 595Q165 595 147.50 613Q130 631 130 656Q130 680 147.50 698Q165 716 190 716Q215 716 232.50 698Q250 680 250 656Q250 631 232.50 613M411.50 613Q411.50 613 402.75 604Q394 595 369 595Q344 595 326.50 613Q309 631 309 656Q309 680 326.50 698Q344 716 369 716Q394 716 411.50 698Q429 680 429 656Q429 631 411.50 613M407 479L487 479L487 0L407 0L407 64Q358-10 260-10Q180-10 127 39.50Q74 89 74 180L74 479L154 479L154 185Q154 126 188.50 94.50Q223 63 281 63Q338 63 372.50 102.50Q407 142 407 210L407 479Z"  horiz-adv-x="560" vert-adv-y="1000"  />

      
      <glyph glyph-name="unifd" unicode="&#xfd;" d="M387 716L297 564L234 564L312 716L387 716M436 479L521 479L214-200L136-200L229 0L9 479L95 479L266 95L436 479Z"  horiz-adv-x="527" vert-adv-y="1000"  />

      
      <glyph glyph-name="unife" unicode="&#xfe;" d="M333 489Q434 489 501 419Q568 349 568 239Q568 129 501 59.50Q434-10 334-10Q215-10 158 82L158-200L78-200L78 700L158 700L158 398Q215 489 333 489M203.50 110.50Q203.50 110.50 226.25 85.75Q249 61 320 61Q391 61 438.50 110Q486 159 486 239Q486 319 438.50 368.50Q391 418 320 418Q249 418 203.50 368Q158 318 158 239Q158 160 203.50 110.50Z"  horiz-adv-x="612" vert-adv-y="1000"  />

      
      <glyph glyph-name="uniff" unicode="&#xff;" d="M216.50 613Q216.50 613 207.75 604Q199 595 174 595Q149 595 131.50 613Q114 631 114 656Q114 680 131.50 698Q149 716 174 716Q199 716 216.50 698Q234 680 234 656Q234 631 216.50 613M395.50 613Q395.50 613 386.75 604Q378 595 353 595Q328 595 310.50 613Q293 631 293 656Q293 680 310.50 698Q328 716 353 716Q378 716 395.50 698Q413 680 413 656Q413 631 395.50 613M436 479L521 479L214-200L136-200L229 0L9 479L95 479L266 95L436 479Z"  horiz-adv-x="527" vert-adv-y="1000"  />

      
      <glyph glyph-name="uni0100" unicode="&#x0100;" d="M508 847L508 787L202 787L202 847L508 847M400 700L694 0L606 0L533 177L176 177L103 0L15 0L309 700L400 700M207 252L502 252L355 607L207 252Z"  horiz-adv-x="709" vert-adv-y="1000"  />

      
      <glyph glyph-name="uni0101" unicode="&#x0101;" d="M420 626L420 566L114 566L114 626L420 626M485 59Q493 59 502 61L502-7Q487-10 468-10Q431-10 406 8.50Q381 27 376 61Q324-10 216-10Q140-10 92.50 28Q45 66 45 133Q45 199 91 234Q137 269 206 276L375 295L375 304Q375 361 341 392Q307 423 253 423Q209 423 178.50 400.50Q148 378 138 340L67 356Q83 421 135 455Q187 489 257 489Q348 489 401.50 441.50Q455 394 455 306L455 88Q455 59 485 59M242 54Q303 58 339 95.50Q375 133 375 198L375 232L219 214Q125 204 125 134Q125 93 159.50 72Q194 51 242 54Z"  horiz-adv-x="533" vert-adv-y="1000"  />

      
      <glyph glyph-name="uni0102" unicode="&#x0102;" d="M355 784Q294 784 256 823Q218 862 218 925L278 925Q278 886 299 862Q320 838 355 838Q390 838 412 862Q434 886 434 925L494 925Q494 862 455.50 823Q417 784 355 784M400 700L694 0L606 0L533 177L176 177L103 0L15 0L309 700L400 700M207 252L502 252L355 607L207 252Z"  horiz-adv-x="709" vert-adv-y="1000"  />

      
      <glyph glyph-name="uni0103" unicode="&#x0103;" d="M267 563Q206 563 168 602Q130 641 130 704L190 704Q190 665 211 641Q232 617 267 617Q302 617 324 641Q346 665 346 704L406 704Q406 641 367.50 602Q329 563 267 563M485 59Q493 59 502 61L502-7Q487-10 468-10Q431-10 406 8.50Q381 27 376 61Q324-10 216-10Q140-10 92.50 28Q45 66 45 133Q45 199 91 234Q137 269 206 276L375 295L375 304Q375 361 341 392Q307 423 253 423Q209 423 178.50 400.50Q148 378 138 340L67 356Q83 421 135 455Q187 489 257 489Q348 489 401.50 441.50Q455 394 455 306L455 88Q455 59 485 59M242 54Q303 58 339 95.50Q375 133 375 198L375 232L219 214Q125 204 125 134Q125 93 159.50 72Q194 51 242 54Z"  horiz-adv-x="533" vert-adv-y="1000"  />

      
      <glyph glyph-name="uni0104" unicode="&#x0104;" d="M703-119L728-161Q683-206 616-206Q570-206 539-181.50Q508-157 508-113Q508-38 604 4L533 177L176 177L103 0L15 0L309 700L400 700L694 0L661 0Q565-42 565-102Q565-125 580.50-138.50Q596-152 623-152Q672-152 703-119M207 252L502 252L355 607L207 252Z"  horiz-adv-x="709" vert-adv-y="1000"  />

      
      <glyph glyph-name="uni0105" unicode="&#x0105;" d="M515-119L540-161Q495-206 428-206Q382-206 351-181.50Q320-157 320-113Q320-39 414 3Q382 22 376 61Q324-10 216-10Q140-10 92.50 28Q45 66 45 133Q45 199 91 234Q137 269 206 276L375 295L375 304Q375 361 341 392Q307 423 253 423Q209 423 178.50 400.50Q148 378 138 340L67 356Q83 421 135 455Q187 489 257 489Q348 489 401.50 441.50Q455 394 455 306L455 88Q455 59 485 59Q493 59 502 61L502-7Q487-10 468-10Q458-10 453-9Q377-48 377-102Q377-125 392.50-138.50Q408-152 435-152Q484-152 515-119M242 54Q303 58 339 95.50Q375 133 375 198L375 232L219 214Q125 204 125 134Q125 93 159.50 72Q194 51 242 54Z"  horiz-adv-x="533" vert-adv-y="1000"  />

      
      <glyph glyph-name="uni0106" unicode="&#x0106;" d="M368 785L446 937L521 937L431 785L368 785M398-10Q250-10 151 91Q52 192 52 351Q52 511 150.50 610.50Q249 710 398 710Q515 710 602 652.50Q689 595 714 498L634 472Q616 541 551.50 585.50Q487 630 398 630Q286 630 212.50 553Q139 476 139 351Q139 226 212.50 148Q286 70 398 70Q487 70 552 114.50Q617 159 635 229L714 202Q689 105 602 47.50Q515-10 398-10Z"  horiz-adv-x="763" vert-adv-y="1000"  />

      
      <glyph glyph-name="uni0107" unicode="&#x0107;" d="M257 564L335 716L410 716L320 564L257 564M287-10Q183-10 114 59Q45 128 45 238Q45 348 113.50 418.50Q182 489 287 489Q365 489 424 451.50Q483 414 501 349L430 324Q420 366 381 391Q342 416 290 416Q220 416 173.50 366.50Q127 317 127 239Q127 160 173.50 111Q220 62 291 62Q342 62 381 87.50Q420 113 430 155L501 131Q483 65 424 27.50Q365-10 287-10Z"  horiz-adv-x="536" vert-adv-y="1000"  />

      
      <glyph glyph-name="uni0108" unicode="&#x0108;" d="M359 937L434 937L549 785L480 785L397 896L316 785L246 785L359 937M398-10Q250-10 151 91Q52 192 52 351Q52 511 150.50 610.50Q249 710 398 710Q515 710 602 652.50Q689 595 714 498L634 472Q616 541 551.50 585.50Q487 630 398 630Q286 630 212.50 553Q139 476 139 351Q139 226 212.50 148Q286 70 398 70Q487 70 552 114.50Q617 159 635 229L714 202Q689 105 602 47.50Q515-10 398-10Z"  horiz-adv-x="763" vert-adv-y="1000"  />

      
      <glyph glyph-name="uni0109" unicode="&#x0109;" d="M248 716L323 716L438 564L369 564L286 675L205 564L135 564L248 716M287-10Q183-10 114 59Q45 128 45 238Q45 348 113.50 418.50Q182 489 287 489Q365 489 424 451.50Q483 414 501 349L430 324Q420 366 381 391Q342 416 290 416Q220 416 173.50 366.50Q127 317 127 239Q127 160 173.50 111Q220 62 291 62Q342 62 381 87.50Q420 113 430 155L501 131Q483 65 424 27.50Q365-10 287-10Z"  horiz-adv-x="536" vert-adv-y="1000"  />

      
      <glyph glyph-name="uni010A" unicode="&#x010A;" d="M397 805Q368 805 348.50 825.50Q329 846 329 874Q329 903 348.50 923.50Q368 944 397 944Q427 944 447 923.50Q467 903 467 874Q467 846 447 825.50Q427 805 397 805M398-10Q250-10 151 91Q52 192 52 351Q52 511 150.50 610.50Q249 710 398 710Q515 710 602 652.50Q689 595 714 498L634 472Q616 541 551.50 585.50Q487 630 398 630Q286 630 212.50 553Q139 476 139 351Q139 226 212.50 148Q286 70 398 70Q487 70 552 114.50Q617 159 635 229L714 202Q689 105 602 47.50Q515-10 398-10Z"  horiz-adv-x="763" vert-adv-y="1000"  />

      
      <glyph glyph-name="uni010B" unicode="&#x010B;" d="M286 584Q257 584 237.50 604.50Q218 625 218 653Q218 682 237.50 702.50Q257 723 286 723Q316 723 336 702.50Q356 682 356 653Q356 625 336 604.50Q316 584 286 584M287-10Q183-10 114 59Q45 128 45 238Q45 348 113.50 418.50Q182 489 287 489Q365 489 424 451.50Q483 414 501 349L430 324Q420 366 381 391Q342 416 290 416Q220 416 173.50 366.50Q127 317 127 239Q127 160 173.50 111Q220 62 291 62Q342 62 381 87.50Q420 113 430 155L501 131Q483 65 424 27.50Q365-10 287-10Z"  horiz-adv-x="536" vert-adv-y="1000"  />

      
      <glyph glyph-name="uni010C" unicode="&#x010C;" d="M360 785L247 937L317 937L398 826L481 937L550 937L435 785L360 785M398-10Q250-10 151 91Q52 192 52 351Q52 511 150.50 610.50Q249 710 398 710Q515 710 602 652.50Q689 595 714 498L634 472Q616 541 551.50 585.50Q487 630 398 630Q286 630 212.50 553Q139 476 139 351Q139 226 212.50 148Q286 70 398 70Q487 70 552 114.50Q617 159 635 229L714 202Q689 105 602 47.50Q515-10 398-10Z"  horiz-adv-x="763" vert-adv-y="1000"  />

      
      <glyph glyph-name="uni010D" unicode="&#x010D;" d="M249 564L136 716L206 716L287 605L370 716L439 716L324 564L249 564M287-10Q183-10 114 59Q45 128 45 238Q45 348 113.50 418.50Q182 489 287 489Q365 489 424 451.50Q483 414 501 349L430 324Q420 366 381 391Q342 416 290 416Q220 416 173.50 366.50Q127 317 127 239Q127 160 173.50 111Q220 62 291 62Q342 62 381 87.50Q420 113 430 155L501 131Q483 65 424 27.50Q365-10 287-10Z"  horiz-adv-x="536" vert-adv-y="1000"  />

      
      <glyph glyph-name="uni010E" unicode="&#x010E;" d="M325 785L212 937L282 937L363 826L446 937L515 937L400 785L325 785M90 0L90 700L317 700Q486 700 580 608Q674 516 674 351Q674 186 580 93Q486 0 317 0L90 0M172 76L311 76Q443 76 515 149Q587 222 587 351Q587 480 515 552Q443 624 311 624L172 624L172 76Z"  horiz-adv-x="726" vert-adv-y="1000"  />

      
      <glyph glyph-name="uni010F" unicode="&#x010F;" d="M455 397L455 700L535 700L535 0L455 0L455 82Q398-10 279-10Q179-10 112 59.50Q45 129 45 239Q45 349 111.50 419Q178 489 279 489Q398 489 455 397M643 700L721 700L704 436L643 436L643 700M174.50 110Q174.50 110 198.25 85.50Q222 61 293 61Q364 61 409.50 110.50Q455 160 455 239Q455 318 409.50 368Q364 418 293 418Q222 418 174.50 368.50Q127 319 127 239Q127 159 174.50 110Z"  horiz-adv-x="721" vert-adv-y="1000"  />

      
      <glyph glyph-name="uni0110" unicode="&#x0110;" d="M317 700Q486 700 580 608Q674 516 674 351Q674 186 580 93Q486 0 317 0L90 0L90 315L-22 315L-22 385L90 385L90 700L317 700M311 76Q443 76 515 149Q587 222 587 351Q587 480 515 552Q443 624 311 624L172 624L172 385L282 385L282 315L172 315L172 76L311 76Z"  horiz-adv-x="726" vert-adv-y="1000"  />

      
      <glyph glyph-name="uni0111" unicode="&#x0111;" d="M648 626L648 556L535 556L535 0L455 0L455 82Q398-10 279-10Q179-10 112 59.50Q45 129 45 239Q45 349 111.50 419Q178 489 279 489Q398 489 455 397L455 556L344 556L344 626L455 626L455 700L535 700L535 626L648 626M174.50 110Q174.50 110 198.25 85.50Q222 61 293 61Q364 61 409.50 110.50Q455 160 455 239Q455 318 409.50 368Q364 418 293 418Q222 418 174.50 368.50Q127 319 127 239Q127 159 174.50 110Z"  horiz-adv-x="613" vert-adv-y="1000"  />

      
      <glyph glyph-name="uni0112" unicode="&#x0112;" d="M157 787L157 847L463 847L463 787L157 787M90 0L90 700L544 700L544 624L172 624L172 389L536 389L536 313L172 313L172 76L549 76L549 0L90 0Z"  horiz-adv-x="620" vert-adv-y="1000"  />

      
      <glyph glyph-name="uni0113" unicode="&#x0113;" d="M126 566L126 626L432 626L432 566L126 566M285-10Q181-10 113 58.50Q45 127 45 239Q45 351 112.50 420Q180 489 283 489Q385 489 449.50 423Q514 357 514 248Q514 236 512 222L125 222Q129 146 173 101Q217 56 285 56Q337 56 375 81.50Q413 107 423 151L494 128Q476 63 418.50 26.50Q361-10 285-10M129 285L435 285Q427 346 386 384Q345 422 284 422Q224 422 182 385Q140 348 129 285Z"  horiz-adv-x="558" vert-adv-y="1000"  />

      
      <glyph glyph-name="uni0114" unicode="&#x0114;" d="M310 784Q249 784 211 823Q173 862 173 925L233 925Q233 886 254 862Q275 838 310 838Q345 838 367 862Q389 886 389 925L449 925Q449 862 410.50 823Q372 784 310 784M90 0L90 700L544 700L544 624L172 624L172 389L536 389L536 313L172 313L172 76L549 76L549 0L90 0Z"  horiz-adv-x="620" vert-adv-y="1000"  />

      
      <glyph glyph-name="uni0115" unicode="&#x0115;" d="M279 563Q218 563 180 602Q142 641 142 704L202 704Q202 665 223 641Q244 617 279 617Q314 617 336 641Q358 665 358 704L418 704Q418 641 379.50 602Q341 563 279 563M285-10Q181-10 113 58.50Q45 127 45 239Q45 351 112.50 420Q180 489 283 489Q385 489 449.50 423Q514 357 514 248Q514 236 512 222L125 222Q129 146 173 101Q217 56 285 56Q337 56 375 81.50Q413 107 423 151L494 128Q476 63 418.50 26.50Q361-10 285-10M129 285L435 285Q427 346 386 384Q345 422 284 422Q224 422 182 385Q140 348 129 285Z"  horiz-adv-x="558" vert-adv-y="1000"  />

      
      <glyph glyph-name="uni0116" unicode="&#x0116;" d="M309 805Q280 805 260.50 825.50Q241 846 241 874Q241 903 260.50 923.50Q280 944 309 944Q339 944 359 923.50Q379 903 379 874Q379 846 359 825.50Q339 805 309 805M90 0L90 700L544 700L544 624L172 624L172 389L536 389L536 313L172 313L172 76L549 76L549 0L90 0Z"  horiz-adv-x="620" vert-adv-y="1000"  />

      
      <glyph glyph-name="uni0117" unicode="&#x0117;" d="M278 584Q249 584 229.50 604.50Q210 625 210 653Q210 682 229.50 702.50Q249 723 278 723Q308 723 328 702.50Q348 682 348 653Q348 625 328 604.50Q308 584 278 584M285-10Q181-10 113 58.50Q45 127 45 239Q45 351 112.50 420Q180 489 283 489Q385 489 449.50 423Q514 357 514 248Q514 236 512 222L125 222Q129 146 173 101Q217 56 285 56Q337 56 375 81.50Q413 107 423 151L494 128Q476 63 418.50 26.50Q361-10 285-10M129 285L435 285Q427 346 386 384Q345 422 284 422Q224 422 182 385Q140 348 129 285Z"  horiz-adv-x="558" vert-adv-y="1000"  />

      
      <glyph glyph-name="uni0118" unicode="&#x0118;" d="M482 0Q386-42 386-102Q386-125 401.50-138.50Q417-152 444-152Q493-152 524-119L549-161Q504-206 437-206Q391-206 360-181.50Q329-157 329-113Q329-42 417 0L90 0L90 700L544 700L544 624L172 624L172 389L536 389L536 313L172 313L172 76L549 76L549 0L482 0Z"  horiz-adv-x="620" vert-adv-y="1000"  />

      
      <glyph glyph-name="uni0119" unicode="&#x0119;" d="M514 248Q514 236 512 222L125 222Q129 146 173 101Q217 56 285 56Q337 56 375 81.50Q413 107 423 151L494 128Q476 66 422.50 29.50Q369-7 297-10Q222-50 222-102Q222-125 237.50-138.50Q253-152 280-152Q329-152 360-119L385-161Q340-206 273-206Q227-206 196-181.50Q165-157 165-113Q165-47 240-6Q153 9 99 74.50Q45 140 45 239Q45 351 112.50 420Q180 489 283 489Q385 489 449.50 423Q514 357 514 248M129 285L435 285Q427 346 386 384Q345 422 284 422Q224 422 182 385Q140 348 129 285Z"  horiz-adv-x="558" vert-adv-y="1000"  />

      
      <glyph glyph-name="uni011A" unicode="&#x011A;" d="M272 785L159 937L229 937L310 826L393 937L462 937L347 785L272 785M90 0L90 700L544 700L544 624L172 624L172 389L536 389L536 313L172 313L172 76L549 76L549 0L90 0Z"  horiz-adv-x="620" vert-adv-y="1000"  />

      
      <glyph glyph-name="uni011B" unicode="&#x011B;" d="M241 564L128 716L198 716L279 605L362 716L431 716L316 564L241 564M285-10Q181-10 113 58.50Q45 127 45 239Q45 351 112.50 420Q180 489 283 489Q385 489 449.50 423Q514 357 514 248Q514 236 512 222L125 222Q129 146 173 101Q217 56 285 56Q337 56 375 81.50Q413 107 423 151L494 128Q476 63 418.50 26.50Q361-10 285-10M129 285L435 285Q427 346 386 384Q345 422 284 422Q224 422 182 385Q140 348 129 285Z"  horiz-adv-x="558" vert-adv-y="1000"  />

      
      <glyph glyph-name="uni011C" unicode="&#x011C;" d="M397 896L316 785L246 785L359 937L434 937L549 785L480 785L397 896M324 313L715 313L715 0L640 0L640 105Q602 50 541 20Q480-10 407-10Q253-10 152.50 90.50Q52 191 52 351Q52 511 150.50 610.50Q249 710 398 710Q515 710 602 652.50Q689 595 714 498L634 472Q616 541 551.50 585.50Q487 630 398 630Q286 630 212.50 553Q139 476 139 351Q139 226 214 148Q289 70 407 70Q495 70 558 117Q621 164 640 237L324 237L324 313Z"  horiz-adv-x="774" vert-adv-y="1000"  />

      
      <glyph glyph-name="uni011D" unicode="&#x011D;" d="M306 675L225 564L155 564L268 716L343 716L458 564L389 564L306 675M455 479L535 479L535 24Q535-86 469.50-148Q404-210 299-210Q217-210 155.50-172Q94-134 74-70L146-39Q157-83 198.50-111Q240-139 298-139Q369-139 412-98Q455-57 455 19L455 82Q398-10 279-10Q179-10 112 59.50Q45 129 45 239Q45 349 111.50 419Q178 489 279 489Q398 489 455 397L455 479M174.50 110Q174.50 110 198.25 85.50Q222 61 293 61Q364 61 409.50 110.50Q455 160 455 239Q455 318 409.50 368Q364 418 293 418Q222 418 174.50 368.50Q127 319 127 239Q127 159 174.50 110Z"  horiz-adv-x="613" vert-adv-y="1000"  />

      
      <glyph glyph-name="uni011E" unicode="&#x011E;" d="M398 784Q337 784 299 823Q261 862 261 925L321 925Q321 886 342 862Q363 838 398 838Q433 838 455 862Q477 886 477 925L537 925Q537 862 498.50 823Q460 784 398 784M324 313L715 313L715 0L640 0L640 105Q602 50 541 20Q480-10 407-10Q253-10 152.50 90.50Q52 191 52 351Q52 511 150.50 610.50Q249 710 398 710Q515 710 602 652.50Q689 595 714 498L634 472Q616 541 551.50 585.50Q487 630 398 630Q286 630 212.50 553Q139 476 139 351Q139 226 214 148Q289 70 407 70Q495 70 558 117Q621 164 640 237L324 237L324 313Z"  horiz-adv-x="774" vert-adv-y="1000"  />

      
      <glyph glyph-name="uni011F" unicode="&#x011F;" d="M307 563Q246 563 208 602Q170 641 170 704L230 704Q230 665 251 641Q272 617 307 617Q342 617 364 641Q386 665 386 704L446 704Q446 641 407.50 602Q369 563 307 563M455 479L535 479L535 24Q535-86 469.50-148Q404-210 299-210Q217-210 155.50-172Q94-134 74-70L146-39Q157-83 198.50-111Q240-139 298-139Q369-139 412-98Q455-57 455 19L455 82Q398-10 279-10Q179-10 112 59.50Q45 129 45 239Q45 349 111.50 419Q178 489 279 489Q398 489 455 397L455 479M174.50 110Q174.50 110 198.25 85.50Q222 61 293 61Q364 61 409.50 110.50Q455 160 455 239Q455 318 409.50 368Q364 418 293 418Q222 418 174.50 368.50Q127 319 127 239Q127 159 174.50 110Z"  horiz-adv-x="613" vert-adv-y="1000"  />

      
      <glyph glyph-name="uni0120" unicode="&#x0120;" d="M397 805Q368 805 348.50 825.50Q329 846 329 874Q329 903 348.50 923.50Q368 944 397 944Q427 944 447 923.50Q467 903 467 874Q467 846 447 825.50Q427 805 397 805M324 313L715 313L715 0L640 0L640 105Q602 50 541 20Q480-10 407-10Q253-10 152.50 90.50Q52 191 52 351Q52 511 150.50 610.50Q249 710 398 710Q515 710 602 652.50Q689 595 714 498L634 472Q616 541 551.50 585.50Q487 630 398 630Q286 630 212.50 553Q139 476 139 351Q139 226 214 148Q289 70 407 70Q495 70 558 117Q621 164 640 237L324 237L324 313Z"  horiz-adv-x="774" vert-adv-y="1000"  />

      
      <glyph glyph-name="uni0121" unicode="&#x0121;" d="M306 584Q277 584 257.50 604.50Q238 625 238 653Q238 682 257.50 702.50Q277 723 306 723Q336 723 356 702.50Q376 682 376 653Q376 625 356 604.50Q336 584 306 584M455 479L535 479L535 24Q535-86 469.50-148Q404-210 299-210Q217-210 155.50-172Q94-134 74-70L146-39Q157-83 198.50-111Q240-139 298-139Q369-139 412-98Q455-57 455 19L455 82Q398-10 279-10Q179-10 112 59.50Q45 129 45 239Q45 349 111.50 419Q178 489 279 489Q398 489 455 397L455 479M174.50 110Q174.50 110 198.25 85.50Q222 61 293 61Q364 61 409.50 110.50Q455 160 455 239Q455 318 409.50 368Q364 418 293 418Q222 418 174.50 368.50Q127 319 127 239Q127 159 174.50 110Z"  horiz-adv-x="613" vert-adv-y="1000"  />

      
      <glyph glyph-name="uni0122" unicode="&#x0122;" d="M324 313L715 313L715 0L640 0L640 105Q602 50 541 20Q480-10 407-10Q253-10 152.50 90.50Q52 191 52 351Q52 511 150.50 610.50Q249 710 398 710Q515 710 602 652.50Q689 595 714 498L634 472Q616 541 551.50 585.50Q487 630 398 630Q286 630 212.50 553Q139 476 139 351Q139 226 214 148Q289 70 407 70Q495 70 558 117Q621 164 640 237L324 237L324 313M291-207L369-55L444-55L354-207L291-207Z"  horiz-adv-x="774" vert-adv-y="1000"  />

      
      <glyph glyph-name="uni0123" unicode="&#x0123;" d="M455 479L535 479L535 24Q535-86 469.50-148Q404-210 299-210Q217-210 155.50-172Q94-134 74-70L146-39Q157-83 198.50-111Q240-139 298-139Q369-139 412-98Q455-57 455 19L455 82Q398-10 279-10Q179-10 112 59.50Q45 129 45 239Q45 349 111.50 419Q178 489 279 489Q398 489 455 397L455 479M174.50 110Q174.50 110 198.25 85.50Q222 61 293 61Q364 61 409.50 110.50Q455 160 455 239Q455 318 409.50 368Q364 418 293 418Q222 418 174.50 368.50Q127 319 127 239Q127 159 174.50 110M188-417L266-265L341-265L251-417L188-417Z"  horiz-adv-x="613" vert-adv-y="1000"  />

      
      <glyph glyph-name="uni0124" unicode="&#x0124;" d="M318 937L393 937L508 785L439 785L356 896L275 785L205 785L318 937M90 0L90 700L172 700L172 388L542 388L542 700L623 700L623 0L542 0L542 312L172 312L172 0L90 0Z"  horiz-adv-x="713" vert-adv-y="1000"  />

      
      <glyph glyph-name="uni0125" unicode="&#x0125;" d="M201 785L118 896L37 785L-33 785L80 937L155 937L270 785L201 785M305 489Q389 489 440 441Q491 393 491 306L491 0L411 0L411 288Q411 351 377 383.50Q343 416 285 416Q228 416 193 376.50Q158 337 158 269L158 0L78 0L78 700L158 700L158 414Q206 489 305 489Z"  horiz-adv-x="565" vert-adv-y="1000"  />

      
      <glyph glyph-name="uni0126" unicode="&#x0126;" d="M90 0L90 509L0 509L0 585L90 585L90 700L172 700L172 585L542 585L542 700L623 700L623 585L713 585L713 509L623 509L623 0L542 0L542 312L172 312L172 0L90 0M172 388L542 388L542 509L172 509L172 388Z"  horiz-adv-x="713" vert-adv-y="1000"  />

      
      <glyph glyph-name="uni0127" unicode="&#x0127;" d="M305 489Q389 489 440 441Q491 393 491 306L491 0L411 0L411 288Q411 351 377 383.50Q343 416 285 416Q228 416 193 376.50Q158 337 158 269L158 0L78 0L78 553L-33 553L-33 623L78 623L78 700L158 700L158 623L271 623L271 553L158 553L158 414Q206 489 305 489Z"  horiz-adv-x="565" vert-adv-y="1000"  />

      
      <glyph glyph-name="uni0128" unicode="&#x0128;" d="M208 792Q171 792 126.50 814Q82 836 58 836Q18 836 8 796L-47 796Q-43 840-14.50 865.50Q14 891 56 891Q93 891 137.50 869Q182 847 206 847Q246 847 256 887L310 887Q306 844 277.50 818Q249 792 208 792M91 0L91 700L173 700L173 0L91 0Z"  horiz-adv-x="263" vert-adv-y="1000"  />

      
      <glyph glyph-name="uni0129" unicode="&#x0129;" d="M205 571Q168 571 123.50 593Q79 615 55 615Q15 615 5 575L-50 575Q-46 619-17.50 644.50Q11 670 53 670Q90 670 134.50 648Q179 626 203 626Q243 626 253 666L307 666Q303 623 274.50 597Q246 571 205 571M88 0L88 479L168 479L168 0L88 0Z"  horiz-adv-x="257" vert-adv-y="1000"  />

      
      <glyph glyph-name="uni012A" unicode="&#x012A;" d="M-21 787L-21 847L285 847L285 787L-21 787M91 0L91 700L173 700L173 0L91 0Z"  horiz-adv-x="263" vert-adv-y="1000"  />

      
      <glyph glyph-name="uni012B" unicode="&#x012B;" d="M-24 566L-24 626L282 626L282 566L-24 566M88 0L88 479L168 479L168 0L88 0Z"  horiz-adv-x="257" vert-adv-y="1000"  />

      
      <glyph glyph-name="uni012C" unicode="&#x012C;" d="M132 784Q71 784 33 823Q-5 862-5 925L55 925Q55 886 76 862Q97 838 132 838Q167 838 189 862Q211 886 211 925L271 925Q271 862 232.50 823Q194 784 132 784M91 0L91 700L173 700L173 0L91 0Z"  horiz-adv-x="263" vert-adv-y="1000"  />

      
      <glyph glyph-name="uni012D" unicode="&#x012D;" d="M129 563Q68 563 30 602Q-8 641-8 704L52 704Q52 665 73 641Q94 617 129 617Q164 617 186 641Q208 665 208 704L268 704Q268 641 229.50 602Q191 563 129 563M88 0L88 479L168 479L168 0L88 0Z"  horiz-adv-x="257" vert-adv-y="1000"  />

      
      <glyph glyph-name="uni012E" unicode="&#x012E;" d="M192-119L217-161Q172-206 105-206Q59-206 28-181.50Q-3-157-3-113Q-3-39 91 3L91 700L173 700L173 0L150 0Q54-42 54-102Q54-125 69.50-138.50Q85-152 112-152Q161-152 192-119Z"  horiz-adv-x="263" vert-adv-y="1000"  />

      
      <glyph glyph-name="uni012F" unicode="&#x012F;" d="M128 584Q99 584 79.50 604.50Q60 625 60 653Q60 682 79.50 702.50Q99 723 128 723Q158 723 178 702.50Q198 682 198 653Q198 625 178 604.50Q158 584 128 584M195-119L220-161Q175-206 108-206Q62-206 31-181.50Q0-157 0-113Q0-40 88 0L88 479L168 479L168 0L153 0Q57-42 57-102Q57-125 72.50-138.50Q88-152 115-152Q164-152 195-119Z"  horiz-adv-x="257" vert-adv-y="1000"  />

      
      <glyph glyph-name="uni0130" unicode="&#x0130;" d="M131 805Q102 805 82.50 825.50Q63 846 63 874Q63 903 82.50 923.50Q102 944 131 944Q161 944 181 923.50Q201 903 201 874Q201 846 181 825.50Q161 805 131 805M91 0L91 700L173 700L173 0L91 0Z"  horiz-adv-x="263" vert-adv-y="1000"  />

      
      <glyph glyph-name="uni0131" unicode="&#x0131;" d="M88 0L88 479L168 479L168 0L88 0Z"  horiz-adv-x="257" vert-adv-y="1000"  />

      
      <glyph glyph-name="uni0132" unicode="&#x0132;" d="M91 0L91 700L173 700L173 0L91 0M366 213L366 183Q366 131 396 100.50Q426 70 475 70Q532 70 562.50 104Q593 138 593 198L593 700L674 700L674 198Q674 97 622 43.50Q570-10 475-10Q389-10 336 40.50Q283 91 283 180L283 196L366 213Z"  horiz-adv-x="760" vert-adv-y="1000"  />

      
      <glyph glyph-name="uni0133" unicode="&#x0133;" d="M171 597Q171 597 162 588.50Q153 580 128 580Q103 580 85.50 597Q68 614 68 639Q68 664 85.50 681.50Q103 699 128 699Q153 699 171 681.50Q189 664 189 639Q189 614 171 597M446.50 597.50Q446.50 597.50 437.25 588.75Q428 580 403 580Q378 580 360.50 597Q343 614 343 639Q343 664 360.50 681.50Q378 699 403 699Q428 699 446.50 681.50Q465 664 465 639Q465 615 446.50 597.50M88 0L88 479L168 479L168 0L88 0M303-203Q268-203 234-195L244-126Q268-133 292-133Q364-133 364-57L364 479L444 479L444-65Q444-131 407.50-167Q371-203 303-203Z"  horiz-adv-x="528" vert-adv-y="1000"  />

      
      <glyph glyph-name="uni0134" unicode="&#x0134;" d="M331 937L406 937L521 785L452 785L369 896L288 785L218 785L331 937M103 213L103 183Q103 131 133 100.50Q163 70 212 70Q269 70 299.50 104Q330 138 330 198L330 700L411 700L411 198Q411 97 359 43.50Q307-10 212-10Q126-10 73 40.50Q20 91 20 180L20 196L103 213Z"  horiz-adv-x="497" vert-adv-y="1000"  />

      
      <glyph glyph-name="uni0135" unicode="&#x0135;" d="M106 716L181 716L296 564L227 564L144 675L63 564L-7 564L106 716M46-203Q11-203-23-195L-13-126Q11-133 35-133Q107-133 107-57L107 479L187 479L187-65Q187-131 150.50-167Q114-203 46-203Z"  horiz-adv-x="271" vert-adv-y="1000"  />

      
      <glyph glyph-name="uni0136" unicode="&#x0136;" d="M90 0L90 700L172 700L172 339L515 700L616 700L339 399L631 0L527 0L277 336L172 231L172 0L90 0M210-207L288-55L363-55L273-207L210-207Z"  horiz-adv-x="641" vert-adv-y="1000"  />

      
      <glyph glyph-name="uni0137" unicode="&#x0137;" d="M78 0L78 700L158 700L158 253L403 479L496 479L295 288L512 0L418 0L238 228L158 154L158 0L78 0M153-207L231-55L306-55L216-207L153-207Z"  horiz-adv-x="527" vert-adv-y="1000"  />

      
      <glyph glyph-name="uni0138" unicode="&#x0138;" d="M78 0L78 479L158 479L158 253L403 479L496 479L295 288L512 0L418 0L238 228L158 154L158 0L78 0Z"  horiz-adv-x="527" vert-adv-y="1000"  />

      
      <glyph glyph-name="uni0139" unicode="&#x0139;" d="M101 785L179 937L254 937L164 785L101 785M90 0L90 700L172 700L172 76L543 76L543 0L90 0Z"  horiz-adv-x="560" vert-adv-y="1000"  />

      
      <glyph glyph-name="uni013A" unicode="&#x013A;" d="M89 785L167 937L242 937L152 785L89 785M78 0L78 700L158 700L158 0L78 0Z"  horiz-adv-x="236" vert-adv-y="1000"  />

      
      <glyph glyph-name="uni013B" unicode="&#x013B;" d="M90 0L90 700L172 700L172 76L543 76L543 0L90 0M197-207L275-55L350-55L260-207L197-207Z"  horiz-adv-x="560" vert-adv-y="1000"  />

      
      <glyph glyph-name="uni013C" unicode="&#x013C;" d="M78 0L78 700L158 700L158 0L78 0M8-207L86-55L161-55L71-207L8-207Z"  horiz-adv-x="236" vert-adv-y="1000"  />

      
      <glyph glyph-name="uni013D" unicode="&#x013D;" d="M93 785L-20 937L50 937L131 826L214 937L283 937L168 785L93 785M90 0L90 700L172 700L172 76L543 76L543 0L90 0Z"  horiz-adv-x="560" vert-adv-y="1000"  />

      
      <glyph glyph-name="uni013E" unicode="&#x013E;" d="M78 0L78 700L158 700L158 0L78 0M266 436L266 700L344 700L327 436L266 436Z"  horiz-adv-x="344" vert-adv-y="1000"  />

      
      <glyph glyph-name="uni013F" unicode="&#x013F;" d="M90 0L90 700L172 700L172 76L543 76L543 0L90 0M359 297Q334 297 317.50 314Q301 331 301 355Q301 379 317.50 396Q334 413 359 413Q383 413 400.50 396Q418 379 418 355Q418 331 400.50 314Q383 297 359 297Z"  horiz-adv-x="600" vert-adv-y="1000"  />

      
      <glyph glyph-name="uni0140" unicode="&#x0140;" d="M78 0L78 700L158 700L158 0L78 0M282 311Q257 311 240.50 328Q224 345 224 369Q224 393 240.50 410Q257 427 282 427Q306 427 323.50 410Q341 393 341 369Q341 345 323.50 328Q306 311 282 311Z"  horiz-adv-x="419" vert-adv-y="1000"  />

      
      <glyph glyph-name="uni0141" unicode="&#x0141;" d="M172 76L543 76L543 0L90 0L90 300L-10 265L-10 335L90 370L90 700L172 700L172 399L273 435L273 365L172 329L172 76Z"  horiz-adv-x="560" vert-adv-y="1000"  />

      
      <glyph glyph-name="uni0142" unicode="&#x0142;" d="M260 424L260 354L158 318L158 0L78 0L78 290L-23 254L-23 324L78 360L78 700L158 700L158 388L260 424Z"  horiz-adv-x="236" vert-adv-y="1000"  />

      
      <glyph glyph-name="uni0143" unicode="&#x0143;" d="M496 937L406 785L343 785L421 937L496 937M575 700L657 700L657 0L575 0L172 557L172 0L90 0L90 700L171 700L575 144L575 700Z"  horiz-adv-x="747" vert-adv-y="1000"  />

      
      <glyph glyph-name="uni0144" unicode="&#x0144;" d="M406 716L316 564L253 564L331 716L406 716M305 489Q389 489 440 441Q491 393 491 306L491 0L411 0L411 288Q411 351 377 383.50Q343 416 285 416Q228 416 193 376.50Q158 337 158 269L158 0L78 0L78 479L158 479L158 414Q206 489 305 489Z"  horiz-adv-x="565" vert-adv-y="1000"  />

      
      <glyph glyph-name="uni0145" unicode="&#x0145;" d="M575 700L657 700L657 0L575 0L172 557L172 0L90 0L90 700L171 700L575 144L575 700M262-207L340-55L415-55L325-207L262-207Z"  horiz-adv-x="747" vert-adv-y="1000"  />

      
      <glyph glyph-name="uni0146" unicode="&#x0146;" d="M305 489Q389 489 440 441Q491 393 491 306L491 0L411 0L411 288Q411 351 377 383.50Q343 416 285 416Q228 416 193 376.50Q158 337 158 269L158 0L78 0L78 479L158 479L158 414Q206 489 305 489M172-207L250-55L325-55L235-207L172-207Z"  horiz-adv-x="565" vert-adv-y="1000"  />

      
      <glyph glyph-name="uni0147" unicode="&#x0147;" d="M410 785L335 785L222 937L292 937L373 826L456 937L525 937L410 785M575 700L657 700L657 0L575 0L172 557L172 0L90 0L90 700L171 700L575 144L575 700Z"  horiz-adv-x="747" vert-adv-y="1000"  />

      
      <glyph glyph-name="uni0148" unicode="&#x0148;" d="M320 564L245 564L132 716L202 716L283 605L366 716L435 716L320 564M305 489Q389 489 440 441Q491 393 491 306L491 0L411 0L411 288Q411 351 377 383.50Q343 416 285 416Q228 416 193 376.50Q158 337 158 269L158 0L78 0L78 479L158 479L158 414Q206 489 305 489Z"  horiz-adv-x="565" vert-adv-y="1000"  />

      
      <glyph glyph-name="uni0149" unicode="&#x0149;" d="M150 710Q175 710 192.50 693Q210 676 210 646Q210 574 114 487L81 520Q129 562 134 598Q115 603 103.50 618Q92 633 92 653Q92 676 109 693Q126 710 150 710M505 489Q589 489 640 441Q691 393 691 306L691 0L611 0L611 288Q611 351 577 383.50Q543 416 485 416Q428 416 393 376.50Q358 337 358 269L358 0L278 0L278 479L358 479L358 414Q406 489 505 489Z"  horiz-adv-x="765" vert-adv-y="1000"  />

      
      <glyph glyph-name="uni014A" unicode="&#x014A;" d="M516-203Q481-203 447-195L457-126Q481-133 505-133Q577-133 577-57L577 3L172 557L172 0L90 0L90 700L171 700L576 147L576 700L657 700L657-65Q657-130 620-166.50Q583-203 516-203Z"  horiz-adv-x="747" vert-adv-y="1000"  />

      
      <glyph glyph-name="uni014B" unicode="&#x014B;" d="M305 489Q389 489 440 441Q491 393 491 306L491-65Q491-131 454.50-167Q418-203 351-203Q316-203 282-195L292-126Q316-133 339-133Q411-133 411-57L411 288Q411 351 377 383.50Q343 416 285 416Q228 416 193 376.50Q158 337 158 269L158 0L78 0L78 479L158 479L158 414Q206 489 305 489Z"  horiz-adv-x="565" vert-adv-y="1000"  />

      
      <glyph glyph-name="uni014C" unicode="&#x014C;" d="M251 787L251 847L557 847L557 787L251 787M656 90.50Q656 90.50 606 40.25Q556-10 404-10Q252-10 152 90.50Q52 191 52 351Q52 511 151.50 610.50Q251 710 404 710Q557 710 656.50 610.50Q756 511 756 351Q756 191 656 90.50M404 70Q520 70 594.50 148Q669 226 669 351Q669 476 594.50 553Q520 630 404 630Q289 630 214 553Q139 476 139 351Q139 226 214 148Q289 70 404 70Z"  horiz-adv-x="808" vert-adv-y="1000"  />

      
      <glyph glyph-name="uni014D" unicode="&#x014D;" d="M140 566L140 626L446 626L446 566L140 566M471 59Q471 59 435.50 24.50Q400-10 293-10Q186-10 115 58.50Q44 127 44 237Q44 350 114.50 419.50Q185 489 293 489Q400 489 471 419.50Q542 350 542 237Q542 128 471 59M293 62Q364 62 412 110.50Q460 159 460 238Q460 319 412.50 367.50Q365 416 293 416Q221 416 173.50 367.50Q126 319 126 238Q126 159 173.50 110.50Q221 62 293 62Z"  horiz-adv-x="586" vert-adv-y="1000"  />

      
      <glyph glyph-name="uni014E" unicode="&#x014E;" d="M404 784Q343 784 305 823Q267 862 267 925L327 925Q327 886 348 862Q369 838 404 838Q439 838 461 862Q483 886 483 925L543 925Q543 862 504.50 823Q466 784 404 784M656 90.50Q656 90.50 606 40.25Q556-10 404-10Q252-10 152 90.50Q52 191 52 351Q52 511 151.50 610.50Q251 710 404 710Q557 710 656.50 610.50Q756 511 756 351Q756 191 656 90.50M404 70Q520 70 594.50 148Q669 226 669 351Q669 476 594.50 553Q520 630 404 630Q289 630 214 553Q139 476 139 351Q139 226 214 148Q289 70 404 70Z"  horiz-adv-x="808" vert-adv-y="1000"  />

      
      </font>
</defs>
</svg>
