<svg width="604" height="330" viewBox="0 0 604 330" fill="none" xmlns="http://www.w3.org/2000/svg">
<path d="M17.1884 135.486H19.3128V121.967H17.4781C16.5125 122.624 15.431 122.972 14.3495 122.972V124.826C15.3151 124.826 16.3001 124.594 17.1884 124.169V135.486ZM30.8148 135.679C33.6151 135.679 35.585 133.767 35.585 131.006C35.585 128.205 33.5958 126.332 30.8727 126.332C29.8492 126.332 28.9994 126.68 28.42 127.259V123.802H34.9864V121.967H26.5853V129.345L28.3428 129.886C28.5938 128.823 29.5015 128.186 30.7569 128.186C32.3212 128.186 33.4606 129.306 33.4606 130.986C33.4606 132.667 32.3212 133.825 30.6989 133.825C29.405 133.825 28.4007 133.111 28.1883 131.991L26.3536 132.57C26.7784 134.521 28.6131 135.679 30.8148 135.679ZM42.6532 135.679C45.8784 135.679 48.0994 133.092 48.0994 128.727C48.0994 124.362 45.8784 121.774 42.6339 121.774C39.4087 121.774 37.207 124.362 37.207 128.727C37.207 133.092 39.4087 135.679 42.6532 135.679ZM42.6532 133.787C40.664 133.787 39.3314 131.933 39.3314 128.727C39.3314 125.521 40.664 123.648 42.6339 123.648C44.6231 123.648 45.975 125.521 45.975 128.727C45.975 131.933 44.6424 133.787 42.6532 133.787ZM49.3753 135.486H58.5681V133.652H52.4074L55.1111 130.929C56.4823 129.538 58.4716 127.626 58.4716 125.482C58.4716 123.3 56.6368 121.774 54.0683 121.774C51.8859 121.774 50.1091 122.894 49.6649 124.98L51.4803 125.56C51.7121 124.324 52.697 123.628 53.9717 123.628C55.4201 123.628 56.3278 124.555 56.3278 125.753C56.3278 127.317 54.5318 128.978 52.7936 130.716L49.3753 134.154V135.486Z" fill="white"/>
<path d="M549.347 105.712H551.472V92.193H549.637C548.671 92.8496 547.59 93.1973 546.508 93.1973V95.0513C547.474 95.0513 548.459 94.8195 549.347 94.3946V105.712ZM562.877 91.9999C560.154 91.9999 557.972 93.8925 557.972 96.6735C557.972 99.3387 559.922 101.328 562.452 101.328C563.012 101.328 563.553 101.231 564.094 101.019L562.066 105.712H564.171L567.203 98.9911C567.474 98.3538 567.763 97.6006 567.763 96.6349C567.763 93.8732 565.562 91.9999 562.877 91.9999ZM562.858 99.4932C561.371 99.4932 560.096 98.3924 560.096 96.6542C560.096 94.974 561.371 93.8539 562.858 93.8539C564.364 93.8539 565.639 94.974 565.639 96.6542C565.639 98.3924 564.364 99.4932 562.858 99.4932ZM571.513 105.712H573.638V92.193H571.803C570.837 92.8496 569.756 93.1973 568.674 93.1973V95.0513C569.64 95.0513 570.625 94.8195 571.513 94.3946V105.712ZM580.304 105.905C582.95 105.905 585.036 104.418 585.036 101.907C585.036 100.382 584.263 99.3773 583.027 98.7786C584.128 98.2379 584.843 97.3302 584.843 95.9203C584.843 93.5256 582.892 91.9999 580.246 91.9999C577.967 91.9999 576.229 93.1586 575.785 95.2058L577.6 95.7852C577.832 94.5878 578.817 93.8539 580.13 93.8539C581.424 93.8539 582.738 94.5298 582.738 95.959C582.738 97.3109 581.54 97.9096 580.111 97.9096H578.682V99.5898H580.111C581.637 99.5898 582.931 100.285 582.931 101.811C582.931 103.375 581.579 104.051 580.227 104.051C578.836 104.051 577.832 103.336 577.6 102.12L575.785 102.699C576.191 104.727 577.967 105.905 580.304 105.905Z" fill="white"/>
<line opacity="0.12" x1="0.804698" y1="72.4228" x2="602.719" y2="72.4228" stroke="white" stroke-width="1.6094" stroke-linecap="round" stroke-dasharray="0.16 8.05"/>
<line opacity="0.12" x1="0.804698" y1="203.589" x2="602.719" y2="203.589" stroke="white" stroke-width="1.6094" stroke-linecap="round" stroke-dasharray="0.16 8.05"/>
<line opacity="0.08" x1="368.149" y1="0.402349" x2="368.149" y2="273.195" stroke="url(#paint0_linear_405_3811)" stroke-width="0.804698" stroke-linecap="round"/>
<line opacity="0.08" x1="501.729" y1="0.402349" x2="501.729" y2="273.195" stroke="url(#paint1_linear_405_3811)" stroke-width="0.804698" stroke-linecap="round"/>
<line opacity="0.08" x1="235.374" y1="0.402349" x2="235.374" y2="273.195" stroke="url(#paint2_linear_405_3811)" stroke-width="0.804698" stroke-linecap="round"/>
<line opacity="0.08" x1="101.794" y1="0.402349" x2="101.794" y2="273.195" stroke="url(#paint3_linear_405_3811)" stroke-width="0.804698" stroke-linecap="round"/>
<path opacity="0.36" d="M551.621 273.112H558.516V271.736H553.895L555.923 269.694C556.951 268.651 558.443 267.217 558.443 265.609C558.443 263.973 557.067 262.828 555.141 262.828C553.504 262.828 552.171 263.668 551.838 265.233L553.2 265.667C553.374 264.74 554.112 264.219 555.068 264.219C556.155 264.219 556.835 264.914 556.835 265.812C556.835 266.985 555.488 268.231 554.185 269.535L551.621 272.113V273.112ZM563.83 273.257C566.249 273.257 567.914 271.316 567.914 268.043C567.914 264.769 566.249 262.828 563.815 262.828C561.396 262.828 559.745 264.769 559.745 268.043C559.745 271.316 561.396 273.257 563.83 273.257ZM563.83 271.838C562.338 271.838 561.338 270.447 561.338 268.043C561.338 265.638 562.338 264.233 563.815 264.233C565.307 264.233 566.321 265.638 566.321 268.043C566.321 270.447 565.322 271.838 563.83 271.838ZM568.871 273.112H575.766V271.736H571.145L573.173 269.694C574.201 268.651 575.693 267.217 575.693 265.609C575.693 263.973 574.317 262.828 572.391 262.828C570.754 262.828 569.422 263.668 569.088 265.233L570.45 265.667C570.624 264.74 571.362 264.219 572.318 264.219C573.405 264.219 574.086 264.914 574.086 265.812C574.086 266.985 572.739 268.231 571.435 269.535L568.871 272.113V273.112ZM576.648 273.112H583.542V271.736H578.922L580.949 269.694C581.978 268.651 583.47 267.217 583.47 265.609C583.47 263.973 582.094 262.828 580.167 262.828C578.531 262.828 577.198 263.668 576.865 265.233L578.226 265.667C578.4 264.74 579.139 264.219 580.095 264.219C581.181 264.219 581.862 264.914 581.862 265.812C581.862 266.985 580.515 268.231 579.211 269.535L576.648 272.113V273.112Z" fill="white"/>
<path opacity="0.36" d="M20.9322 273.112H27.8269V271.736H23.2063L25.2341 269.694C26.2625 268.651 27.7544 267.217 27.7544 265.609C27.7544 263.973 26.3784 262.828 24.452 262.828C22.8152 262.828 21.4826 263.668 21.1495 265.233L22.511 265.667C22.6848 264.74 23.4236 264.219 24.3795 264.219C25.4659 264.219 26.1467 264.914 26.1467 265.812C26.1467 266.985 24.7996 268.231 23.496 269.535L20.9322 272.113V273.112ZM33.1409 273.257C35.5598 273.257 37.2255 271.316 37.2255 268.043C37.2255 264.769 35.5598 262.828 33.1264 262.828C30.7075 262.828 29.0562 264.769 29.0562 268.043C29.0562 271.316 30.7075 273.257 33.1409 273.257ZM33.1409 271.838C31.649 271.838 30.6495 270.447 30.6495 268.043C30.6495 265.638 31.649 264.233 33.1264 264.233C34.6183 264.233 35.6322 265.638 35.6322 268.043C35.6322 270.447 34.6328 271.838 33.1409 271.838ZM40.2537 273.112H41.847V262.973H40.471C39.7468 263.466 38.9356 263.726 38.1245 263.726V265.117C38.8487 265.117 39.5874 264.943 40.2537 264.624V273.112ZM47.3249 273.257C49.541 273.257 50.9605 271.983 50.9605 270.302C50.9605 269.201 50.3522 268.361 49.3817 267.912C50.2363 267.478 50.7288 266.739 50.7288 265.696C50.7288 264.074 49.4541 262.828 47.3249 262.828C45.2102 262.828 43.921 264.074 43.921 265.696C43.921 266.739 44.428 267.478 45.2826 267.912C44.2976 268.361 43.7038 269.201 43.7038 270.302C43.7038 271.983 45.1088 273.257 47.3249 273.257ZM47.3249 267.261C46.282 267.261 45.5143 266.681 45.5143 265.769C45.5143 264.827 46.2965 264.219 47.3249 264.219C48.3533 264.219 49.1355 264.827 49.1355 265.769C49.1355 266.681 48.3823 267.261 47.3249 267.261ZM47.3249 271.867C46.1517 271.867 45.2971 271.215 45.2971 270.186C45.2971 269.158 46.1517 268.521 47.3249 268.521C48.5126 268.521 49.3672 269.158 49.3672 270.186C49.3672 271.215 48.4982 271.867 47.3249 271.867Z" fill="white"/>
<path opacity="0.36" d="M152.58 273.112H159.474V271.736H154.854L156.882 269.694C157.91 268.651 159.402 267.217 159.402 265.609C159.402 263.973 158.026 262.828 156.099 262.828C154.463 262.828 153.13 263.668 152.797 265.233L154.159 265.667C154.332 264.74 155.071 264.219 156.027 264.219C157.113 264.219 157.794 264.914 157.794 265.812C157.794 266.985 156.447 268.231 155.144 269.535L152.58 272.113V273.112ZM164.788 273.257C167.207 273.257 168.873 271.316 168.873 268.043C168.873 264.769 167.207 262.828 164.774 262.828C162.355 262.828 160.704 264.769 160.704 268.043C160.704 271.316 162.355 273.257 164.788 273.257ZM164.788 271.838C163.296 271.838 162.297 270.447 162.297 268.043C162.297 265.638 163.296 264.233 164.774 264.233C166.266 264.233 167.28 265.638 167.28 268.043C167.28 270.447 166.28 271.838 164.788 271.838ZM171.901 273.112H173.495V262.973H172.119C171.394 263.466 170.583 263.726 169.772 263.726V265.117C170.496 265.117 171.235 264.943 171.901 264.624V273.112ZM178.799 262.828C176.756 262.828 175.12 264.248 175.12 266.334C175.12 268.332 176.582 269.824 178.48 269.824C178.9 269.824 179.306 269.752 179.711 269.593L178.19 273.112H179.769L182.043 268.072C182.246 267.594 182.463 267.029 182.463 266.305C182.463 264.233 180.812 262.828 178.799 262.828ZM178.784 268.448C177.669 268.448 176.713 267.623 176.713 266.319C176.713 265.059 177.669 264.219 178.784 264.219C179.914 264.219 180.87 265.059 180.87 266.319C180.87 267.623 179.914 268.448 178.784 268.448Z" fill="white"/>
<path opacity="0.36" d="M283.807 273.112H290.702V271.736H286.081L288.109 269.694C289.138 268.651 290.63 267.217 290.63 265.609C290.63 263.973 289.254 262.828 287.327 262.828C285.69 262.828 284.358 263.668 284.025 265.233L285.386 265.667C285.56 264.74 286.299 264.219 287.255 264.219C288.341 264.219 289.022 264.914 289.022 265.812C289.022 266.985 287.675 268.231 286.371 269.535L283.807 272.113V273.112ZM296.016 273.257C298.435 273.257 300.101 271.316 300.101 268.043C300.101 264.769 298.435 262.828 296.002 262.828C293.583 262.828 291.931 264.769 291.931 268.043C291.931 271.316 293.583 273.257 296.016 273.257ZM296.016 271.838C294.524 271.838 293.525 270.447 293.525 268.043C293.525 265.638 294.524 264.233 296.002 264.233C297.493 264.233 298.507 265.638 298.507 268.043C298.507 270.447 297.508 271.838 296.016 271.838ZM301.058 273.112H307.952V271.736H303.332L305.36 269.694C306.388 268.651 307.88 267.217 307.88 265.609C307.88 263.973 306.504 262.828 304.577 262.828C302.941 262.828 301.608 263.668 301.275 265.233L302.636 265.667C302.81 264.74 303.549 264.219 304.505 264.219C305.591 264.219 306.272 264.914 306.272 265.812C306.272 266.985 304.925 268.231 303.621 269.535L301.058 272.113V273.112ZM313.266 273.257C315.685 273.257 317.351 271.316 317.351 268.043C317.351 264.769 315.685 262.828 313.252 262.828C310.833 262.828 309.182 264.769 309.182 268.043C309.182 271.316 310.833 273.257 313.266 273.257ZM313.266 271.838C311.774 271.838 310.775 270.447 310.775 268.043C310.775 265.638 311.774 264.233 313.252 264.233C314.744 264.233 315.758 265.638 315.758 268.043C315.758 270.447 314.758 271.838 313.266 271.838Z" fill="white"/>
<path opacity="0.36" d="M420.756 273.112H427.651V271.736H423.03L425.058 269.694C426.087 268.651 427.578 267.217 427.578 265.609C427.578 263.973 426.202 262.828 424.276 262.828C422.639 262.828 421.307 263.668 420.974 265.233L422.335 265.667C422.509 264.74 423.248 264.219 424.204 264.219C425.29 264.219 425.971 264.914 425.971 265.812C425.971 266.985 424.624 268.231 423.32 269.535L420.756 272.113V273.112ZM432.965 273.257C435.384 273.257 437.05 271.316 437.05 268.043C437.05 264.769 435.384 262.828 432.95 262.828C430.532 262.828 428.88 264.769 428.88 268.043C428.88 271.316 430.532 273.257 432.965 273.257ZM432.965 271.838C431.473 271.838 430.474 270.447 430.474 268.043C430.474 265.638 431.473 264.233 432.95 264.233C434.442 264.233 435.456 265.638 435.456 268.043C435.456 270.447 434.457 271.838 432.965 271.838ZM438.006 273.112H444.901V271.736H440.281L442.308 269.694C443.337 268.651 444.829 267.217 444.829 265.609C444.829 263.973 443.453 262.828 441.526 262.828C439.889 262.828 438.557 263.668 438.224 265.233L439.585 265.667C439.759 264.74 440.498 264.219 441.454 264.219C442.54 264.219 443.221 264.914 443.221 265.812C443.221 266.985 441.874 268.231 440.57 269.535L438.006 272.113V273.112ZM447.854 273.112H449.447V262.973H448.071C447.347 263.466 446.536 263.726 445.725 263.726V265.117C446.449 265.117 447.188 264.943 447.854 264.624V273.112Z" fill="white"/>
<path opacity="0.16" d="M36.2114 165.666C36.2114 165.666 117.002 159.114 169.153 157.808C220.765 156.515 250.086 162.16 301.429 158.93C354.3 155.604 380.952 144.465 433.706 140.595C485.455 136.799 567.312 139.098 567.312 139.098V243.019H36.2114V165.666Z" fill="url(#paint4_linear_405_3811)"/>
<path d="M36.2114 161.745C36.2114 161.745 117.002 154.588 169.153 153.161C220.765 151.749 250.086 157.915 301.429 154.387C354.3 150.754 380.952 138.587 433.706 134.36C485.455 130.213 567.312 132.725 567.312 132.725" stroke="#243968" stroke-width="17.7034" stroke-linecap="round"/>
<path d="M36.2114 161.745C36.2114 161.745 117.002 154.588 169.153 153.161C220.765 151.749 250.086 157.915 301.429 154.387C354.3 150.754 380.952 138.587 433.706 134.36C485.455 130.213 567.312 132.725 567.312 132.725" stroke="url(#paint5_linear_405_3811)" stroke-width="17.7034" stroke-linecap="round"/>
<circle cx="301.762" cy="154.502" r="4.82819" fill="white"/>
<circle cx="168.986" cy="152.893" r="4.82819" fill="white"/>
<circle cx="36.2115" cy="161.744" r="4.82819" fill="white"/>
<circle cx="567.312" cy="132.775" r="4.82819" fill="white"/>
<circle cx="435.341" cy="134.385" r="4.82819" fill="white"/>
<defs>
<linearGradient id="paint0_linear_405_3811" x1="367.747" y1="0" x2="367.747" y2="273.597" gradientUnits="userSpaceOnUse">
<stop stop-color="white" stop-opacity="0"/>
<stop offset="0.239583" stop-color="white"/>
<stop offset="0.776042" stop-color="white"/>
<stop offset="1" stop-color="white" stop-opacity="0"/>
</linearGradient>
<linearGradient id="paint1_linear_405_3811" x1="501.327" y1="0" x2="501.327" y2="273.597" gradientUnits="userSpaceOnUse">
<stop stop-color="white" stop-opacity="0"/>
<stop offset="0.239583" stop-color="white"/>
<stop offset="0.776042" stop-color="white"/>
<stop offset="1" stop-color="white" stop-opacity="0"/>
</linearGradient>
<linearGradient id="paint2_linear_405_3811" x1="234.972" y1="0" x2="234.972" y2="273.597" gradientUnits="userSpaceOnUse">
<stop stop-color="white" stop-opacity="0"/>
<stop offset="0.239583" stop-color="white"/>
<stop offset="0.776042" stop-color="white"/>
<stop offset="1" stop-color="white" stop-opacity="0"/>
</linearGradient>
<linearGradient id="paint3_linear_405_3811" x1="101.392" y1="0" x2="101.392" y2="273.597" gradientUnits="userSpaceOnUse">
<stop stop-color="white" stop-opacity="0"/>
<stop offset="0.239583" stop-color="white"/>
<stop offset="0.776042" stop-color="white"/>
<stop offset="1" stop-color="white" stop-opacity="0"/>
</linearGradient>
<linearGradient id="paint4_linear_405_3811" x1="301.762" y1="138.408" x2="301.762" y2="243.019" gradientUnits="userSpaceOnUse">
<stop stop-color="#4969DB"/>
<stop offset="1" stop-color="#4969DB" stop-opacity="0"/>
</linearGradient>
<linearGradient id="paint5_linear_405_3811" x1="567.312" y1="104.611" x2="166.573" y2="104.611" gradientUnits="userSpaceOnUse">
<stop stop-color="#355EE7"/>
<stop offset="1" stop-color="#355EE7" stop-opacity="0"/>
</linearGradient>
</defs>
</svg>
