<svg width="750" height="410" viewBox="0 0 750 410" fill="none" xmlns="http://www.w3.org/2000/svg">
<path d="M21.2436 159.96C24.5796 159.96 27.3156 162.288 27.3156 165.72C27.3156 166.92 26.9556 167.856 26.6196 168.648L22.8516 177H20.2356L22.7556 171.168C22.0836 171.432 21.4116 171.552 20.7156 171.552C17.5716 171.552 15.1476 169.08 15.1476 165.768C15.1476 162.312 17.8596 159.96 21.2436 159.96ZM21.2196 169.272C23.0916 169.272 24.6756 167.904 24.6756 165.744C24.6756 163.656 23.0916 162.264 21.2196 162.264C19.3716 162.264 17.7876 163.656 17.7876 165.744C17.7876 167.904 19.3716 169.272 21.2196 169.272ZM28.5437 177V175.344L32.7917 171.072C34.9517 168.912 37.1837 166.848 37.1837 164.904C37.1837 163.416 36.0557 162.264 34.2557 162.264C32.6717 162.264 31.4477 163.128 31.1597 164.664L28.9037 163.944C29.4557 161.352 31.6637 159.96 34.3757 159.96C37.5677 159.96 39.8477 161.856 39.8477 164.568C39.8477 167.232 37.3757 169.608 35.6717 171.336L32.3117 174.72H39.9677V177H28.5437ZM43.6607 179.856L42.6287 178.824C43.3967 178.2 43.8287 177.672 43.9487 177C43.3007 176.784 42.8447 176.16 42.8447 175.44C42.8447 174.528 43.5887 173.784 44.5247 173.784C45.4367 173.784 46.2527 174.432 46.2527 175.608C46.2527 176.616 45.6287 178.08 43.6607 179.856ZM54.8662 177.24C51.1942 177.24 48.8662 175.128 48.8662 172.344C48.8662 170.52 49.8502 169.128 51.4822 168.384C50.0662 167.664 49.2262 166.44 49.2262 164.712C49.2262 162.024 51.3622 159.96 54.8662 159.96C58.3942 159.96 60.5062 162.024 60.5062 164.712C60.5062 166.44 59.6902 167.664 58.2742 168.384C59.8822 169.128 60.8902 170.52 60.8902 172.344C60.8902 175.128 58.5382 177.24 54.8662 177.24ZM54.8662 167.304C56.6182 167.304 57.8662 166.344 57.8662 164.832C57.8662 163.272 56.5702 162.264 54.8662 162.264C53.1622 162.264 51.8662 163.272 51.8662 164.832C51.8662 166.344 53.1382 167.304 54.8662 167.304ZM54.8662 174.936C56.8102 174.936 58.2502 173.856 58.2502 172.152C58.2502 170.448 56.8342 169.392 54.8662 169.392C52.9222 169.392 51.5062 170.448 51.5062 172.152C51.5062 173.856 52.9222 174.936 54.8662 174.936ZM69.3043 165.648C72.4243 165.648 74.8723 168.12 74.8723 171.432C74.8723 174.888 72.1363 177.24 68.7523 177.24C65.4163 177.24 62.7043 174.912 62.7043 171.48C62.7043 170.28 63.0403 169.344 63.4003 168.552L67.1443 160.2H69.7603L67.2403 166.032C67.8883 165.768 68.6083 165.648 69.3043 165.648ZM68.7763 174.936C70.6483 174.936 72.2323 173.544 72.2323 171.456C72.2323 169.296 70.6483 167.928 68.7763 167.928C66.9043 167.928 65.3443 169.296 65.3443 171.456C65.3443 173.544 66.9043 174.936 68.7763 174.936Z" fill="#181818"/>
<path d="M679.114 112V97.936C678.01 98.464 676.786 98.752 675.586 98.752V96.448C676.93 96.448 678.274 96.016 679.474 95.2H681.754V112H679.114ZM690.543 94.96C693.879 94.96 696.615 97.288 696.615 100.72C696.615 101.92 696.255 102.856 695.919 103.648L692.151 112H689.535L692.055 106.168C691.383 106.432 690.711 106.552 690.015 106.552C686.871 106.552 684.447 104.08 684.447 100.768C684.447 97.312 687.159 94.96 690.543 94.96ZM690.519 104.272C692.391 104.272 693.975 102.904 693.975 100.744C693.975 98.656 692.391 97.264 690.519 97.264C688.671 97.264 687.087 98.656 687.087 100.744C687.087 102.904 688.671 104.272 690.519 104.272ZM706.201 112V108.52H697.465V106.36L706.297 95.2H708.841V106.24H711.145V108.52H708.841V112H706.201ZM700.321 106.24H706.201V98.896L700.321 106.24ZM714.343 114.856L713.311 113.824C714.079 113.2 714.511 112.672 714.631 112C713.983 111.784 713.527 111.16 713.527 110.44C713.527 109.528 714.271 108.784 715.207 108.784C716.119 108.784 716.935 109.432 716.935 110.608C716.935 111.616 716.311 113.08 714.343 114.856ZM724.756 112.24C721.852 112.24 719.644 110.776 719.14 108.256L721.396 107.536C721.684 109.048 722.932 109.936 724.66 109.936C726.34 109.936 728.02 109.096 728.02 107.152C728.02 105.256 726.412 104.392 724.516 104.392H722.74V102.304H724.516C726.292 102.304 727.78 101.56 727.78 99.88C727.78 98.104 726.148 97.264 724.54 97.264C722.908 97.264 721.684 98.176 721.396 99.664L719.14 98.944C719.692 96.4 721.852 94.96 724.684 94.96C727.972 94.96 730.396 96.856 730.396 99.832C730.396 101.584 729.508 102.712 728.14 103.384C729.676 104.128 730.636 105.376 730.636 107.272C730.636 110.392 728.044 112.24 724.756 112.24Z" fill="#181818"/>
<line opacity="0.12" x1="1" y1="90" x2="749" y2="90" stroke="#181818" stroke-width="2" stroke-linecap="round" stroke-dasharray="0.2 10"/>
<line opacity="0.12" x1="1" y1="253" x2="749" y2="253" stroke="#181818" stroke-width="2" stroke-linecap="round" stroke-dasharray="0.2 10"/>
<line opacity="0.08" x1="597.5" y1="0.5" x2="597.5" y2="339.5" stroke="url(#paint0_linear_773_11800)" stroke-linecap="round"/>
<line opacity="0.08" x1="375.5" y1="0.5" x2="375.5" y2="339.5" stroke="url(#paint1_linear_773_11800)" stroke-linecap="round"/>
<line opacity="0.08" x1="154.5" y1="0.5" x2="154.5" y2="339.5" stroke="url(#paint2_linear_773_11800)" stroke-linecap="round"/>
<path opacity="0.36" d="M687.613 339H696.181V337.29H690.439L692.959 334.752C694.237 333.456 696.091 331.674 696.091 329.676C696.091 327.642 694.381 326.22 691.987 326.22C689.953 326.22 688.297 327.264 687.883 329.208L689.575 329.748C689.791 328.596 690.709 327.948 691.897 327.948C693.247 327.948 694.093 328.812 694.093 329.928C694.093 331.386 692.419 332.934 690.799 334.554L687.613 337.758V339ZM702.785 339.18C705.791 339.18 707.861 336.768 707.861 332.7C707.861 328.632 705.791 326.22 702.767 326.22C699.761 326.22 697.709 328.632 697.709 332.7C697.709 336.768 699.761 339.18 702.785 339.18ZM702.785 337.416C700.931 337.416 699.689 335.688 699.689 332.7C699.689 329.712 700.931 327.966 702.767 327.966C704.621 327.966 705.881 329.712 705.881 332.7C705.881 335.688 704.639 337.416 702.785 337.416ZM709.05 339H717.618V337.29H711.876L714.396 334.752C715.674 333.456 717.528 331.674 717.528 329.676C717.528 327.642 715.818 326.22 713.424 326.22C711.39 326.22 709.734 327.264 709.32 329.208L711.012 329.748C711.228 328.596 712.146 327.948 713.334 327.948C714.684 327.948 715.53 328.812 715.53 329.928C715.53 331.386 713.856 332.934 712.236 334.554L709.05 337.758V339ZM721.288 339H723.268V326.4H721.558C720.658 327.012 719.65 327.336 718.642 327.336V329.064C719.542 329.064 720.46 328.848 721.288 328.452V339Z" fill="#181818"/>
<path opacity="0.36" d="M25.6296 339H34.1976V337.29H28.4556L30.9756 334.752C32.2536 333.456 34.1076 331.674 34.1076 329.676C34.1076 327.642 32.3976 326.22 30.0036 326.22C27.9696 326.22 26.3136 327.264 25.8996 329.208L27.5916 329.748C27.8076 328.596 28.7256 327.948 29.9136 327.948C31.2636 327.948 32.1096 328.812 32.1096 329.928C32.1096 331.386 30.4356 332.934 28.8156 334.554L25.6296 337.758V339ZM40.8014 339.18C43.8074 339.18 45.8774 336.768 45.8774 332.7C45.8774 328.632 43.8074 326.22 40.7834 326.22C37.7774 326.22 35.7254 328.632 35.7254 332.7C35.7254 336.768 37.7774 339.18 40.8014 339.18ZM40.8014 337.416C38.9474 337.416 37.7054 335.688 37.7054 332.7C37.7054 329.712 38.9474 327.966 40.7834 327.966C42.6374 327.966 43.8974 329.712 43.8974 332.7C43.8974 335.688 42.6554 337.416 40.8014 337.416ZM49.6405 339H51.6205V326.4H49.9105C49.0105 327.012 48.0025 327.336 46.9945 327.336V329.064C47.8945 329.064 48.8125 328.848 49.6405 328.452V339ZM58.4279 339.18C61.1819 339.18 62.9459 337.596 62.9459 335.508C62.9459 334.14 62.1899 333.096 60.9839 332.538C62.0459 331.998 62.6579 331.08 62.6579 329.784C62.6579 327.768 61.0739 326.22 58.4279 326.22C55.7999 326.22 54.1979 327.768 54.1979 329.784C54.1979 331.08 54.8279 331.998 55.8899 332.538C54.6659 333.096 53.9279 334.14 53.9279 335.508C53.9279 337.596 55.6739 339.18 58.4279 339.18ZM58.4279 331.728C57.1319 331.728 56.1779 331.008 56.1779 329.874C56.1779 328.704 57.1499 327.948 58.4279 327.948C59.7059 327.948 60.6779 328.704 60.6779 329.874C60.6779 331.008 59.7419 331.728 58.4279 331.728ZM58.4279 337.452C56.9699 337.452 55.9079 336.642 55.9079 335.364C55.9079 334.086 56.9699 333.294 58.4279 333.294C59.9039 333.294 60.9659 334.086 60.9659 335.364C60.9659 336.642 59.8859 337.452 58.4279 337.452Z" fill="#181818"/>
<path opacity="0.36" d="M244.849 339H253.417V337.29H247.675L250.195 334.752C251.473 333.456 253.327 331.674 253.327 329.676C253.327 327.642 251.617 326.22 249.223 326.22C247.189 326.22 245.533 327.264 245.119 329.208L246.811 329.748C247.027 328.596 247.945 327.948 249.133 327.948C250.483 327.948 251.329 328.812 251.329 329.928C251.329 331.386 249.655 332.934 248.035 334.554L244.849 337.758V339ZM260.021 339.18C263.027 339.18 265.097 336.768 265.097 332.7C265.097 328.632 263.027 326.22 260.003 326.22C256.997 326.22 254.945 328.632 254.945 332.7C254.945 336.768 256.997 339.18 260.021 339.18ZM260.021 337.416C258.167 337.416 256.925 335.688 256.925 332.7C256.925 329.712 258.167 327.966 260.003 327.966C261.857 327.966 263.117 329.712 263.117 332.7C263.117 335.688 261.875 337.416 260.021 337.416ZM268.86 339H270.84V326.4H269.13C268.23 327.012 267.222 327.336 266.214 327.336V329.064C267.114 329.064 268.032 328.848 268.86 328.452V339ZM277.432 326.22C274.894 326.22 272.86 327.984 272.86 330.576C272.86 333.06 274.678 334.914 277.036 334.914C277.558 334.914 278.062 334.824 278.566 334.626L276.676 339H278.638L281.464 332.736C281.716 332.142 281.986 331.44 281.986 330.54C281.986 327.966 279.934 326.22 277.432 326.22ZM277.414 333.204C276.028 333.204 274.84 332.178 274.84 330.558C274.84 328.992 276.028 327.948 277.414 327.948C278.818 327.948 280.006 328.992 280.006 330.558C280.006 332.178 278.818 333.204 277.414 333.204Z" fill="#181818"/>
<path opacity="0.36" d="M463.941 339H472.509V337.29H466.767L469.287 334.752C470.565 333.456 472.419 331.674 472.419 329.676C472.419 327.642 470.709 326.22 468.315 326.22C466.281 326.22 464.625 327.264 464.211 329.208L465.903 329.748C466.119 328.596 467.037 327.948 468.225 327.948C469.575 327.948 470.421 328.812 470.421 329.928C470.421 331.386 468.747 332.934 467.127 334.554L463.941 337.758V339ZM479.113 339.18C482.119 339.18 484.189 336.768 484.189 332.7C484.189 328.632 482.119 326.22 479.095 326.22C476.089 326.22 474.037 328.632 474.037 332.7C474.037 336.768 476.089 339.18 479.113 339.18ZM479.113 337.416C477.259 337.416 476.017 335.688 476.017 332.7C476.017 329.712 477.259 327.966 479.095 327.966C480.949 327.966 482.209 329.712 482.209 332.7C482.209 335.688 480.967 337.416 479.113 337.416ZM485.378 339H493.946V337.29H488.204L490.724 334.752C492.002 333.456 493.856 331.674 493.856 329.676C493.856 327.642 492.146 326.22 489.752 326.22C487.718 326.22 486.062 327.264 485.648 329.208L487.34 329.748C487.556 328.596 488.474 327.948 489.662 327.948C491.012 327.948 491.858 328.812 491.858 329.928C491.858 331.386 490.184 332.934 488.564 334.554L485.378 337.758V339ZM500.55 339.18C503.556 339.18 505.626 336.768 505.626 332.7C505.626 328.632 503.556 326.22 500.532 326.22C497.526 326.22 495.474 328.632 495.474 332.7C495.474 336.768 497.526 339.18 500.55 339.18ZM500.55 337.416C498.696 337.416 497.454 335.688 497.454 332.7C497.454 329.712 498.696 327.966 500.532 327.966C502.386 327.966 503.646 329.712 503.646 332.7C503.646 335.688 502.404 337.416 500.55 337.416Z" fill="#181818"/>
<path opacity="0.16" d="M45 209.873L705 146V302H45V209.873Z" fill="url(#paint3_linear_773_11800)"/>
<path d="M45 210C45 210 178.664 200.336 264.116 192C350.517 183.571 398.657 176.004 485 167C570.84 158.048 705 146 705 146" stroke="#8CAEFE" stroke-width="22" stroke-linecap="round"/>
<path d="M45 210C45 210 178.664 200.336 264.116 192C350.517 183.571 398.657 176.004 485 167C570.84 158.048 705 146 705 146" stroke="url(#paint4_linear_773_11800)" stroke-width="22" stroke-linecap="round"/>
<circle cx="264" cy="192" r="6" fill="white"/>
<circle cx="45" cy="210" r="6" fill="white"/>
<circle cx="705" cy="146" r="6" fill="white"/>
<circle cx="485" cy="167" r="6" fill="white"/>
<defs>
<linearGradient id="paint0_linear_773_11800" x1="597" y1="0" x2="597" y2="340" gradientUnits="userSpaceOnUse">
<stop stop-color="#181818" stop-opacity="0"/>
<stop offset="0.239583" stop-color="#181818"/>
<stop offset="0.776042" stop-color="#181818"/>
<stop offset="1" stop-color="#181818" stop-opacity="0"/>
</linearGradient>
<linearGradient id="paint1_linear_773_11800" x1="375" y1="0" x2="375" y2="340" gradientUnits="userSpaceOnUse">
<stop stop-color="#181818" stop-opacity="0"/>
<stop offset="0.239583" stop-color="#181818"/>
<stop offset="0.776042" stop-color="#181818"/>
<stop offset="1" stop-color="#181818" stop-opacity="0"/>
</linearGradient>
<linearGradient id="paint2_linear_773_11800" x1="154" y1="0" x2="154" y2="340" gradientUnits="userSpaceOnUse">
<stop stop-color="#181818" stop-opacity="0"/>
<stop offset="0.239583" stop-color="#181818"/>
<stop offset="0.776042" stop-color="#181818"/>
<stop offset="1" stop-color="#181818" stop-opacity="0"/>
</linearGradient>
<linearGradient id="paint3_linear_773_11800" x1="375" y1="172" x2="375" y2="302" gradientUnits="userSpaceOnUse">
<stop stop-color="#4969DB"/>
<stop offset="1" stop-color="#4969DB" stop-opacity="0"/>
</linearGradient>
<linearGradient id="paint4_linear_773_11800" x1="705" y1="130" x2="207" y2="130" gradientUnits="userSpaceOnUse">
<stop stop-color="#355EE7"/>
<stop offset="1" stop-color="#355EE7" stop-opacity="0"/>
</linearGradient>
</defs>
</svg>
