<svg width="604" height="330" viewBox="0 0 604 330" fill="none" xmlns="http://www.w3.org/2000/svg">
<path d="M17.1431 129.104C14.4178 129.104 12.2337 130.998 12.2337 133.782C12.2337 136.449 14.1859 138.44 16.7178 138.44C17.2783 138.44 17.8195 138.343 18.3607 138.13L16.3313 142.827H18.438L21.4725 136.101C21.7431 135.463 22.033 134.709 22.033 133.743C22.033 130.979 19.8296 129.104 17.1431 129.104ZM17.1237 136.604C15.6355 136.604 14.3598 135.502 14.3598 133.762C14.3598 132.081 15.6355 130.96 17.1237 130.96C18.6313 130.96 19.907 132.081 19.907 133.762C19.907 135.502 18.6313 136.604 17.1237 136.604ZM23.0221 142.827H32.2222V140.991H26.0566L28.7625 138.266C30.1348 136.874 32.1256 134.961 32.1256 132.815C32.1256 130.631 30.2894 129.104 27.7188 129.104C25.5347 129.104 23.7565 130.225 23.312 132.313L25.1288 132.893C25.3608 131.656 26.3465 130.96 27.6221 130.96C29.0717 130.96 29.9802 131.888 29.9802 133.086C29.9802 134.651 28.1827 136.314 26.4431 138.053L23.0221 141.494V142.827ZM35.1963 145.127C36.7812 143.697 37.2837 142.518 37.2837 141.706C37.2837 140.759 36.6266 140.237 35.8921 140.237C35.1383 140.237 34.5392 140.836 34.5392 141.571C34.5392 142.151 34.9064 142.653 35.4282 142.827C35.3316 143.368 34.9837 143.794 34.3652 144.296L35.1963 145.127ZM44.2205 143.02C47.1777 143.02 49.0718 141.32 49.0718 139.078C49.0718 137.609 48.2601 136.488 46.9651 135.888C48.1054 135.309 48.7626 134.323 48.7626 132.931C48.7626 130.766 47.0617 129.104 44.2205 129.104C41.3986 129.104 39.6784 130.766 39.6784 132.931C39.6784 134.323 40.3549 135.309 41.4953 135.888C40.181 136.488 39.3885 137.609 39.3885 139.078C39.3885 141.32 41.2633 143.02 44.2205 143.02ZM44.2205 135.019C42.8289 135.019 41.8045 134.246 41.8045 133.028C41.8045 131.772 42.8482 130.96 44.2205 130.96C45.5928 130.96 46.6365 131.772 46.6365 133.028C46.6365 134.246 45.6315 135.019 44.2205 135.019ZM44.2205 141.165C42.655 141.165 41.5146 140.295 41.5146 138.923C41.5146 137.551 42.655 136.7 44.2205 136.7C45.8054 136.7 46.9458 137.551 46.9458 138.923C46.9458 140.295 45.7861 141.165 44.2205 141.165ZM55.848 133.685C55.2875 133.685 54.7076 133.782 54.1858 133.994L56.2152 129.298H54.1085L51.0933 136.024C50.8034 136.662 50.5328 137.415 50.5328 138.382C50.5328 141.146 52.7168 143.02 55.4034 143.02C58.1287 143.02 60.3321 141.126 60.3321 138.343C60.3321 135.676 58.3606 133.685 55.848 133.685ZM55.4228 141.165C53.9152 141.165 52.6589 140.044 52.6589 138.362C52.6589 136.623 53.9152 135.521 55.4228 135.521C56.9303 135.521 58.206 136.623 58.206 138.362C58.206 140.044 56.9303 141.165 55.4228 141.165Z" fill="white"/>
<path d="M546.961 90.4805H549.087V76.9509H547.251C546.285 77.608 545.202 77.9559 544.12 77.9559V79.8114C545.087 79.8114 546.072 79.5795 546.961 79.1543V90.4805ZM556.165 76.7576C553.44 76.7576 551.256 78.6517 551.256 81.435C551.256 84.1022 553.208 86.093 555.74 86.093C556.3 86.093 556.842 85.9964 557.383 85.7838L555.353 90.4805H557.46L560.495 83.7543C560.765 83.1165 561.055 82.3627 561.055 81.3963C561.055 78.6324 558.852 76.7576 556.165 76.7576ZM556.146 84.2569C554.658 84.2569 553.382 83.1552 553.382 81.4156C553.382 79.7341 554.658 78.6131 556.146 78.6131C557.653 78.6131 558.929 79.7341 558.929 81.4156C558.929 83.1552 557.653 84.2569 556.146 84.2569ZM568.775 90.4805H570.901V87.6779H572.757V85.8417H570.901V76.9509H568.853L561.74 85.9384V87.6779H568.775V90.4805ZM564.04 85.8417L568.775 79.9274V85.8417H564.04ZM575.332 92.7805C576.917 91.3502 577.419 90.1712 577.419 89.3594C577.419 88.4124 576.762 87.8905 576.028 87.8905C575.274 87.8905 574.675 88.4897 574.675 89.2241C574.675 89.804 575.042 90.3065 575.564 90.4805C575.467 91.0217 575.119 91.4469 574.501 91.9494L575.332 92.7805ZM583.718 90.6737C586.366 90.6737 588.454 89.1855 588.454 86.6729C588.454 85.1459 587.681 84.1409 586.444 83.5417C587.545 83.0005 588.26 82.0921 588.26 80.6812C588.26 78.2845 586.308 76.7576 583.66 76.7576C581.38 76.7576 579.64 77.9173 579.196 79.966L581.012 80.5459C581.244 79.3475 582.23 78.6131 583.544 78.6131C584.839 78.6131 586.154 79.2896 586.154 80.7198C586.154 82.0728 584.955 82.672 583.525 82.672H582.095V84.3535H583.525C585.052 84.3535 586.347 85.0493 586.347 86.5762C586.347 88.1418 584.994 88.8183 583.641 88.8183C582.249 88.8183 581.244 88.1031 581.012 86.8855L579.196 87.4653C579.601 89.4947 581.38 90.6737 583.718 90.6737Z" fill="white"/>
<line opacity="0.12" x1="0.805333" y1="72.4798" x2="603.195" y2="72.4798" stroke="white" stroke-width="1.61067" stroke-linecap="round" stroke-dasharray="0.16 8.05"/>
<line opacity="0.12" x1="0.805333" y1="203.749" x2="603.195" y2="203.749" stroke="white" stroke-width="1.61067" stroke-linecap="round" stroke-dasharray="0.16 8.05"/>
<line opacity="0.08" x1="481.187" y1="0.402667" x2="481.187" y2="273.411" stroke="url(#paint0_linear_405_3833)" stroke-width="0.805333" stroke-linecap="round"/>
<line opacity="0.08" x1="302.403" y1="0.402667" x2="302.403" y2="273.411" stroke="url(#paint1_linear_405_3833)" stroke-width="0.805333" stroke-linecap="round"/>
<line opacity="0.08" x1="124.424" y1="0.402667" x2="124.424" y2="273.411" stroke="url(#paint2_linear_405_3833)" stroke-width="0.805333" stroke-linecap="round"/>
<path opacity="0.36" d="M553.956 273.317H560.857V271.94H556.232L558.262 269.896C559.291 268.853 560.784 267.418 560.784 265.808C560.784 264.17 559.407 263.025 557.479 263.025C555.841 263.025 554.507 263.866 554.174 265.432L555.537 265.866C555.711 264.939 556.45 264.417 557.407 264.417C558.494 264.417 559.175 265.113 559.175 266.011C559.175 267.186 557.827 268.432 556.522 269.737L553.956 272.317V273.317ZM566.175 273.462C568.596 273.462 570.263 271.52 570.263 268.244C570.263 264.968 568.596 263.025 566.16 263.025C563.739 263.025 562.087 264.968 562.087 268.244C562.087 271.52 563.739 273.462 566.175 273.462ZM566.175 272.042C564.682 272.042 563.682 270.65 563.682 268.244C563.682 265.837 564.682 264.431 566.16 264.431C567.653 264.431 568.668 265.837 568.668 268.244C568.668 270.65 567.668 272.042 566.175 272.042ZM571.22 273.317H578.12V271.94H573.496L575.526 269.896C576.555 268.853 578.048 267.418 578.048 265.808C578.048 264.17 576.671 263.025 574.743 263.025C573.105 263.025 571.771 263.866 571.438 265.432L572.8 265.866C572.974 264.939 573.714 264.417 574.67 264.417C575.758 264.417 576.439 265.113 576.439 266.011C576.439 267.186 575.091 268.432 573.786 269.737L571.22 272.317V273.317ZM581.076 273.317H582.67V263.17H581.293C580.568 263.663 579.757 263.924 578.945 263.924V265.316C579.67 265.316 580.409 265.142 581.076 264.823V273.317Z" fill="white"/>
<path opacity="0.36" d="M20.9363 273.317H27.8364V271.94H23.2122L25.2417 269.896C26.2709 268.853 27.764 267.418 27.764 265.808C27.764 264.17 26.3868 263.025 24.4589 263.025C22.8208 263.025 21.4872 263.866 21.1538 265.432L22.5164 265.866C22.6904 264.939 23.4297 264.417 24.3864 264.417C25.4736 264.417 26.1549 265.113 26.1549 266.011C26.1549 267.186 24.8068 268.432 23.5021 269.737L20.9363 272.317V273.317ZM33.1547 273.462C35.5755 273.462 37.2425 271.52 37.2425 268.244C37.2425 264.968 35.5755 263.025 33.1402 263.025C30.7193 263.025 29.0668 264.968 29.0668 268.244C29.0668 271.52 30.7193 273.462 33.1547 273.462ZM33.1547 272.042C31.6616 272.042 30.6613 270.65 30.6613 268.244C30.6613 265.837 31.6616 264.431 33.1402 264.431C34.6332 264.431 35.648 265.837 35.648 268.244C35.648 270.65 34.6477 272.042 33.1547 272.042ZM40.2731 273.317H41.8677V263.17H40.4905C39.7657 263.663 38.954 263.924 38.1422 263.924V265.316C38.867 265.316 39.6063 265.142 40.2731 264.823V273.317ZM47.3499 273.462C49.5678 273.462 50.9884 272.187 50.9884 270.505C50.9884 269.403 50.3795 268.563 49.4083 268.113C50.2636 267.678 50.7564 266.939 50.7564 265.895C50.7564 264.272 49.4808 263.025 47.3499 263.025C45.2334 263.025 43.9433 264.272 43.9433 265.895C43.9433 266.939 44.4507 267.678 45.3059 268.113C44.3202 268.563 43.7259 269.403 43.7259 270.505C43.7259 272.187 45.132 273.462 47.3499 273.462ZM47.3499 267.461C46.3062 267.461 45.5379 266.881 45.5379 265.968C45.5379 265.026 46.3206 264.417 47.3499 264.417C48.3791 264.417 49.1619 265.026 49.1619 265.968C49.1619 266.881 48.4081 267.461 47.3499 267.461ZM47.3499 272.071C46.1757 272.071 45.3204 271.418 45.3204 270.389C45.3204 269.36 46.1757 268.722 47.3499 268.722C48.5385 268.722 49.3938 269.36 49.3938 270.389C49.3938 271.418 48.524 272.071 47.3499 272.071Z" fill="white"/>
<path opacity="0.36" d="M196.981 273.317H203.882V271.94H199.257L201.287 269.896C202.316 268.853 203.809 267.418 203.809 265.808C203.809 264.17 202.432 263.025 200.504 263.025C198.866 263.025 197.532 263.866 197.199 265.432L198.562 265.866C198.735 264.939 199.475 264.417 200.432 264.417C201.519 264.417 202.2 265.113 202.2 266.011C202.2 267.186 200.852 268.432 199.547 269.737L196.981 272.317V273.317ZM209.2 273.462C211.621 273.462 213.288 271.52 213.288 268.244C213.288 264.968 211.621 263.025 209.185 263.025C206.764 263.025 205.112 264.968 205.112 268.244C205.112 271.52 206.764 273.462 209.2 273.462ZM209.2 272.042C207.707 272.042 206.706 270.65 206.706 268.244C206.706 265.837 207.707 264.431 209.185 264.431C210.678 264.431 211.693 265.837 211.693 268.244C211.693 270.65 210.693 272.042 209.2 272.042ZM216.318 273.317H217.913V263.17H216.536C215.811 263.663 214.999 263.924 214.187 263.924V265.316C214.912 265.316 215.651 265.142 216.318 264.823V273.317ZM223.221 263.025C221.177 263.025 219.539 264.446 219.539 266.533C219.539 268.534 221.003 270.027 222.902 270.027C223.323 270.027 223.728 269.954 224.134 269.795L222.612 273.317H224.192L226.468 268.273C226.671 267.794 226.889 267.229 226.889 266.504C226.889 264.431 225.236 263.025 223.221 263.025ZM223.207 268.65C222.09 268.65 221.134 267.823 221.134 266.519C221.134 265.258 222.09 264.417 223.207 264.417C224.337 264.417 225.294 265.258 225.294 266.519C225.294 267.823 224.337 268.65 223.207 268.65Z" fill="white"/>
<path opacity="0.36" d="M373.41 273.317H380.31V271.94H375.686L377.715 269.896C378.744 268.853 380.237 267.418 380.237 265.808C380.237 264.17 378.86 263.025 376.932 263.025C375.294 263.025 373.961 263.866 373.627 265.432L374.99 265.866C375.164 264.939 375.903 264.417 376.86 264.417C377.947 264.417 378.628 265.113 378.628 266.011C378.628 267.186 377.28 268.432 375.976 269.737L373.41 272.317V273.317ZM385.628 273.462C388.049 273.462 389.716 271.52 389.716 268.244C389.716 264.968 388.049 263.025 385.614 263.025C383.193 263.025 381.54 264.968 381.54 268.244C381.54 271.52 383.193 273.462 385.628 273.462ZM385.628 272.042C384.135 272.042 383.135 270.65 383.135 268.244C383.135 265.837 384.135 264.431 385.614 264.431C387.107 264.431 388.121 265.837 388.121 268.244C388.121 270.65 387.121 272.042 385.628 272.042ZM390.674 273.317H397.574V271.94H392.949L394.979 269.896C396.008 268.853 397.501 267.418 397.501 265.808C397.501 264.17 396.124 263.025 394.196 263.025C392.558 263.025 391.224 263.866 390.891 265.432L392.254 265.866C392.428 264.939 393.167 264.417 394.124 264.417C395.211 264.417 395.892 265.113 395.892 266.011C395.892 267.186 394.544 268.432 393.239 269.737L390.674 272.317V273.317ZM402.892 273.462C405.313 273.462 406.98 271.52 406.98 268.244C406.98 264.968 405.313 263.025 402.877 263.025C400.457 263.025 398.804 264.968 398.804 268.244C398.804 271.52 400.457 273.462 402.892 273.462ZM402.892 272.042C401.399 272.042 400.399 270.65 400.399 268.244C400.399 265.837 401.399 264.431 402.877 264.431C404.37 264.431 405.385 265.837 405.385 268.244C405.385 270.65 404.385 272.042 402.892 272.042Z" fill="white"/>
<path opacity="0.16" d="M36.2402 169.018L567.76 117.579V243.211H36.2402V169.018Z" fill="url(#paint3_linear_405_3833)"/>
<path d="M36.2402 169.12C36.2402 169.12 143.884 161.338 212.702 154.624C282.284 147.836 321.052 141.742 390.587 134.491C459.717 127.282 567.76 117.579 567.76 117.579" stroke="#243968" stroke-width="17.7173" stroke-linecap="round"/>
<path d="M36.2402 169.12C36.2402 169.12 143.884 161.338 212.702 154.624C282.284 147.836 321.052 141.742 390.587 134.491C459.717 127.282 567.76 117.579 567.76 117.579" stroke="url(#paint4_linear_405_3833)" stroke-width="17.7173" stroke-linecap="round"/>
<circle cx="212.608" cy="154.624" r="4.832" fill="white"/>
<circle cx="36.2402" cy="169.12" r="4.832" fill="white"/>
<circle cx="567.76" cy="117.579" r="4.832" fill="white"/>
<circle cx="390.587" cy="134.49" r="4.832" fill="white"/>
<defs>
<linearGradient id="paint0_linear_405_3833" x1="480.784" y1="0" x2="480.784" y2="273.813" gradientUnits="userSpaceOnUse">
<stop stop-color="white" stop-opacity="0"/>
<stop offset="0.239583" stop-color="white"/>
<stop offset="0.776042" stop-color="white"/>
<stop offset="1" stop-color="white" stop-opacity="0"/>
</linearGradient>
<linearGradient id="paint1_linear_405_3833" x1="302" y1="0" x2="302" y2="273.813" gradientUnits="userSpaceOnUse">
<stop stop-color="white" stop-opacity="0"/>
<stop offset="0.239583" stop-color="white"/>
<stop offset="0.776042" stop-color="white"/>
<stop offset="1" stop-color="white" stop-opacity="0"/>
</linearGradient>
<linearGradient id="paint2_linear_405_3833" x1="124.021" y1="0" x2="124.021" y2="273.813" gradientUnits="userSpaceOnUse">
<stop stop-color="white" stop-opacity="0"/>
<stop offset="0.239583" stop-color="white"/>
<stop offset="0.776042" stop-color="white"/>
<stop offset="1" stop-color="white" stop-opacity="0"/>
</linearGradient>
<linearGradient id="paint3_linear_405_3833" x1="302" y1="138.518" x2="302" y2="243.211" gradientUnits="userSpaceOnUse">
<stop stop-color="#4969DB"/>
<stop offset="1" stop-color="#4969DB" stop-opacity="0"/>
</linearGradient>
<linearGradient id="paint4_linear_405_3833" x1="567.76" y1="104.694" x2="166.704" y2="104.694" gradientUnits="userSpaceOnUse">
<stop stop-color="#355EE7"/>
<stop offset="1" stop-color="#355EE7" stop-opacity="0"/>
</linearGradient>
</defs>
</svg>
