<svg width="750" height="410" viewBox="0 0 750 410" fill="none" xmlns="http://www.w3.org/2000/svg">
<path d="M14.508 197.24C17.796 197.24 20.388 195.392 20.388 192.272C20.388 190.376 19.428 189.128 17.892 188.384C19.26 187.712 20.148 186.584 20.148 184.832C20.148 181.856 17.724 179.96 14.436 179.96C11.604 179.96 9.444 181.4 8.892 183.944L11.148 184.664C11.436 183.176 12.66 182.264 14.292 182.264C15.9 182.264 17.532 183.104 17.532 184.88C17.532 186.56 16.044 187.304 14.268 187.304H12.492V189.392H14.268C16.164 189.392 17.772 190.256 17.772 192.152C17.772 194.096 16.092 194.936 14.412 194.936C12.684 194.936 11.436 194.048 11.148 192.536L8.892 193.256C9.396 195.776 11.604 197.24 14.508 197.24ZM30.6937 197H33.3337V193.52H35.6377V191.24H33.3337V180.2H30.7897L21.9577 191.36V193.52H30.6937V197ZM24.8137 191.24L30.6937 183.896V191.24H24.8137ZM47.7724 197.24C51.0604 197.24 53.6524 195.392 53.6524 192.272C53.6524 190.376 52.6924 189.128 51.1564 188.384C52.5244 187.712 53.4124 186.584 53.4124 184.832C53.4124 181.856 50.9884 179.96 47.7004 179.96C44.8684 179.96 42.7084 181.4 42.1564 183.944L44.4124 184.664C44.7004 183.176 45.9244 182.264 47.5564 182.264C49.1644 182.264 50.7964 183.104 50.7964 184.88C50.7964 186.56 49.3084 187.304 47.5324 187.304H45.7564V189.392H47.5324C49.4284 189.392 51.0364 190.256 51.0364 192.152C51.0364 194.096 49.3564 194.936 47.6764 194.936C45.9484 194.936 44.7004 194.048 44.4124 192.536L42.1564 193.256C42.6604 195.776 44.8684 197.24 47.7724 197.24ZM61.6301 179.96C58.2461 179.96 55.5341 182.312 55.5341 185.768C55.5341 189.08 57.9581 191.552 61.1021 191.552C61.7981 191.552 62.4701 191.432 63.1421 191.168L60.6221 197H63.2381L67.0061 188.648C67.3421 187.856 67.7021 186.92 67.7021 185.72C67.7021 182.288 64.9661 179.96 61.6301 179.96ZM61.6061 189.272C59.7581 189.272 58.1741 187.904 58.1741 185.744C58.1741 183.656 59.7581 182.264 61.6061 182.264C63.4781 182.264 65.0621 183.656 65.0621 185.744C65.0621 187.904 63.4781 189.272 61.6061 189.272ZM74.7142 197.24C78.0022 197.24 80.5942 195.392 80.5942 192.272C80.5942 190.376 79.6342 189.128 78.0982 188.384C79.4662 187.712 80.3542 186.584 80.3542 184.832C80.3542 181.856 77.9302 179.96 74.6422 179.96C71.8102 179.96 69.6502 181.4 69.0982 183.944L71.3542 184.664C71.6422 183.176 72.8662 182.264 74.4982 182.264C76.1062 182.264 77.7382 183.104 77.7382 184.88C77.7382 186.56 76.2502 187.304 74.4742 187.304H72.6982V189.392H74.4742C76.3702 189.392 77.9782 190.256 77.9782 192.152C77.9782 194.096 76.2982 194.936 74.6182 194.936C72.8902 194.936 71.6422 194.048 71.3542 192.536L69.0982 193.256C69.6022 195.776 71.8102 197.24 74.7142 197.24Z" fill="#181818"/>
<path d="M671.805 94.24C675.093 94.24 677.685 92.392 677.685 89.272C677.685 87.376 676.725 86.128 675.189 85.384C676.557 84.712 677.445 83.584 677.445 81.832C677.445 78.856 675.021 76.96 671.733 76.96C668.901 76.96 666.741 78.4 666.189 80.944L668.445 81.664C668.733 80.176 669.957 79.264 671.589 79.264C673.197 79.264 674.829 80.104 674.829 81.88C674.829 83.56 673.341 84.304 671.565 84.304H669.789V86.392H671.565C673.461 86.392 675.069 87.256 675.069 89.152C675.069 91.096 673.389 91.936 671.709 91.936C669.981 91.936 668.733 91.048 668.445 89.536L666.189 90.256C666.693 92.776 668.901 94.24 671.805 94.24ZM685.951 94.24C689.623 94.24 691.975 92.128 691.975 89.344C691.975 87.52 690.967 86.128 689.359 85.384C690.775 84.664 691.591 83.44 691.591 81.712C691.591 79.024 689.479 76.96 685.951 76.96C682.447 76.96 680.311 79.024 680.311 81.712C680.311 83.44 681.151 84.664 682.567 85.384C680.935 86.128 679.951 87.52 679.951 89.344C679.951 92.128 682.279 94.24 685.951 94.24ZM685.951 84.304C684.223 84.304 682.951 83.344 682.951 81.832C682.951 80.272 684.247 79.264 685.951 79.264C687.655 79.264 688.951 80.272 688.951 81.832C688.951 83.344 687.703 84.304 685.951 84.304ZM685.951 91.936C684.007 91.936 682.591 90.856 682.591 89.152C682.591 87.448 684.007 86.392 685.951 86.392C687.919 86.392 689.335 87.448 689.335 89.152C689.335 90.856 687.895 91.936 685.951 91.936ZM707.55 94H710.19V90.52H712.494V88.24H710.19V77.2H707.646L698.814 88.36V90.52H707.55V94ZM701.67 88.24L707.55 80.896V88.24H701.67ZM719.243 94.24C722.531 94.24 725.123 92.392 725.123 89.272C725.123 87.376 724.163 86.128 722.627 85.384C723.995 84.712 724.883 83.584 724.883 81.832C724.883 78.856 722.459 76.96 719.171 76.96C716.339 76.96 714.179 78.4 713.627 80.944L715.883 81.664C716.171 80.176 717.395 79.264 719.027 79.264C720.635 79.264 722.267 80.104 722.267 81.88C722.267 83.56 720.779 84.304 719.003 84.304H717.227V86.392H719.003C720.899 86.392 722.507 87.256 722.507 89.152C722.507 91.096 720.827 91.936 719.147 91.936C717.419 91.936 716.171 91.048 715.883 89.536L713.627 90.256C714.131 92.776 716.339 94.24 719.243 94.24ZM733.389 94.24C737.061 94.24 739.413 92.128 739.413 89.344C739.413 87.52 738.405 86.128 736.797 85.384C738.213 84.664 739.029 83.44 739.029 81.712C739.029 79.024 736.917 76.96 733.389 76.96C729.885 76.96 727.749 79.024 727.749 81.712C727.749 83.44 728.589 84.664 730.005 85.384C728.373 86.128 727.389 87.52 727.389 89.344C727.389 92.128 729.717 94.24 733.389 94.24ZM733.389 84.304C731.661 84.304 730.389 83.344 730.389 81.832C730.389 80.272 731.685 79.264 733.389 79.264C735.093 79.264 736.389 80.272 736.389 81.832C736.389 83.344 735.141 84.304 733.389 84.304ZM733.389 91.936C731.445 91.936 730.029 90.856 730.029 89.152C730.029 87.448 731.445 86.392 733.389 86.392C735.357 86.392 736.773 87.448 736.773 89.152C736.773 90.856 735.333 91.936 733.389 91.936Z" fill="#181818"/>
<line opacity="0.12" x1="1" y1="90" x2="749" y2="90" stroke="#181818" stroke-width="2" stroke-linecap="round" stroke-dasharray="0.2 10"/>
<line opacity="0.12" x1="1" y1="253" x2="749" y2="253" stroke="#181818" stroke-width="2" stroke-linecap="round" stroke-dasharray="0.2 10"/>
<line opacity="0.08" x1="457.5" y1="0.5" x2="457.5" y2="339.5" stroke="url(#paint0_linear_773_11778)" stroke-linecap="round"/>
<line opacity="0.08" x1="623.5" y1="0.5" x2="623.5" y2="339.5" stroke="url(#paint1_linear_773_11778)" stroke-linecap="round"/>
<line opacity="0.08" x1="292.5" y1="0.5" x2="292.5" y2="339.5" stroke="url(#paint2_linear_773_11778)" stroke-linecap="round"/>
<line opacity="0.08" x1="126.5" y1="0.5" x2="126.5" y2="339.5" stroke="url(#paint3_linear_773_11778)" stroke-linecap="round"/>
<path opacity="0.36" d="M685.496 339H694.064V337.29H688.322L690.842 334.752C692.12 333.456 693.974 331.674 693.974 329.676C693.974 327.642 692.264 326.22 689.87 326.22C687.836 326.22 686.18 327.264 685.766 329.208L687.458 329.748C687.674 328.596 688.592 327.948 689.78 327.948C691.13 327.948 691.976 328.812 691.976 329.928C691.976 331.386 690.302 332.934 688.682 334.554L685.496 337.758V339ZM700.668 339.18C703.674 339.18 705.744 336.768 705.744 332.7C705.744 328.632 703.674 326.22 700.65 326.22C697.644 326.22 695.592 328.632 695.592 332.7C695.592 336.768 697.644 339.18 700.668 339.18ZM700.668 337.416C698.814 337.416 697.572 335.688 697.572 332.7C697.572 329.712 698.814 327.966 700.65 327.966C702.504 327.966 703.764 329.712 703.764 332.7C703.764 335.688 702.522 337.416 700.668 337.416ZM706.933 339H715.501V337.29H709.759L712.279 334.752C713.557 333.456 715.411 331.674 715.411 329.676C715.411 327.642 713.701 326.22 711.307 326.22C709.273 326.22 707.617 327.264 707.203 329.208L708.895 329.748C709.111 328.596 710.029 327.948 711.217 327.948C712.567 327.948 713.413 328.812 713.413 329.928C713.413 331.386 711.739 332.934 710.119 334.554L706.933 337.758V339ZM716.596 339H725.164V337.29H719.422L721.942 334.752C723.22 333.456 725.074 331.674 725.074 329.676C725.074 327.642 723.364 326.22 720.97 326.22C718.936 326.22 717.28 327.264 716.866 329.208L718.558 329.748C718.774 328.596 719.692 327.948 720.88 327.948C722.23 327.948 723.076 328.812 723.076 329.928C723.076 331.386 721.402 332.934 719.782 334.554L716.596 337.758V339Z" fill="#181818"/>
<path opacity="0.36" d="M25.6296 339H34.1976V337.29H28.4556L30.9756 334.752C32.2536 333.456 34.1076 331.674 34.1076 329.676C34.1076 327.642 32.3976 326.22 30.0036 326.22C27.9696 326.22 26.3136 327.264 25.8996 329.208L27.5916 329.748C27.8076 328.596 28.7256 327.948 29.9136 327.948C31.2636 327.948 32.1096 328.812 32.1096 329.928C32.1096 331.386 30.4356 332.934 28.8156 334.554L25.6296 337.758V339ZM40.8014 339.18C43.8074 339.18 45.8774 336.768 45.8774 332.7C45.8774 328.632 43.8074 326.22 40.7834 326.22C37.7774 326.22 35.7254 328.632 35.7254 332.7C35.7254 336.768 37.7774 339.18 40.8014 339.18ZM40.8014 337.416C38.9474 337.416 37.7054 335.688 37.7054 332.7C37.7054 329.712 38.9474 327.966 40.7834 327.966C42.6374 327.966 43.8974 329.712 43.8974 332.7C43.8974 335.688 42.6554 337.416 40.8014 337.416ZM49.6405 339H51.6205V326.4H49.9105C49.0105 327.012 48.0025 327.336 46.9945 327.336V329.064C47.8945 329.064 48.8125 328.848 49.6405 328.452V339ZM58.4279 339.18C61.1819 339.18 62.9459 337.596 62.9459 335.508C62.9459 334.14 62.1899 333.096 60.9839 332.538C62.0459 331.998 62.6579 331.08 62.6579 329.784C62.6579 327.768 61.0739 326.22 58.4279 326.22C55.7999 326.22 54.1979 327.768 54.1979 329.784C54.1979 331.08 54.8279 331.998 55.8899 332.538C54.6659 333.096 53.9279 334.14 53.9279 335.508C53.9279 337.596 55.6739 339.18 58.4279 339.18ZM58.4279 331.728C57.1319 331.728 56.1779 331.008 56.1779 329.874C56.1779 328.704 57.1499 327.948 58.4279 327.948C59.7059 327.948 60.6779 328.704 60.6779 329.874C60.6779 331.008 59.7419 331.728 58.4279 331.728ZM58.4279 337.452C56.9699 337.452 55.9079 336.642 55.9079 335.364C55.9079 334.086 56.9699 333.294 58.4279 333.294C59.9039 333.294 60.9659 334.086 60.9659 335.364C60.9659 336.642 59.8859 337.452 58.4279 337.452Z" fill="#181818"/>
<path opacity="0.36" d="M189.849 339H198.417V337.29H192.675L195.195 334.752C196.473 333.456 198.327 331.674 198.327 329.676C198.327 327.642 196.617 326.22 194.223 326.22C192.189 326.22 190.533 327.264 190.119 329.208L191.811 329.748C192.027 328.596 192.945 327.948 194.133 327.948C195.483 327.948 196.329 328.812 196.329 329.928C196.329 331.386 194.655 332.934 193.035 334.554L189.849 337.758V339ZM205.021 339.18C208.027 339.18 210.097 336.768 210.097 332.7C210.097 328.632 208.027 326.22 205.003 326.22C201.997 326.22 199.945 328.632 199.945 332.7C199.945 336.768 201.997 339.18 205.021 339.18ZM205.021 337.416C203.167 337.416 201.925 335.688 201.925 332.7C201.925 329.712 203.167 327.966 205.003 327.966C206.857 327.966 208.117 329.712 208.117 332.7C208.117 335.688 206.875 337.416 205.021 337.416ZM213.86 339H215.84V326.4H214.13C213.23 327.012 212.222 327.336 211.214 327.336V329.064C212.114 329.064 213.032 328.848 213.86 328.452V339ZM222.432 326.22C219.894 326.22 217.86 327.984 217.86 330.576C217.86 333.06 219.678 334.914 222.036 334.914C222.558 334.914 223.062 334.824 223.566 334.626L221.676 339H223.638L226.464 332.736C226.716 332.142 226.986 331.44 226.986 330.54C226.986 327.966 224.934 326.22 222.432 326.22ZM222.414 333.204C221.028 333.204 219.84 332.178 219.84 330.558C219.84 328.992 221.028 327.948 222.414 327.948C223.818 327.948 225.006 328.992 225.006 330.558C225.006 332.178 223.818 333.204 222.414 333.204Z" fill="#181818"/>
<path opacity="0.36" d="M352.941 339H361.509V337.29H355.767L358.287 334.752C359.565 333.456 361.419 331.674 361.419 329.676C361.419 327.642 359.709 326.22 357.315 326.22C355.281 326.22 353.625 327.264 353.211 329.208L354.903 329.748C355.119 328.596 356.037 327.948 357.225 327.948C358.575 327.948 359.421 328.812 359.421 329.928C359.421 331.386 357.747 332.934 356.127 334.554L352.941 337.758V339ZM368.113 339.18C371.119 339.18 373.189 336.768 373.189 332.7C373.189 328.632 371.119 326.22 368.095 326.22C365.089 326.22 363.037 328.632 363.037 332.7C363.037 336.768 365.089 339.18 368.113 339.18ZM368.113 337.416C366.259 337.416 365.017 335.688 365.017 332.7C365.017 329.712 366.259 327.966 368.095 327.966C369.949 327.966 371.209 329.712 371.209 332.7C371.209 335.688 369.967 337.416 368.113 337.416ZM374.378 339H382.946V337.29H377.204L379.724 334.752C381.002 333.456 382.856 331.674 382.856 329.676C382.856 327.642 381.146 326.22 378.752 326.22C376.718 326.22 375.062 327.264 374.648 329.208L376.34 329.748C376.556 328.596 377.474 327.948 378.662 327.948C380.012 327.948 380.858 328.812 380.858 329.928C380.858 331.386 379.184 332.934 377.564 334.554L374.378 337.758V339ZM389.55 339.18C392.556 339.18 394.626 336.768 394.626 332.7C394.626 328.632 392.556 326.22 389.532 326.22C386.526 326.22 384.474 328.632 384.474 332.7C384.474 336.768 386.526 339.18 389.55 339.18ZM389.55 337.416C387.696 337.416 386.454 335.688 386.454 332.7C386.454 329.712 387.696 327.966 389.532 327.966C391.386 327.966 392.646 329.712 392.646 332.7C392.646 335.688 391.404 337.416 389.55 337.416Z" fill="#181818"/>
<path opacity="0.36" d="M522.613 339H531.181V337.29H525.439L527.959 334.752C529.237 333.456 531.091 331.674 531.091 329.676C531.091 327.642 529.381 326.22 526.987 326.22C524.953 326.22 523.297 327.264 522.883 329.208L524.575 329.748C524.791 328.596 525.709 327.948 526.897 327.948C528.247 327.948 529.093 328.812 529.093 329.928C529.093 331.386 527.419 332.934 525.799 334.554L522.613 337.758V339ZM537.785 339.18C540.791 339.18 542.861 336.768 542.861 332.7C542.861 328.632 540.791 326.22 537.767 326.22C534.761 326.22 532.709 328.632 532.709 332.7C532.709 336.768 534.761 339.18 537.785 339.18ZM537.785 337.416C535.931 337.416 534.689 335.688 534.689 332.7C534.689 329.712 535.931 327.966 537.767 327.966C539.621 327.966 540.881 329.712 540.881 332.7C540.881 335.688 539.639 337.416 537.785 337.416ZM544.05 339H552.618V337.29H546.876L549.396 334.752C550.674 333.456 552.528 331.674 552.528 329.676C552.528 327.642 550.818 326.22 548.424 326.22C546.39 326.22 544.734 327.264 544.32 329.208L546.012 329.748C546.228 328.596 547.146 327.948 548.334 327.948C549.684 327.948 550.53 328.812 550.53 329.928C550.53 331.386 548.856 332.934 547.236 334.554L544.05 337.758V339ZM556.288 339H558.268V326.4H556.558C555.658 327.012 554.65 327.336 553.642 327.336V329.064C554.542 329.064 555.46 328.848 556.288 328.452V339Z" fill="#181818"/>
<path opacity="0.16" d="M45 229.873L210.206 217.108L374.587 152.503L538.967 109L705 126.857V302H45V229.873Z" fill="url(#paint4_linear_773_11778)"/>
<path d="M45 230L111.441 228.312C175.849 226.675 239.335 212.605 298.405 186.876L375.414 153.333L399.103 144.275C491.635 108.891 592.593 101.792 689.166 123.879L705 127.5" stroke="#8CAEFE" stroke-width="22" stroke-linecap="round"/>
<path d="M45 230L111.441 228.312C175.849 226.675 239.335 212.605 298.405 186.876L375.414 153.333L399.103 144.275C491.635 108.891 592.593 101.792 689.166 123.879L705 127.5" stroke="url(#paint5_linear_773_11778)" stroke-width="22" stroke-linecap="round"/>
<circle cx="375" cy="154" r="6" fill="white"/>
<circle cx="210" cy="216" r="6" fill="white"/>
<circle cx="45" cy="230" r="6" fill="white"/>
<circle cx="705" cy="128" r="6" fill="white"/>
<circle cx="541" cy="113" r="6" fill="white"/>
<defs>
<linearGradient id="paint0_linear_773_11778" x1="457" y1="0" x2="457" y2="340" gradientUnits="userSpaceOnUse">
<stop stop-color="#181818" stop-opacity="0"/>
<stop offset="0.239583" stop-color="#181818"/>
<stop offset="0.776042" stop-color="#181818"/>
<stop offset="1" stop-color="#181818" stop-opacity="0"/>
</linearGradient>
<linearGradient id="paint1_linear_773_11778" x1="623" y1="0" x2="623" y2="340" gradientUnits="userSpaceOnUse">
<stop stop-color="#181818" stop-opacity="0"/>
<stop offset="0.239583" stop-color="#180404"/>
<stop offset="0.776042" stop-color="#181818"/>
<stop offset="1" stop-color="#181818" stop-opacity="0"/>
</linearGradient>
<linearGradient id="paint2_linear_773_11778" x1="292" y1="0" x2="292" y2="340" gradientUnits="userSpaceOnUse">
<stop stop-color="#181818" stop-opacity="0"/>
<stop offset="0.239583" stop-color="#181818"/>
<stop offset="0.776042" stop-color="#181818"/>
<stop offset="1" stop-color="#181818" stop-opacity="0"/>
</linearGradient>
<linearGradient id="paint3_linear_773_11778" x1="126" y1="0" x2="126" y2="340" gradientUnits="userSpaceOnUse">
<stop stop-color="#181818" stop-opacity="0"/>
<stop offset="0.239583" stop-color="#181818"/>
<stop offset="0.776042" stop-color="#181818"/>
<stop offset="1" stop-color="#181818" stop-opacity="0"/>
</linearGradient>
<linearGradient id="paint4_linear_773_11778" x1="375" y1="172" x2="375" y2="302" gradientUnits="userSpaceOnUse">
<stop stop-color="#4969DB"/>
<stop offset="1" stop-color="#4969DB" stop-opacity="0"/>
</linearGradient>
<linearGradient id="paint5_linear_773_11778" x1="705" y1="130" x2="207" y2="130" gradientUnits="userSpaceOnUse">
<stop stop-color="#355EE7"/>
<stop offset="1" stop-color="#355EE7" stop-opacity="0"/>
</linearGradient>
</defs>
</svg>
