<svg width="750" height="410" viewBox="0 0 750 410" fill="none" xmlns="http://www.w3.org/2000/svg">
<path d="M14.468 167.24C18.14 167.24 20.492 165.128 20.492 162.344C20.492 160.52 19.484 159.128 17.876 158.384C19.292 157.664 20.108 156.44 20.108 154.712C20.108 152.024 17.996 149.96 14.468 149.96C10.964 149.96 8.82797 152.024 8.82797 154.712C8.82797 156.44 9.66797 157.664 11.084 158.384C9.45197 159.128 8.46797 160.52 8.46797 162.344C8.46797 165.128 10.796 167.24 14.468 167.24ZM14.468 157.304C12.74 157.304 11.468 156.344 11.468 154.832C11.468 153.272 12.764 152.264 14.468 152.264C16.172 152.264 17.468 153.272 17.468 154.832C17.468 156.344 16.22 157.304 14.468 157.304ZM14.468 164.936C12.524 164.936 11.108 163.856 11.108 162.152C11.108 160.448 12.524 159.392 14.468 159.392C16.436 159.392 17.852 160.448 17.852 162.152C17.852 163.856 16.412 164.936 14.468 164.936ZM25.498 167H28.138V150.2H25.858C24.658 151.016 23.314 151.448 21.97 151.448V153.752C23.17 153.752 24.394 153.464 25.498 152.936V167ZM43.3675 167.24C47.3755 167.24 50.1355 164.024 50.1355 158.6C50.1355 153.176 47.3755 149.96 43.3435 149.96C39.3355 149.96 36.5995 153.176 36.5995 158.6C36.5995 164.024 39.3355 167.24 43.3675 167.24ZM43.3675 164.888C40.8955 164.888 39.2395 162.584 39.2395 158.6C39.2395 154.616 40.8955 152.288 43.3435 152.288C45.8155 152.288 47.4955 154.616 47.4955 158.6C47.4955 162.584 45.8395 164.888 43.3675 164.888ZM59.065 167.24C63.073 167.24 65.833 164.024 65.833 158.6C65.833 153.176 63.073 149.96 59.041 149.96C55.033 149.96 52.297 153.176 52.297 158.6C52.297 164.024 55.033 167.24 59.065 167.24ZM59.065 164.888C56.593 164.888 54.937 162.584 54.937 158.6C54.937 154.616 56.593 152.288 59.041 152.288C61.513 152.288 63.193 154.616 63.193 158.6C63.193 162.584 61.537 164.888 59.065 164.888ZM74.7625 167.24C78.7705 167.24 81.5305 164.024 81.5305 158.6C81.5305 153.176 78.7705 149.96 74.7385 149.96C70.7305 149.96 67.9945 153.176 67.9945 158.6C67.9945 164.024 70.7305 167.24 74.7625 167.24ZM74.7625 164.888C72.2905 164.888 70.6345 162.584 70.6345 158.6C70.6345 154.616 72.2905 152.288 74.7385 152.288C77.2105 152.288 78.8905 154.616 78.8905 158.6C78.8905 162.584 77.2345 164.888 74.7625 164.888Z" fill="white"/>
<path d="M668.167 109H670.807V92.2H668.527C667.327 93.016 665.983 93.448 664.639 93.448V95.752C665.839 95.752 667.063 95.464 668.167 94.936V109ZM676.739 109H679.379V92.2H677.099C675.899 93.016 674.555 93.448 673.211 93.448V95.752C674.411 95.752 675.635 95.464 676.739 94.936V109ZM688.456 109.24C692.128 109.24 694.48 107.128 694.48 104.344C694.48 102.52 693.472 101.128 691.864 100.384C693.28 99.664 694.096 98.44 694.096 96.712C694.096 94.024 691.984 91.96 688.456 91.96C684.952 91.96 682.816 94.024 682.816 96.712C682.816 98.44 683.656 99.664 685.072 100.384C683.44 101.128 682.456 102.52 682.456 104.344C682.456 107.128 684.784 109.24 688.456 109.24ZM688.456 99.304C686.728 99.304 685.456 98.344 685.456 96.832C685.456 95.272 686.752 94.264 688.456 94.264C690.16 94.264 691.456 95.272 691.456 96.832C691.456 98.344 690.208 99.304 688.456 99.304ZM688.456 106.936C686.512 106.936 685.096 105.856 685.096 104.152C685.096 102.448 686.512 101.392 688.456 101.392C690.424 101.392 691.84 102.448 691.84 104.152C691.84 105.856 690.4 106.936 688.456 106.936ZM710.055 109H712.695V105.52H714.999V103.24H712.695V92.2H710.151L701.319 103.36V105.52H710.055V109ZM704.175 103.24L710.055 95.896V103.24H704.175ZM722.54 109.24C726.212 109.24 728.564 107.128 728.564 104.344C728.564 102.52 727.556 101.128 725.948 100.384C727.364 99.664 728.18 98.44 728.18 96.712C728.18 94.024 726.068 91.96 722.54 91.96C719.036 91.96 716.9 94.024 716.9 96.712C716.9 98.44 717.74 99.664 719.156 100.384C717.524 101.128 716.54 102.52 716.54 104.344C716.54 107.128 718.868 109.24 722.54 109.24ZM722.54 99.304C720.812 99.304 719.54 98.344 719.54 96.832C719.54 95.272 720.836 94.264 722.54 94.264C724.244 94.264 725.54 95.272 725.54 96.832C725.54 98.344 724.292 99.304 722.54 99.304ZM722.54 106.936C720.596 106.936 719.18 105.856 719.18 104.152C719.18 102.448 720.596 101.392 722.54 101.392C724.508 101.392 725.924 102.448 725.924 104.152C725.924 105.856 724.484 106.936 722.54 106.936ZM731.698 109H734.698L741.394 93.832V92.2H729.994V94.6H738.37L731.698 109Z" fill="white"/>
<line opacity="0.12" x1="1" y1="90" x2="749" y2="90" stroke="white" stroke-width="2" stroke-linecap="round" stroke-dasharray="0.2 10"/>
<line opacity="0.12" x1="1" y1="253" x2="749" y2="253" stroke="white" stroke-width="2" stroke-linecap="round" stroke-dasharray="0.2 10"/>
<line opacity="0.08" x1="457.5" y1="0.5" x2="457.5" y2="339.5" stroke="url(#paint0_linear_393_6311)" stroke-linecap="round"/>
<line opacity="0.08" x1="623.5" y1="0.5" x2="623.5" y2="339.5" stroke="url(#paint1_linear_393_6311)" stroke-linecap="round"/>
<line opacity="0.08" x1="292.5" y1="0.5" x2="292.5" y2="339.5" stroke="url(#paint2_linear_393_6311)" stroke-linecap="round"/>
<line opacity="0.08" x1="126.5" y1="0.5" x2="126.5" y2="339.5" stroke="url(#paint3_linear_393_6311)" stroke-linecap="round"/>
<path opacity="0.36" d="M685.496 339H694.064V337.29H688.322L690.842 334.752C692.12 333.456 693.974 331.674 693.974 329.676C693.974 327.642 692.264 326.22 689.87 326.22C687.836 326.22 686.18 327.264 685.766 329.208L687.458 329.748C687.674 328.596 688.592 327.948 689.78 327.948C691.13 327.948 691.976 328.812 691.976 329.928C691.976 331.386 690.302 332.934 688.682 334.554L685.496 337.758V339ZM700.668 339.18C703.674 339.18 705.744 336.768 705.744 332.7C705.744 328.632 703.674 326.22 700.65 326.22C697.644 326.22 695.592 328.632 695.592 332.7C695.592 336.768 697.644 339.18 700.668 339.18ZM700.668 337.416C698.814 337.416 697.572 335.688 697.572 332.7C697.572 329.712 698.814 327.966 700.65 327.966C702.504 327.966 703.764 329.712 703.764 332.7C703.764 335.688 702.522 337.416 700.668 337.416ZM706.933 339H715.501V337.29H709.759L712.279 334.752C713.557 333.456 715.411 331.674 715.411 329.676C715.411 327.642 713.701 326.22 711.307 326.22C709.273 326.22 707.617 327.264 707.203 329.208L708.895 329.748C709.111 328.596 710.029 327.948 711.217 327.948C712.567 327.948 713.413 328.812 713.413 329.928C713.413 331.386 711.739 332.934 710.119 334.554L706.933 337.758V339ZM716.596 339H725.164V337.29H719.422L721.942 334.752C723.22 333.456 725.074 331.674 725.074 329.676C725.074 327.642 723.364 326.22 720.97 326.22C718.936 326.22 717.28 327.264 716.866 329.208L718.558 329.748C718.774 328.596 719.692 327.948 720.88 327.948C722.23 327.948 723.076 328.812 723.076 329.928C723.076 331.386 721.402 332.934 719.782 334.554L716.596 337.758V339Z" fill="white"/>
<path opacity="0.36" d="M25.6296 339H34.1976V337.29H28.4556L30.9756 334.752C32.2536 333.456 34.1076 331.674 34.1076 329.676C34.1076 327.642 32.3976 326.22 30.0036 326.22C27.9696 326.22 26.3136 327.264 25.8996 329.208L27.5916 329.748C27.8076 328.596 28.7256 327.948 29.9136 327.948C31.2636 327.948 32.1096 328.812 32.1096 329.928C32.1096 331.386 30.4356 332.934 28.8156 334.554L25.6296 337.758V339ZM40.8014 339.18C43.8074 339.18 45.8774 336.768 45.8774 332.7C45.8774 328.632 43.8074 326.22 40.7834 326.22C37.7774 326.22 35.7254 328.632 35.7254 332.7C35.7254 336.768 37.7774 339.18 40.8014 339.18ZM40.8014 337.416C38.9474 337.416 37.7054 335.688 37.7054 332.7C37.7054 329.712 38.9474 327.966 40.7834 327.966C42.6374 327.966 43.8974 329.712 43.8974 332.7C43.8974 335.688 42.6554 337.416 40.8014 337.416ZM49.6405 339H51.6205V326.4H49.9105C49.0105 327.012 48.0025 327.336 46.9945 327.336V329.064C47.8945 329.064 48.8125 328.848 49.6405 328.452V339ZM58.4279 339.18C61.1819 339.18 62.9459 337.596 62.9459 335.508C62.9459 334.14 62.1899 333.096 60.9839 332.538C62.0459 331.998 62.6579 331.08 62.6579 329.784C62.6579 327.768 61.0739 326.22 58.4279 326.22C55.7999 326.22 54.1979 327.768 54.1979 329.784C54.1979 331.08 54.8279 331.998 55.8899 332.538C54.6659 333.096 53.9279 334.14 53.9279 335.508C53.9279 337.596 55.6739 339.18 58.4279 339.18ZM58.4279 331.728C57.1319 331.728 56.1779 331.008 56.1779 329.874C56.1779 328.704 57.1499 327.948 58.4279 327.948C59.7059 327.948 60.6779 328.704 60.6779 329.874C60.6779 331.008 59.7419 331.728 58.4279 331.728ZM58.4279 337.452C56.9699 337.452 55.9079 336.642 55.9079 335.364C55.9079 334.086 56.9699 333.294 58.4279 333.294C59.9039 333.294 60.9659 334.086 60.9659 335.364C60.9659 336.642 59.8859 337.452 58.4279 337.452Z" fill="white"/>
<path opacity="0.36" d="M189.849 339H198.417V337.29H192.675L195.195 334.752C196.473 333.456 198.327 331.674 198.327 329.676C198.327 327.642 196.617 326.22 194.223 326.22C192.189 326.22 190.533 327.264 190.119 329.208L191.811 329.748C192.027 328.596 192.945 327.948 194.133 327.948C195.483 327.948 196.329 328.812 196.329 329.928C196.329 331.386 194.655 332.934 193.035 334.554L189.849 337.758V339ZM205.021 339.18C208.027 339.18 210.097 336.768 210.097 332.7C210.097 328.632 208.027 326.22 205.003 326.22C201.997 326.22 199.945 328.632 199.945 332.7C199.945 336.768 201.997 339.18 205.021 339.18ZM205.021 337.416C203.167 337.416 201.925 335.688 201.925 332.7C201.925 329.712 203.167 327.966 205.003 327.966C206.857 327.966 208.117 329.712 208.117 332.7C208.117 335.688 206.875 337.416 205.021 337.416ZM213.86 339H215.84V326.4H214.13C213.23 327.012 212.222 327.336 211.214 327.336V329.064C212.114 329.064 213.032 328.848 213.86 328.452V339ZM222.432 326.22C219.894 326.22 217.86 327.984 217.86 330.576C217.86 333.06 219.678 334.914 222.036 334.914C222.558 334.914 223.062 334.824 223.566 334.626L221.676 339H223.638L226.464 332.736C226.716 332.142 226.986 331.44 226.986 330.54C226.986 327.966 224.934 326.22 222.432 326.22ZM222.414 333.204C221.028 333.204 219.84 332.178 219.84 330.558C219.84 328.992 221.028 327.948 222.414 327.948C223.818 327.948 225.006 328.992 225.006 330.558C225.006 332.178 223.818 333.204 222.414 333.204Z" fill="white"/>
<path opacity="0.36" d="M352.941 339H361.509V337.29H355.767L358.287 334.752C359.565 333.456 361.419 331.674 361.419 329.676C361.419 327.642 359.709 326.22 357.315 326.22C355.281 326.22 353.625 327.264 353.211 329.208L354.903 329.748C355.119 328.596 356.037 327.948 357.225 327.948C358.575 327.948 359.421 328.812 359.421 329.928C359.421 331.386 357.747 332.934 356.127 334.554L352.941 337.758V339ZM368.113 339.18C371.119 339.18 373.189 336.768 373.189 332.7C373.189 328.632 371.119 326.22 368.095 326.22C365.089 326.22 363.037 328.632 363.037 332.7C363.037 336.768 365.089 339.18 368.113 339.18ZM368.113 337.416C366.259 337.416 365.017 335.688 365.017 332.7C365.017 329.712 366.259 327.966 368.095 327.966C369.949 327.966 371.209 329.712 371.209 332.7C371.209 335.688 369.967 337.416 368.113 337.416ZM374.378 339H382.946V337.29H377.204L379.724 334.752C381.002 333.456 382.856 331.674 382.856 329.676C382.856 327.642 381.146 326.22 378.752 326.22C376.718 326.22 375.062 327.264 374.648 329.208L376.34 329.748C376.556 328.596 377.474 327.948 378.662 327.948C380.012 327.948 380.858 328.812 380.858 329.928C380.858 331.386 379.184 332.934 377.564 334.554L374.378 337.758V339ZM389.55 339.18C392.556 339.18 394.626 336.768 394.626 332.7C394.626 328.632 392.556 326.22 389.532 326.22C386.526 326.22 384.474 328.632 384.474 332.7C384.474 336.768 386.526 339.18 389.55 339.18ZM389.55 337.416C387.696 337.416 386.454 335.688 386.454 332.7C386.454 329.712 387.696 327.966 389.532 327.966C391.386 327.966 392.646 329.712 392.646 332.7C392.646 335.688 391.404 337.416 389.55 337.416Z" fill="white"/>
<path opacity="0.36" d="M522.613 339H531.181V337.29H525.439L527.959 334.752C529.237 333.456 531.091 331.674 531.091 329.676C531.091 327.642 529.381 326.22 526.987 326.22C524.953 326.22 523.297 327.264 522.883 329.208L524.575 329.748C524.791 328.596 525.709 327.948 526.897 327.948C528.247 327.948 529.093 328.812 529.093 329.928C529.093 331.386 527.419 332.934 525.799 334.554L522.613 337.758V339ZM537.785 339.18C540.791 339.18 542.861 336.768 542.861 332.7C542.861 328.632 540.791 326.22 537.767 326.22C534.761 326.22 532.709 328.632 532.709 332.7C532.709 336.768 534.761 339.18 537.785 339.18ZM537.785 337.416C535.931 337.416 534.689 335.688 534.689 332.7C534.689 329.712 535.931 327.966 537.767 327.966C539.621 327.966 540.881 329.712 540.881 332.7C540.881 335.688 539.639 337.416 537.785 337.416ZM544.05 339H552.618V337.29H546.876L549.396 334.752C550.674 333.456 552.528 331.674 552.528 329.676C552.528 327.642 550.818 326.22 548.424 326.22C546.39 326.22 544.734 327.264 544.32 329.208L546.012 329.748C546.228 328.596 547.146 327.948 548.334 327.948C549.684 327.948 550.53 328.812 550.53 329.928C550.53 331.386 548.856 332.934 547.236 334.554L544.05 337.758V339ZM556.288 339H558.268V326.4H556.558C555.658 327.012 554.65 327.336 553.642 327.336V329.064C554.542 329.064 555.46 328.848 556.288 328.452V339Z" fill="white"/>
<path opacity="0.16" d="M45 205.873L210.206 194.108L374.587 187.503L538.967 176.717L705 143.857V302H45V205.873Z" fill="url(#paint4_linear_393_6311)"/>
<path d="M45 200C45 200 146.082 196.814 210.829 194.217C274.956 191.646 310.918 190.305 375 186.783C439.798 183.221 476.492 184.545 540.829 176.043C605.664 167.476 705 143 705 143" stroke="#243968" stroke-width="22" stroke-linecap="round"/>
<path d="M45 200C45 200 146.082 196.814 210.829 194.217C274.956 191.646 310.918 190.305 375 186.783C439.798 183.221 476.492 184.545 540.829 176.043C605.664 167.476 705 143 705 143" stroke="url(#paint5_linear_393_6311)" stroke-width="22" stroke-linecap="round"/>
<circle cx="375" cy="187" r="6" fill="white"/>
<circle cx="210" cy="194" r="6" fill="white"/>
<circle cx="45" cy="200" r="6" fill="white"/>
<circle cx="705" cy="143" r="6" fill="white"/>
<circle cx="541" cy="176" r="6" fill="white"/>
<defs>
<linearGradient id="paint0_linear_393_6311" x1="457" y1="0" x2="457" y2="340" gradientUnits="userSpaceOnUse">
<stop stop-color="white" stop-opacity="0"/>
<stop offset="0.239583" stop-color="white"/>
<stop offset="0.776042" stop-color="white"/>
<stop offset="1" stop-color="white" stop-opacity="0"/>
</linearGradient>
<linearGradient id="paint1_linear_393_6311" x1="623" y1="0" x2="623" y2="340" gradientUnits="userSpaceOnUse">
<stop stop-color="white" stop-opacity="0"/>
<stop offset="0.239583" stop-color="white"/>
<stop offset="0.776042" stop-color="white"/>
<stop offset="1" stop-color="white" stop-opacity="0"/>
</linearGradient>
<linearGradient id="paint2_linear_393_6311" x1="292" y1="0" x2="292" y2="340" gradientUnits="userSpaceOnUse">
<stop stop-color="white" stop-opacity="0"/>
<stop offset="0.239583" stop-color="white"/>
<stop offset="0.776042" stop-color="white"/>
<stop offset="1" stop-color="white" stop-opacity="0"/>
</linearGradient>
<linearGradient id="paint3_linear_393_6311" x1="126" y1="0" x2="126" y2="340" gradientUnits="userSpaceOnUse">
<stop stop-color="white" stop-opacity="0"/>
<stop offset="0.239583" stop-color="white"/>
<stop offset="0.776042" stop-color="white"/>
<stop offset="1" stop-color="white" stop-opacity="0"/>
</linearGradient>
<linearGradient id="paint4_linear_393_6311" x1="375" y1="172" x2="375" y2="302" gradientUnits="userSpaceOnUse">
<stop stop-color="#4969DB"/>
<stop offset="1" stop-color="#4969DB" stop-opacity="0"/>
</linearGradient>
<linearGradient id="paint5_linear_393_6311" x1="705" y1="130" x2="207" y2="130" gradientUnits="userSpaceOnUse">
<stop stop-color="#355EE7"/>
<stop offset="1" stop-color="#355EE7" stop-opacity="0"/>
</linearGradient>
</defs>
</svg>
