<svg width="750" height="410" viewBox="0 0 750 410" fill="none" xmlns="http://www.w3.org/2000/svg">
<path d="M21.2782 168V153.936C20.1742 154.464 18.9502 154.752 17.7502 154.752V152.448C19.0942 152.448 20.4382 152.016 21.6382 151.2H23.9182V168H21.2782ZM38.2117 168.24C35.4757 168.24 33.1957 166.8 32.6677 164.376L34.9477 163.656C35.2117 165.048 36.4597 165.936 38.0677 165.936C40.0837 165.936 41.4997 164.496 41.4997 162.408C41.4997 160.32 40.0837 158.928 38.1397 158.928C36.5797 158.928 35.4517 159.72 35.1397 161.04L32.9557 160.368V151.2H43.3957V153.48H35.2357V157.776C35.9557 157.056 37.0117 156.624 38.2837 156.624C41.6677 156.624 44.1397 158.952 44.1397 162.432C44.1397 165.864 41.6917 168.24 38.2117 168.24ZM52.9233 168.24C48.8913 168.24 46.1553 165.024 46.1553 159.6C46.1553 154.176 48.8913 150.96 52.8993 150.96C56.9313 150.96 59.6913 154.176 59.6913 159.6C59.6913 165.024 56.9313 168.24 52.9233 168.24ZM52.9233 165.888C55.3953 165.888 57.0513 163.584 57.0513 159.6C57.0513 155.616 55.3713 153.288 52.8993 153.288C50.4513 153.288 48.7953 155.616 48.7953 159.6C48.7953 163.584 50.4513 165.888 52.9233 165.888ZM61.2768 168V166.344L65.5248 162.072C67.6848 159.912 69.9168 157.848 69.9168 155.904C69.9168 154.416 68.7888 153.264 66.9888 153.264C65.4048 153.264 64.1808 154.128 63.8928 155.664L61.6368 154.944C62.1888 152.352 64.3968 150.96 67.1088 150.96C70.3008 150.96 72.5808 152.856 72.5808 155.568C72.5808 158.232 70.1088 160.608 68.4048 162.336L65.0448 165.72H72.7008V168H61.2768Z" fill="#181818"/>
<path d="M682.2 131V116.936C681.096 117.464 679.872 117.752 678.672 117.752V115.448C680.016 115.448 681.36 115.016 682.56 114.2H684.84V131H682.2ZM699.014 113.96C702.35 113.96 705.086 116.288 705.086 119.72C705.086 120.92 704.726 121.856 704.39 122.648L700.622 131H698.006L700.526 125.168C699.854 125.432 699.182 125.552 698.486 125.552C695.342 125.552 692.918 123.08 692.918 119.768C692.918 116.312 695.63 113.96 699.014 113.96ZM698.99 123.272C700.862 123.272 702.446 121.904 702.446 119.744C702.446 117.656 700.862 116.264 698.99 116.264C697.142 116.264 695.558 117.656 695.558 119.744C695.558 121.904 697.142 123.272 698.99 123.272ZM709.746 131V116.936C708.642 117.464 707.418 117.752 706.218 117.752V115.448C707.562 115.448 708.906 115.016 710.106 114.2H712.386V131H709.746ZM720.67 131.24C717.766 131.24 715.558 129.776 715.054 127.256L717.31 126.536C717.598 128.048 718.846 128.936 720.574 128.936C722.254 128.936 723.934 128.096 723.934 126.152C723.934 124.256 722.326 123.392 720.43 123.392H718.654V121.304H720.43C722.206 121.304 723.694 120.56 723.694 118.88C723.694 117.104 722.062 116.264 720.454 116.264C718.822 116.264 717.598 117.176 717.31 118.664L715.054 117.944C715.606 115.4 717.766 113.96 720.598 113.96C723.886 113.96 726.31 115.856 726.31 118.832C726.31 120.584 725.422 121.712 724.054 122.384C725.59 123.128 726.55 124.376 726.55 126.272C726.55 129.392 723.958 131.24 720.67 131.24Z" fill="#181818"/>
<line opacity="0.12" x1="1" y1="90" x2="749" y2="90" stroke="#181818" stroke-width="2" stroke-linecap="round" stroke-dasharray="0.2 10"/>
<line opacity="0.12" x1="1" y1="253" x2="749" y2="253" stroke="#181818" stroke-width="2" stroke-linecap="round" stroke-dasharray="0.2 10"/>
<line opacity="0.08" x1="457.5" y1="0.5" x2="457.5" y2="339.5" stroke="url(#paint0_linear_773_11712)" stroke-linecap="round"/>
<line opacity="0.08" x1="623.5" y1="0.5" x2="623.5" y2="339.5" stroke="url(#paint1_linear_773_11712)" stroke-linecap="round"/>
<line opacity="0.08" x1="292.5" y1="0.5" x2="292.5" y2="339.5" stroke="url(#paint2_linear_773_11712)" stroke-linecap="round"/>
<line opacity="0.08" x1="126.5" y1="0.5" x2="126.5" y2="339.5" stroke="url(#paint3_linear_773_11712)" stroke-linecap="round"/>
<path opacity="0.36" d="M685.496 339H694.064V337.29H688.322L690.842 334.752C692.12 333.456 693.974 331.674 693.974 329.676C693.974 327.642 692.264 326.22 689.87 326.22C687.836 326.22 686.18 327.264 685.766 329.208L687.458 329.748C687.674 328.596 688.592 327.948 689.78 327.948C691.13 327.948 691.976 328.812 691.976 329.928C691.976 331.386 690.302 332.934 688.682 334.554L685.496 337.758V339ZM700.668 339.18C703.674 339.18 705.744 336.768 705.744 332.7C705.744 328.632 703.674 326.22 700.65 326.22C697.644 326.22 695.592 328.632 695.592 332.7C695.592 336.768 697.644 339.18 700.668 339.18ZM700.668 337.416C698.814 337.416 697.572 335.688 697.572 332.7C697.572 329.712 698.814 327.966 700.65 327.966C702.504 327.966 703.764 329.712 703.764 332.7C703.764 335.688 702.522 337.416 700.668 337.416ZM706.933 339H715.501V337.29H709.759L712.279 334.752C713.557 333.456 715.411 331.674 715.411 329.676C715.411 327.642 713.701 326.22 711.307 326.22C709.273 326.22 707.617 327.264 707.203 329.208L708.895 329.748C709.111 328.596 710.029 327.948 711.217 327.948C712.567 327.948 713.413 328.812 713.413 329.928C713.413 331.386 711.739 332.934 710.119 334.554L706.933 337.758V339ZM716.596 339H725.164V337.29H719.422L721.942 334.752C723.22 333.456 725.074 331.674 725.074 329.676C725.074 327.642 723.364 326.22 720.97 326.22C718.936 326.22 717.28 327.264 716.866 329.208L718.558 329.748C718.774 328.596 719.692 327.948 720.88 327.948C722.23 327.948 723.076 328.812 723.076 329.928C723.076 331.386 721.402 332.934 719.782 334.554L716.596 337.758V339Z" fill="#181818"/>
<path opacity="0.36" d="M25.6296 339H34.1976V337.29H28.4556L30.9756 334.752C32.2536 333.456 34.1076 331.674 34.1076 329.676C34.1076 327.642 32.3976 326.22 30.0036 326.22C27.9696 326.22 26.3136 327.264 25.8996 329.208L27.5916 329.748C27.8076 328.596 28.7256 327.948 29.9136 327.948C31.2636 327.948 32.1096 328.812 32.1096 329.928C32.1096 331.386 30.4356 332.934 28.8156 334.554L25.6296 337.758V339ZM40.8014 339.18C43.8074 339.18 45.8774 336.768 45.8774 332.7C45.8774 328.632 43.8074 326.22 40.7834 326.22C37.7774 326.22 35.7254 328.632 35.7254 332.7C35.7254 336.768 37.7774 339.18 40.8014 339.18ZM40.8014 337.416C38.9474 337.416 37.7054 335.688 37.7054 332.7C37.7054 329.712 38.9474 327.966 40.7834 327.966C42.6374 327.966 43.8974 329.712 43.8974 332.7C43.8974 335.688 42.6554 337.416 40.8014 337.416ZM49.6405 339H51.6205V326.4H49.9105C49.0105 327.012 48.0025 327.336 46.9945 327.336V329.064C47.8945 329.064 48.8125 328.848 49.6405 328.452V339ZM58.4279 339.18C61.1819 339.18 62.9459 337.596 62.9459 335.508C62.9459 334.14 62.1899 333.096 60.9839 332.538C62.0459 331.998 62.6579 331.08 62.6579 329.784C62.6579 327.768 61.0739 326.22 58.4279 326.22C55.7999 326.22 54.1979 327.768 54.1979 329.784C54.1979 331.08 54.8279 331.998 55.8899 332.538C54.6659 333.096 53.9279 334.14 53.9279 335.508C53.9279 337.596 55.6739 339.18 58.4279 339.18ZM58.4279 331.728C57.1319 331.728 56.1779 331.008 56.1779 329.874C56.1779 328.704 57.1499 327.948 58.4279 327.948C59.7059 327.948 60.6779 328.704 60.6779 329.874C60.6779 331.008 59.7419 331.728 58.4279 331.728ZM58.4279 337.452C56.9699 337.452 55.9079 336.642 55.9079 335.364C55.9079 334.086 56.9699 333.294 58.4279 333.294C59.9039 333.294 60.9659 334.086 60.9659 335.364C60.9659 336.642 59.8859 337.452 58.4279 337.452Z" fill="#181818"/>
<path opacity="0.36" d="M189.849 339H198.417V337.29H192.675L195.195 334.752C196.473 333.456 198.327 331.674 198.327 329.676C198.327 327.642 196.617 326.22 194.223 326.22C192.189 326.22 190.533 327.264 190.119 329.208L191.811 329.748C192.027 328.596 192.945 327.948 194.133 327.948C195.483 327.948 196.329 328.812 196.329 329.928C196.329 331.386 194.655 332.934 193.035 334.554L189.849 337.758V339ZM205.021 339.18C208.027 339.18 210.097 336.768 210.097 332.7C210.097 328.632 208.027 326.22 205.003 326.22C201.997 326.22 199.945 328.632 199.945 332.7C199.945 336.768 201.997 339.18 205.021 339.18ZM205.021 337.416C203.167 337.416 201.925 335.688 201.925 332.7C201.925 329.712 203.167 327.966 205.003 327.966C206.857 327.966 208.117 329.712 208.117 332.7C208.117 335.688 206.875 337.416 205.021 337.416ZM213.86 339H215.84V326.4H214.13C213.23 327.012 212.222 327.336 211.214 327.336V329.064C212.114 329.064 213.032 328.848 213.86 328.452V339ZM222.432 326.22C219.894 326.22 217.86 327.984 217.86 330.576C217.86 333.06 219.678 334.914 222.036 334.914C222.558 334.914 223.062 334.824 223.566 334.626L221.676 339H223.638L226.464 332.736C226.716 332.142 226.986 331.44 226.986 330.54C226.986 327.966 224.934 326.22 222.432 326.22ZM222.414 333.204C221.028 333.204 219.84 332.178 219.84 330.558C219.84 328.992 221.028 327.948 222.414 327.948C223.818 327.948 225.006 328.992 225.006 330.558C225.006 332.178 223.818 333.204 222.414 333.204Z" fill="#181818"/>
<path opacity="0.36" d="M352.941 339H361.509V337.29H355.767L358.287 334.752C359.565 333.456 361.419 331.674 361.419 329.676C361.419 327.642 359.709 326.22 357.315 326.22C355.281 326.22 353.625 327.264 353.211 329.208L354.903 329.748C355.119 328.596 356.037 327.948 357.225 327.948C358.575 327.948 359.421 328.812 359.421 329.928C359.421 331.386 357.747 332.934 356.127 334.554L352.941 337.758V339ZM368.113 339.18C371.119 339.18 373.189 336.768 373.189 332.7C373.189 328.632 371.119 326.22 368.095 326.22C365.089 326.22 363.037 328.632 363.037 332.7C363.037 336.768 365.089 339.18 368.113 339.18ZM368.113 337.416C366.259 337.416 365.017 335.688 365.017 332.7C365.017 329.712 366.259 327.966 368.095 327.966C369.949 327.966 371.209 329.712 371.209 332.7C371.209 335.688 369.967 337.416 368.113 337.416ZM374.378 339H382.946V337.29H377.204L379.724 334.752C381.002 333.456 382.856 331.674 382.856 329.676C382.856 327.642 381.146 326.22 378.752 326.22C376.718 326.22 375.062 327.264 374.648 329.208L376.34 329.748C376.556 328.596 377.474 327.948 378.662 327.948C380.012 327.948 380.858 328.812 380.858 329.928C380.858 331.386 379.184 332.934 377.564 334.554L374.378 337.758V339ZM389.55 339.18C392.556 339.18 394.626 336.768 394.626 332.7C394.626 328.632 392.556 326.22 389.532 326.22C386.526 326.22 384.474 328.632 384.474 332.7C384.474 336.768 386.526 339.18 389.55 339.18ZM389.55 337.416C387.696 337.416 386.454 335.688 386.454 332.7C386.454 329.712 387.696 327.966 389.532 327.966C391.386 327.966 392.646 329.712 392.646 332.7C392.646 335.688 391.404 337.416 389.55 337.416Z" fill="#181818"/>
<path opacity="0.36" d="M522.613 339H531.181V337.29H525.439L527.959 334.752C529.237 333.456 531.091 331.674 531.091 329.676C531.091 327.642 529.381 326.22 526.987 326.22C524.953 326.22 523.297 327.264 522.883 329.208L524.575 329.748C524.791 328.596 525.709 327.948 526.897 327.948C528.247 327.948 529.093 328.812 529.093 329.928C529.093 331.386 527.419 332.934 525.799 334.554L522.613 337.758V339ZM537.785 339.18C540.791 339.18 542.861 336.768 542.861 332.7C542.861 328.632 540.791 326.22 537.767 326.22C534.761 326.22 532.709 328.632 532.709 332.7C532.709 336.768 534.761 339.18 537.785 339.18ZM537.785 337.416C535.931 337.416 534.689 335.688 534.689 332.7C534.689 329.712 535.931 327.966 537.767 327.966C539.621 327.966 540.881 329.712 540.881 332.7C540.881 335.688 539.639 337.416 537.785 337.416ZM544.05 339H552.618V337.29H546.876L549.396 334.752C550.674 333.456 552.528 331.674 552.528 329.676C552.528 327.642 550.818 326.22 548.424 326.22C546.39 326.22 544.734 327.264 544.32 329.208L546.012 329.748C546.228 328.596 547.146 327.948 548.334 327.948C549.684 327.948 550.53 328.812 550.53 329.928C550.53 331.386 548.856 332.934 547.236 334.554L544.05 337.758V339ZM556.288 339H558.268V326.4H556.558C555.658 327.012 554.65 327.336 553.642 327.336V329.064C554.542 329.064 555.46 328.848 556.288 328.452V339Z" fill="#181818"/>
<path opacity="0.16" d="M45 205.873C45 205.873 145.399 197.731 210.206 196.108C274.345 194.502 310.782 201.517 374.587 197.503C440.29 193.37 473.41 179.527 538.967 174.718C603.276 170 705 172.858 705 172.858V302H45V205.873Z" fill="url(#paint4_linear_773_11712)"/>
<path d="M45 201C45 201 145.399 192.106 210.207 190.333C274.345 188.579 310.782 196.242 374.587 191.857C440.29 187.342 473.41 172.222 538.967 166.969C603.276 161.815 705 164.937 705 164.937" stroke="#8CAEFE" stroke-width="22" stroke-linecap="round"/>
<path d="M45 201C45 201 145.399 192.106 210.207 190.333C274.345 188.579 310.782 196.242 374.587 191.857C440.29 187.342 473.41 172.222 538.967 166.969C603.276 161.815 705 164.937 705 164.937" stroke="url(#paint5_linear_773_11712)" stroke-width="22" stroke-linecap="round"/>
<circle cx="375" cy="192" r="6" fill="white"/>
<circle cx="210" cy="190" r="6" fill="white"/>
<circle cx="45" cy="201" r="6" fill="white"/>
<circle cx="705" cy="165" r="6" fill="white"/>
<circle cx="541" cy="167" r="6" fill="white"/>
<defs>
<linearGradient id="paint0_linear_773_11712" x1="457" y1="0" x2="457" y2="340" gradientUnits="userSpaceOnUse">
<stop stop-color="#181818" stop-opacity="0"/>
<stop offset="0.239583" stop-color="#181818"/>
<stop offset="0.776042" stop-color="#181818"/>
<stop offset="1" stop-color="#181818" stop-opacity="0"/>
</linearGradient>
<linearGradient id="paint1_linear_773_11712" x1="623" y1="0" x2="623" y2="340" gradientUnits="userSpaceOnUse">
<stop stop-color="#181818" stop-opacity="0"/>
<stop offset="0.239583" stop-color="#181818"/>
<stop offset="0.776042" stop-color="#181818"/>
<stop offset="1" stop-color="#181818" stop-opacity="0"/>
</linearGradient>
<linearGradient id="paint2_linear_773_11712" x1="292" y1="0" x2="292" y2="340" gradientUnits="userSpaceOnUse">
<stop stop-color="#181818" stop-opacity="0"/>
<stop offset="0.239583" stop-color="#181818"/>
<stop offset="0.776042" stop-color="#181818"/>
<stop offset="1" stop-color="#181818" stop-opacity="0"/>
</linearGradient>
<linearGradient id="paint3_linear_773_11712" x1="126" y1="0" x2="126" y2="340" gradientUnits="userSpaceOnUse">
<stop stop-color="#181818" stop-opacity="0"/>
<stop offset="0.239583" stop-color="#181818"/>
<stop offset="0.776042" stop-color="#181818"/>
<stop offset="1" stop-color="#181818" stop-opacity="0"/>
</linearGradient>
<linearGradient id="paint4_linear_773_11712" x1="375" y1="172" x2="375" y2="302" gradientUnits="userSpaceOnUse">
<stop stop-color="#4969DB"/>
<stop offset="1" stop-color="#4969DB" stop-opacity="0"/>
</linearGradient>
<linearGradient id="paint5_linear_773_11712" x1="705" y1="130" x2="207" y2="130" gradientUnits="userSpaceOnUse">
<stop stop-color="#355EE7"/>
<stop offset="1" stop-color="#355EE7" stop-opacity="0"/>
</linearGradient>
</defs>
</svg>
