<svg width="192" height="64" viewBox="0 0 192 64" fill="none" xmlns="http://www.w3.org/2000/svg">
<path fill-rule="evenodd" clip-rule="evenodd" d="M43.6907 33.3292H34.1627V29.6772H9.40025V54.5037H34.1627V47.9321H24.6961V38.441H43.6907V54.9903C43.6907 56.2503 43.4455 57.4233 42.9602 58.5194C42.4748 59.6155 41.826 60.5682 41.0188 61.3775C40.2065 62.1919 39.2614 62.827 38.1681 63.2932C37.0748 63.7593 35.9049 63.9897 34.6481 63.9897H8.97621C7.71944 63.9897 6.54952 63.7593 5.45623 63.2932C4.36805 62.827 3.4127 62.1868 2.6055 61.3775C1.79831 60.5682 1.1597 59.6155 0.694797 58.5194C0.229894 57.4233 0 56.2503 0 54.9903V29.1906C0 27.9357 0.229894 26.7576 0.694797 25.6615C1.1597 24.5654 1.79831 23.6126 2.6055 22.8034C3.4127 21.9941 4.36805 21.3538 5.45623 20.8877C6.54952 20.4216 7.72455 20.186 8.97621 20.186H34.6481C35.8997 20.186 37.0748 20.4216 38.1681 20.8877C39.2614 21.3538 40.2116 21.9941 41.0188 22.8034C41.826 23.6178 42.4748 24.5654 42.9602 25.6615C43.4404 26.7576 43.6907 27.9305 43.6907 29.1906V33.3292Z" fill="white"/>
<path fill-rule="evenodd" clip-rule="evenodd" d="M58.7618 54.473H83.5192V29.6515H58.7618V54.473ZM84.071 20.1552C85.2817 20.1552 86.4363 20.3857 87.5296 20.857C88.6229 21.3231 89.5834 21.9633 90.4161 22.7726C91.2437 23.5819 91.8926 24.5346 92.3575 25.6307C92.8224 26.7268 93.0523 27.8998 93.0523 29.1598V54.9595C93.0523 56.2144 92.8224 57.3925 92.3575 58.4886C91.8926 59.5848 91.2437 60.5375 90.4161 61.3519C89.5834 62.1611 88.6229 62.8014 87.5296 63.2675C86.4414 63.7336 85.2869 63.9692 84.071 63.9692H58.3378C57.0861 63.9692 55.9111 63.7336 54.8178 63.2675C53.7245 62.8014 52.7743 62.1611 51.9671 61.3519C51.1548 60.5375 50.5213 59.5899 50.0564 58.4886C49.5915 57.3976 49.3564 56.2196 49.3564 54.9595V29.1598C49.3564 27.8998 49.5915 26.7268 50.0564 25.6307C50.5213 24.5346 51.1599 23.5819 51.9671 22.7726C52.7794 21.9582 53.7245 21.3231 54.8178 20.857C55.9111 20.3909 57.0861 20.1552 58.3378 20.1552H84.071Z" fill="white"/>
<path d="M144.876 63.9897V51.9529H147.461V56.6652H154.547V51.9529H157.132V63.9897H154.547V59.2774H147.461V63.9897H144.876Z" fill="white"/>
<path d="M132.068 63.9897C131.614 63.9897 131.2 63.877 130.827 63.6568C130.454 63.4314 130.158 63.1343 129.933 62.7604C129.713 62.3865 129.601 61.9716 129.601 61.5158V54.4269C129.601 53.971 129.713 53.5561 129.933 53.1822C130.158 52.8083 130.454 52.5112 130.827 52.2858C131.2 52.0605 131.614 51.9529 132.068 51.9529H141.576V54.56H132.738C132.559 54.56 132.421 54.6061 132.329 54.6932C132.237 54.7803 132.186 54.9237 132.186 55.1132V60.8345C132.186 61.0138 132.232 61.147 132.329 61.2443C132.421 61.3365 132.559 61.3877 132.738 61.3877H141.576V63.9948H132.068V63.9897Z" fill="white"/>
<path d="M115.051 63.9897V51.9529H126.142V54.56H117.666V56.6652H124.492V59.2774H117.666V61.3826H126.142V63.9897H115.051Z" fill="white"/>
<path d="M103.398 63.9948V54.56H98.6924V51.9529H110.703V54.56H106.003V63.9948H103.398Z" fill="white"/>
<path d="M153.765 26.0405L147.201 33.8772C148.8 35.8082 150.424 37.7597 152.085 39.7266C153.745 41.6935 155.37 43.6347 156.969 45.5401V47.5992H150.813L141.841 36.8531H135.563V47.5992H129.631V20.1604H135.563V30.9064H141.841C144.447 27.9561 147.42 24.2836 150.072 21.067L153.76 26.0456L153.765 26.0405Z" fill="white"/>
<path d="M104.583 32.6172H120.093V26.1019H104.583V32.6172ZM126.06 32.9245C126.06 33.6877 125.907 34.4099 125.606 35.0963C125.299 35.7826 124.896 36.387 124.39 36.9043C123.884 37.4217 123.286 37.8314 122.602 38.1234C121.917 38.4153 121.181 38.5639 120.395 38.5639H120.129C121.095 39.7061 122.081 40.8739 123.092 42.0725C124.104 43.2659 125.095 44.4338 126.055 45.5811V47.5992H119.976L112.41 38.569L104.578 38.61C104.654 38.61 104.69 38.6868 104.69 38.8405H104.654C104.603 38.8405 104.578 38.8302 104.578 38.7995V47.6043H98.6873V20.2065H120.39C121.176 20.2065 121.912 20.355 122.597 20.647C123.281 20.9389 123.874 21.3436 124.385 21.866C124.89 22.3885 125.299 22.9929 125.601 23.6741C125.907 24.3605 126.055 25.0827 126.055 25.8458V32.9348L126.06 32.9245Z" fill="white"/>
<path d="M187.31 0L167.912 25.9688C169.848 26.6347 171.463 28.0073 172.438 29.7796L192 3.59567L187.31 0.00512705V0Z" fill="white"/>
<path d="M165.276 41.9906C164.244 41.9906 163.258 41.801 162.348 41.4527L162.41 64H168.31L168.249 41.4323C167.324 41.7908 166.323 41.9906 165.276 41.9906Z" fill="white"/>
<path d="M165.25 26.8959C163.36 26.8959 161.648 27.6642 160.412 28.9037C159.176 30.1432 158.409 31.8591 158.409 33.7543C158.409 35.6494 159.176 37.3653 160.412 38.6049C161.648 39.8444 163.36 40.6127 165.25 40.6127C167.14 40.6127 168.852 39.8444 170.088 38.6049C171.325 37.3653 172.091 35.6494 172.091 33.7543C172.091 31.8591 171.325 30.1432 170.088 28.9037C168.852 27.6642 167.14 26.8959 165.25 26.8959ZM167.524 36.0336C166.941 36.6175 166.139 36.9761 165.25 36.9761C164.361 36.9761 163.559 36.6124 162.977 36.0336C162.394 35.4497 162.037 34.6455 162.037 33.7543C162.037 32.8631 162.399 32.0589 162.977 31.475C163.554 30.8911 164.361 30.5325 165.25 30.5325C166.139 30.5325 166.941 30.8911 167.524 31.475C168.106 32.0589 168.464 32.8631 168.464 33.7543C168.464 34.6455 168.101 35.4497 167.524 36.0336Z" fill="white"/>
<path d="M150.251 9.27602L145.76 13.1432L158.072 29.7591C159.058 27.9869 160.673 26.6193 162.614 25.9585L150.251 9.27602Z" fill="white"/>
</svg>
